{"glyphs":{"0":{"ha":763,"x_min":88,"x_max":671,"o":"m 88 257 l 88 704 q 166 921 88 847 q 382 994 244 994 q 595 917 519 994 q 671 703 671 839 l 671 257 q 585 51 671 117 q 381 -15 500 -15 q 174 51 261 -15 q 88 257 88 117 m 150 714 l 150 257 q 216 98 150 151 q 381 44 282 44 q 544 97 479 44 q 610 258 610 149 l 610 714 q 548 878 610 821 q 379 935 486 935 q 211 878 272 935 q 150 714 150 821 z "},"1":{"ha":292,"x_min":36,"x_max":256,"o":"m 193 972 l 256 972 l 256 0 l 193 0 l 193 892 q 132 847 168 865 q 72 824 96 829 l 50 818 l 36 876 q 65 881 47 878 q 124 909 82 885 q 193 972 165 933 z "},"2":{"ha":560,"x_min":36,"x_max":524,"o":"m 113 797 l 54 819 q 139 940 81 893 q 290 986 197 986 q 449 928 383 986 q 521 768 521 861 q 460 574 521 675 l 108 58 l 524 58 l 524 0 l 36 0 l 36 60 l 404 603 q 457 751 457 686 q 405 879 457 832 q 287 926 353 926 q 176 890 221 926 q 113 797 132 854 z "},"3":{"ha":614,"x_min":36,"x_max":578,"o":"m 101 972 l 500 972 l 500 917 l 261 574 l 282 574 q 492 488 406 574 q 578 278 578 401 q 492 69 578 156 q 282 -17 406 -17 q 142 19 207 -17 q 36 115 76 54 l 89 149 q 172 74 121 101 q 282 46 222 46 q 449 115 382 46 q 515 281 515 185 q 449 442 515 376 q 290 513 382 508 l 147 513 l 424 910 l 101 910 l 101 972 z "},"4":{"ha":681,"x_min":36,"x_max":644,"o":"m 296 972 l 361 972 l 143 574 l 481 574 l 481 972 l 543 972 l 543 574 l 644 574 l 624 513 l 543 513 l 543 0 l 481 0 l 481 513 l 36 513 l 296 972 z "},"5":{"ha":614,"x_min":36,"x_max":578,"o":"m 132 972 l 500 972 l 500 910 l 186 910 l 151 574 l 282 574 q 492 488 406 574 q 578 278 578 401 q 492 69 578 156 q 282 -17 406 -17 q 142 19 207 -17 q 36 115 76 54 l 88 149 q 170 74 118 101 q 282 46 222 46 q 448 115 381 46 q 515 279 515 183 q 449 444 515 375 q 282 513 382 513 l 83 513 l 132 972 z "},"6":{"ha":663,"x_min":36,"x_max":626,"o":"m 375 972 l 424 972 l 424 910 l 369 910 q 185 846 265 910 q 121 758 144 814 q 97 628 97 701 l 97 442 q 194 540 131 507 q 331 574 257 574 q 540 488 454 574 q 626 278 626 401 q 540 69 626 156 q 331 -17 453 -17 q 122 69 208 -17 q 36 279 36 156 l 36 640 q 106 856 36 756 q 213 940 143 907 q 375 972 282 972 m 97 289 l 97 279 q 165 113 97 181 q 331 44 233 44 q 497 113 428 44 q 565 278 565 181 q 497 444 565 376 q 332 513 429 513 q 167 448 235 513 q 97 289 100 383 z "},"7":{"ha":619,"x_min":36,"x_max":583,"o":"m 36 972 l 583 972 l 583 910 l 122 0 l 54 0 l 511 910 l 36 910 l 36 972 z "},"8":{"ha":658,"x_min":36,"x_max":622,"o":"m 322 504 q 163 435 228 501 q 99 274 99 369 q 165 112 99 178 q 329 46 232 46 q 493 112 426 46 q 560 274 560 178 q 492 435 560 369 q 322 504 424 501 m 210 539 q 123 624 156 568 q 90 742 90 679 q 160 915 90 844 q 331 985 229 985 q 502 915 432 985 q 572 742 572 844 q 540 623 572 678 q 450 538 507 568 q 575 431 528 504 q 622 275 622 358 q 538 68 622 153 q 329 -17 453 -17 q 121 68 206 -17 q 36 275 36 153 q 83 433 36 361 q 210 539 131 504 m 331 925 q 292 925 331 925 q 201 872 254 925 q 149 743 149 818 q 201 617 149 668 q 328 566 254 567 q 456 616 401 565 q 511 743 511 667 q 459 872 511 819 q 331 925 407 925 z "},"9":{"ha":663,"x_min":36,"x_max":626,"o":"m 288 0 l 239 0 l 239 63 l 293 63 q 484 132 403 63 q 565 343 565 201 l 565 525 q 469 427 532 460 q 332 394 406 394 q 122 481 208 394 q 36 689 36 567 q 122 898 36 811 q 331 985 208 985 q 540 899 454 985 q 626 689 626 813 l 626 331 q 556 117 626 215 q 450 32 519 64 q 288 0 381 0 m 565 679 l 565 689 q 497 856 565 788 q 331 924 429 924 q 165 855 233 924 q 97 689 97 786 q 165 524 97 592 q 331 456 233 456 q 494 520 428 456 q 565 679 561 585 z "}," ":{"ha":386,"x_min":0,"x_max":0,"o":""},"!":{"ha":297,"x_min":108,"x_max":186,"o":"m 186 943 l 175 167 l 122 167 l 110 943 q 148 986 110 986 q 186 943 186 986 m 120 65 q 126 71 120 65 q 147 76 132 76 q 174 65 163 76 q 185 39 185 54 q 174 12 185 24 q 147 0 163 0 q 120 12 132 0 q 108 39 108 24 q 120 65 108 54 z "},"\"":{"ha":592,"x_min":160,"x_max":428,"o":"m 428 979 l 413 711 l 367 711 l 350 979 q 365 1014 350 1006 q 389 1022 379 1022 l 408 1017 q 428 979 428 1006 m 238 979 l 222 711 l 176 711 l 160 979 q 174 1014 160 1006 q 199 1022 189 1022 l 218 1017 q 238 979 238 1006 z "},"#":{"ha":851,"x_min":47,"x_max":808,"o":"m 381 972 l 442 972 l 364 636 l 558 636 l 638 972 l 699 972 l 619 636 l 808 636 l 808 574 l 606 574 l 550 340 l 808 340 l 808 278 l 536 278 l 471 0 l 410 0 l 474 278 l 279 278 l 214 0 l 153 0 l 218 278 l 47 278 l 47 340 l 232 340 l 288 574 l 47 574 l 47 636 l 303 636 l 381 972 m 349 574 l 293 340 l 489 340 l 544 574 l 349 574 z "},"$":{"ha":750,"x_min":47,"x_max":707,"o":"m 342 1135 l 404 1135 l 404 986 q 588 944 504 983 l 568 885 q 404 925 497 921 l 404 542 q 644 419 586 478 q 688 353 669 394 q 707 264 707 313 q 633 68 707 143 q 404 -14 558 -7 l 404 -158 l 342 -158 l 342 -14 q 128 74 206 -4 q 47 247 50 151 l 111 247 q 177 115 115 175 q 342 46 239 54 l 342 497 q 240 537 279 519 q 157 583 200 554 q 72 738 72 640 q 141 904 72 836 q 342 983 210 972 l 342 1135 m 404 476 l 404 44 q 574 103 508 51 q 640 251 640 154 q 573 394 640 347 q 404 476 506 440 m 342 922 q 193 866 249 913 q 138 748 138 819 q 190 637 138 676 q 342 563 243 597 l 342 922 z "},"%":{"ha":931,"x_min":53,"x_max":885,"o":"m 832 1028 l 878 982 l 93 1 l 54 47 l 832 1028 m 543 326 q 572 356 543 326 q 685 385 601 385 q 826 326 768 385 q 885 185 885 268 q 826 43 885 101 q 685 -15 768 -15 q 543 43 601 -15 q 485 185 485 101 q 543 326 485 268 m 581 285 q 561 263 581 285 q 542 185 542 242 q 581 85 542 128 q 685 42 619 42 q 789 85 750 42 q 828 185 828 128 q 788 285 828 242 q 685 328 749 328 q 581 285 621 328 m 111 951 q 140 981 111 951 q 253 1010 169 1010 q 394 951 336 1010 q 453 810 453 893 q 394 668 453 726 q 253 610 336 610 q 111 668 169 610 q 53 810 53 726 q 111 951 53 893 m 149 910 q 130 888 149 910 q 110 810 110 867 q 149 710 110 753 q 253 667 189 667 q 356 710 317 667 q 396 810 396 753 q 356 910 396 867 q 253 953 317 953 q 149 910 189 953 z "},"&":{"ha":758,"x_min":49,"x_max":715,"o":"m 529 971 l 494 919 q 418 931 460 931 q 335 899 376 931 q 278 790 278 856 q 279 768 278 779 q 347 661 290 692 q 419 640 388 640 q 471 644 450 640 l 536 658 l 536 846 l 600 846 l 600 672 l 701 694 l 715 635 l 600 610 l 600 188 q 688 33 600 63 l 669 -15 q 584 41 615 1 q 546 132 553 81 q 296 -15 457 -15 q 106 72 171 -15 q 49 249 49 149 q 81 399 49 336 q 162 501 114 463 q 249 560 210 539 q 343 606 288 582 q 258 656 296 613 q 215 788 215 707 q 304 950 215 892 q 422 988 364 988 q 529 971 479 988 m 536 297 l 536 596 q 221 471 325 550 q 147 388 179 439 q 110 247 110 328 q 158 106 110 167 q 306 44 206 44 q 471 122 406 44 q 536 297 536 200 z "},"'":{"ha":236,"x_min":64,"x_max":142,"o":"m 142 978 l 125 818 l 81 818 l 64 978 q 78 1013 64 1004 q 103 1022 93 1022 l 122 1017 q 142 978 142 1006 z "},"(":{"ha":386,"x_min":108,"x_max":275,"o":"m 254 1135 l 275 1092 q 199 1013 226 1058 q 171 883 171 967 l 171 88 q 199 -43 171 3 q 275 -122 228 -89 l 254 -165 q 142 -65 175 -119 q 108 99 108 -10 l 108 871 q 142 1034 108 979 q 254 1135 175 1089 z "},")":{"ha":386,"x_min":108,"x_max":275,"o":"m 108 1092 l 129 1135 q 242 1034 208 1089 q 275 871 275 979 l 275 99 q 242 -65 275 -10 q 129 -165 208 -119 l 108 -122 q 184 -43 156 -89 q 213 88 213 3 l 213 883 q 185 1013 213 967 q 108 1092 157 1058 z "},"*":{"ha":489,"x_min":36,"x_max":453,"o":"m 56 865 l 213 806 l 211 972 l 272 972 l 272 806 l 431 865 l 453 810 l 292 754 l 390 621 l 344 586 l 243 725 l 147 586 l 97 621 l 192 754 l 36 810 l 56 865 z "},"+":{"ha":535,"x_min":47,"x_max":492,"o":"m 239 757 l 301 757 l 301 574 l 492 574 l 492 513 l 301 513 l 301 325 l 239 325 l 239 513 l 47 513 l 47 574 l 239 574 l 239 757 z "},",":{"ha":229,"x_min":24,"x_max":157,"o":"m 110 -3 l 100 0 q 77 35 76 14 q 88 67 78 57 q 107 76 99 76 q 124 76 115 76 q 144 62 132 75 q 157 33 157 49 q 68 -117 157 -43 l 24 -85 q 76 -47 54 -68 q 110 -3 97 -26 z "},"-":{"ha":569,"x_min":63,"x_max":507,"o":"m 63 574 l 507 574 l 507 513 l 63 513 l 63 574 z "},".":{"ha":171,"x_min":24,"x_max":100,"o":"m 35 65 q 40 71 35 65 q 61 76 46 76 q 88 65 76 76 q 100 39 100 54 q 88 12 100 24 q 61 0 76 0 q 35 12 46 0 q 24 39 24 24 q 35 65 24 54 z "},"/":{"ha":586,"x_min":36,"x_max":550,"o":"m 486 1135 l 550 1135 l 103 -158 l 36 -158 l 486 1135 z "},":":{"ha":149,"x_min":36,"x_max":113,"o":"m 47 219 q 53 225 47 219 q 74 231 58 231 q 101 219 89 231 q 113 193 113 208 q 101 166 113 178 q 74 154 89 154 q 47 166 58 154 q 36 193 36 178 q 47 219 36 208 m 47 568 q 53 574 47 568 q 74 579 58 579 q 101 568 89 579 q 113 542 113 557 q 101 515 113 526 q 74 503 89 503 q 47 515 58 503 q 36 542 36 526 q 47 568 36 557 z "},";":{"ha":206,"x_min":36,"x_max":169,"o":"m 101 406 q 107 411 101 406 q 128 417 113 417 q 155 406 143 417 q 167 379 167 394 q 155 352 167 364 q 128 340 143 340 q 101 352 113 340 q 90 379 90 364 q 101 406 90 394 m 122 -1 l 113 1 q 90 37 89 15 q 101 68 90 58 q 119 78 111 78 q 136 77 128 78 q 157 63 144 76 q 169 35 169 50 q 81 -115 169 -42 l 36 -83 q 88 -46 67 -67 q 122 -1 110 -25 z "},"<":{"ha":501,"x_min":36,"x_max":465,"o":"m 422 885 l 465 842 l 119 497 l 465 154 l 422 111 l 36 497 l 36 499 l 422 885 z "},"=":{"ha":517,"x_min":36,"x_max":481,"o":"m 36 574 l 481 574 l 481 513 l 36 513 l 36 574 m 36 428 l 481 428 l 481 367 l 36 367 l 36 428 z "},">":{"ha":501,"x_min":36,"x_max":465,"o":"m 36 842 l 79 885 l 465 499 l 465 497 l 79 111 l 36 154 l 382 497 l 36 842 z "},"?":{"ha":565,"x_min":36,"x_max":528,"o":"m 99 739 l 36 739 q 101 914 36 843 q 283 985 165 985 q 414 947 356 985 q 528 746 528 876 q 476 585 528 660 q 411 508 450 547 q 351 445 372 468 q 312 372 329 422 q 294 250 294 322 l 294 165 l 238 165 l 238 283 q 257 399 238 347 q 301 477 276 450 q 362 543 325 504 q 417 607 399 582 q 463 746 463 679 q 410 874 463 822 q 281 925 357 925 q 151 877 204 925 q 99 739 99 829 m 238 65 q 244 71 238 65 q 265 76 250 76 q 292 65 281 76 q 304 39 304 54 q 292 12 304 24 q 265 0 281 0 q 238 12 250 0 q 226 39 226 24 q 238 65 226 54 z "},"@":{"ha":988,"x_min":36,"x_max":951,"o":"m 447 75 q 207 283 222 75 l 207 424 q 329 624 207 578 q 428 640 375 640 q 675 574 535 640 q 608 703 669 658 q 442 747 547 747 q 197 683 294 747 q 99 475 99 618 l 99 264 q 197 44 99 118 q 446 -31 294 -31 q 451 -31 449 -31 q 733 38 622 -31 q 844 225 844 107 l 844 490 q 863 628 844 600 q 933 682 888 665 l 951 639 q 904 542 904 618 l 906 238 q 863 83 906 150 q 751 -19 821 17 q 443 -92 613 -92 q 155 -3 274 -92 q 36 258 36 85 l 36 474 q 160 731 36 644 q 439 804 267 804 q 697 706 622 804 q 742 553 742 646 l 793 531 l 793 474 l 742 496 l 742 126 q 447 75 553 75 m 679 517 q 418 582 547 582 q 311 542 354 582 q 268 419 268 503 l 268 285 q 464 131 269 131 q 679 174 557 131 l 679 517 z "},"A":{"ha":732,"x_min":17,"x_max":718,"o":"m 336 972 l 394 972 l 718 0 l 651 0 l 532 356 l 199 356 l 82 0 l 17 0 l 336 972 m 365 871 l 218 417 l 515 417 l 365 871 z "},"B":{"ha":758,"x_min":108,"x_max":710,"o":"m 108 972 l 415 972 q 594 914 529 972 q 660 733 660 856 q 560 551 660 611 q 558 549 558 550 l 558 547 q 667 456 624 519 q 710 290 710 393 q 653 97 710 179 q 566 26 624 53 q 428 0 508 0 l 108 0 l 108 972 m 171 913 l 171 574 l 428 574 q 549 617 501 574 q 596 745 596 660 q 544 872 596 831 q 404 913 493 913 l 171 913 m 171 513 l 171 60 l 425 60 q 643 296 643 60 q 586 454 643 396 q 443 513 529 513 l 171 513 z "},"C":{"ha":603,"x_min":92,"x_max":593,"o":"m 593 32 q 368 -14 475 -14 q 301 -10 346 -14 q 205 22 256 -6 q 123 108 154 49 q 92 254 92 167 l 92 700 q 122 860 92 806 q 213 951 151 914 q 361 986 275 986 q 558 940 469 986 l 539 896 q 379 929 458 929 q 211 874 268 929 q 171 810 188 851 q 154 713 154 768 l 154 257 q 264 61 154 108 q 381 43 307 43 q 579 85 456 43 l 593 32 z "},"D":{"ha":800,"x_min":108,"x_max":692,"o":"m 108 974 l 369 974 q 609 888 526 974 q 692 658 692 801 l 692 278 q 397 0 692 0 l 108 0 l 108 974 m 171 915 l 171 57 l 378 57 q 540 90 469 57 q 629 274 629 132 l 629 665 q 556 853 629 792 q 383 915 483 915 l 171 915 z "},"E":{"ha":646,"x_min":108,"x_max":572,"o":"m 108 972 l 572 972 l 572 914 l 171 914 l 171 574 l 451 574 l 431 513 l 171 513 l 171 57 l 569 57 l 569 0 l 108 0 l 108 972 z "},"F":{"ha":621,"x_min":108,"x_max":572,"o":"m 108 972 l 572 972 l 572 913 l 171 913 l 171 574 l 424 574 l 397 513 l 171 513 l 171 0 l 108 0 l 108 972 z "},"G":{"ha":746,"x_min":90,"x_max":661,"o":"m 153 704 l 153 260 q 217 103 153 161 q 385 46 281 46 q 545 106 489 46 q 601 257 601 165 l 601 356 l 492 356 l 469 417 l 661 417 l 661 0 l 614 0 l 600 76 q 383 -14 532 -14 q 176 56 261 -14 q 90 263 90 125 l 90 699 q 211 950 90 876 q 360 985 274 985 q 557 939 467 985 l 539 894 q 385 929 460 928 q 153 704 153 929 z "},"H":{"ha":817,"x_min":108,"x_max":706,"o":"m 108 972 l 171 972 l 171 574 l 643 574 l 643 972 l 706 972 l 706 0 l 643 0 l 643 513 l 171 513 l 171 0 l 108 0 l 108 972 z "},"I":{"ha":272,"x_min":40,"x_max":203,"o":"m 40 972 l 203 972 l 203 0 l 140 0 l 140 914 l 40 917 l 40 972 z "},"J":{"ha":247,"x_min":-3,"x_max":178,"o":"m 15 972 l 178 972 l 178 165 q 13 -51 178 -43 l -3 -8 q 81 33 46 -6 q 115 160 115 72 l 115 914 l 15 917 l 15 972 z "},"K":{"ha":661,"x_min":110,"x_max":661,"o":"m 110 974 l 172 974 l 172 485 l 517 974 l 589 974 l 299 561 l 661 0 l 588 0 l 260 503 l 172 378 l 172 0 l 110 0 l 110 974 z "},"L":{"ha":611,"x_min":108,"x_max":610,"o":"m 108 972 l 171 972 l 171 57 l 610 57 l 610 0 l 108 0 l 108 972 z "},"M":{"ha":964,"x_min":108,"x_max":853,"o":"m 108 972 l 171 972 l 479 96 l 790 972 l 853 972 l 853 0 l 790 0 l 790 790 l 513 0 l 446 0 l 171 790 l 171 0 l 108 0 l 108 972 z "},"N":{"ha":903,"x_min":108,"x_max":792,"o":"m 108 972 l 171 972 l 731 114 l 731 972 l 792 972 l 792 0 l 731 0 l 171 860 l 171 0 l 108 0 l 108 972 z "},"O":{"ha":763,"x_min":88,"x_max":671,"o":"m 88 257 l 88 704 q 166 921 88 847 q 382 994 244 994 q 595 917 519 994 q 671 703 671 839 l 671 257 q 585 51 671 117 q 381 -15 500 -15 q 174 51 261 -15 q 88 257 88 117 m 150 714 l 150 257 q 216 98 150 151 q 381 44 282 44 q 544 97 479 44 q 610 258 610 149 l 610 714 q 548 878 610 821 q 379 935 486 935 q 211 878 272 935 q 150 714 150 821 z "},"P":{"ha":760,"x_min":108,"x_max":711,"o":"m 171 913 l 171 417 l 451 417 q 546 437 507 417 q 604 483 585 457 q 635 549 624 508 q 649 675 649 599 q 599 851 649 790 q 454 913 549 913 l 171 913 m 108 972 l 450 972 q 647 892 582 972 q 711 675 711 811 q 649 431 711 506 q 572 378 622 400 q 451 356 521 356 l 171 356 l 171 0 l 108 0 l 108 972 z "},"Q":{"ha":763,"x_min":88,"x_max":671,"o":"m 88 257 l 88 704 q 166 921 88 847 q 382 994 244 994 q 595 917 519 994 q 671 703 671 839 l 671 257 q 606 70 671 136 q 438 -11 542 4 q 594 -71 472 -71 l 594 -131 q 374 -15 426 -131 q 171 53 254 -12 q 88 257 88 119 m 150 717 l 150 257 q 210 103 150 157 q 356 44 269 50 q 350 132 350 78 l 350 242 l 413 242 l 413 133 q 418 46 413 78 q 557 110 506 54 q 608 260 608 165 l 608 717 q 545 880 608 825 q 380 935 482 935 q 214 881 278 935 q 150 717 150 826 z "},"R":{"ha":783,"x_min":108,"x_max":713,"o":"m 108 972 l 447 972 q 646 892 581 972 q 711 675 711 811 q 569 378 711 440 l 713 0 l 649 0 l 510 358 q 460 356 479 356 l 171 356 l 171 0 l 108 0 l 108 972 m 171 913 l 171 417 l 454 417 q 649 675 649 417 q 597 852 649 792 q 450 913 544 913 l 171 913 z "},"S":{"ha":779,"x_min":51,"x_max":711,"o":"m 51 247 l 115 247 q 192 107 121 169 q 378 44 263 44 q 569 96 493 44 q 644 260 644 147 q 602 372 644 325 q 497 442 560 418 q 360 492 435 465 q 224 546 286 519 q 119 624 161 572 q 76 747 76 675 q 157 915 76 844 q 389 986 238 986 q 592 944 504 986 l 572 885 q 387 925 493 925 q 211 878 281 925 q 142 743 142 831 q 184 647 142 688 q 290 584 226 606 q 426 535 353 563 q 563 480 500 508 q 669 396 626 451 q 711 264 711 340 q 630 60 711 136 q 388 -15 549 -15 q 141 65 228 -15 q 51 247 54 144 z "},"T":{"ha":558,"x_min":0,"x_max":558,"o":"m 0 972 l 558 972 l 558 915 l 307 915 l 307 0 l 244 0 l 244 915 l 0 915 l 0 972 z "},"U":{"ha":786,"x_min":103,"x_max":688,"o":"m 103 974 l 165 974 l 165 250 q 233 100 165 153 q 396 47 301 47 q 558 100 490 47 q 625 250 625 153 l 625 974 l 688 974 l 688 258 q 662 131 688 185 q 592 47 636 76 q 500 4 549 18 q 396 -10 451 -10 q 291 4 340 -10 q 198 47 242 18 q 128 131 154 76 q 103 258 103 185 l 103 974 z "},"V":{"ha":821,"x_min":108,"x_max":772,"o":"m 108 972 l 175 972 l 440 78 l 706 972 l 772 972 l 483 0 l 399 0 l 108 972 z "},"W":{"ha":1124,"x_min":108,"x_max":1075,"o":"m 108 972 l 175 972 l 386 82 l 551 972 l 635 972 l 800 82 l 1007 972 l 1075 972 l 842 0 l 750 0 l 593 854 l 436 0 l 344 0 l 108 972 z "},"X":{"ha":815,"x_min":63,"x_max":767,"o":"m 89 972 l 158 972 l 415 554 l 672 972 l 744 972 l 453 494 l 767 1 l 690 0 l 415 431 l 140 0 l 63 0 l 378 494 l 89 972 z "},"Y":{"ha":772,"x_min":83,"x_max":700,"o":"m 83 972 l 146 972 l 146 621 q 214 458 146 515 q 387 401 282 401 q 557 442 492 401 q 636 557 622 483 l 636 972 l 700 972 l 700 213 q 554 -10 700 15 l 539 33 q 628 128 608 60 q 636 211 636 163 l 636 428 q 531 362 599 383 q 401 340 463 340 q 169 413 254 340 q 83 629 83 486 l 83 972 z "},"Z":{"ha":764,"x_min":43,"x_max":719,"o":"m 61 972 l 711 972 l 711 915 l 122 57 l 719 57 l 719 0 l 43 0 l 43 57 l 632 915 l 61 915 l 61 972 z "},"[":{"ha":443,"x_min":108,"x_max":332,"o":"m 108 1135 l 332 1135 l 332 1083 l 171 1074 l 171 -97 l 332 -107 l 332 -158 l 108 -158 l 108 1135 z "},"\\":{"ha":671,"x_min":108,"x_max":622,"o":"m 108 1135 l 172 1135 l 622 -158 l 556 -158 l 108 1135 z "},"]":{"ha":443,"x_min":108,"x_max":332,"o":"m 108 1135 l 332 1135 l 332 -158 l 108 -158 l 108 -107 l 269 -97 l 269 1074 l 108 1083 l 108 1135 z "},"^":{"ha":560,"x_min":108,"x_max":511,"o":"m 108 1053 l 314 1249 l 511 1053 l 468 1008 l 313 1163 l 151 1008 l 108 1053 z "},"_":{"ha":714,"x_min":106,"x_max":550,"o":"m 106 0 l 550 0 l 550 -61 l 106 -61 l 106 0 z "},"`":{"ha":308,"x_min":64,"x_max":215,"o":"m 142 983 l 215 815 l 164 815 l 71 953 q 64 971 64 963 q 106 1011 64 1011 q 142 983 131 1011 z "},"a":{"ha":636,"x_min":51,"x_max":586,"o":"m 356 -14 q 51 235 51 -14 l 51 350 q 149 535 51 488 q 250 558 199 558 q 524 481 419 558 q 476 608 524 560 q 300 657 428 657 q 293 657 297 657 l 297 707 q 464 681 410 707 q 515 650 493 665 q 550 610 538 635 q 571 566 563 585 q 582 515 579 547 q 586 414 586 467 l 586 0 q 356 -14 442 -14 m 113 346 l 113 225 q 145 115 113 158 q 233 58 178 72 q 524 53 358 25 l 524 429 q 272 501 408 493 q 260 501 265 501 q 156 465 200 501 q 113 346 113 428 z "},"b":{"ha":669,"x_min":108,"x_max":621,"o":"m 171 660 q 365 707 244 707 q 503 681 444 707 q 621 481 621 626 l 621 218 q 513 25 621 81 q 329 -17 431 -17 q 108 0 228 -17 l 108 972 l 171 972 l 171 660 m 369 650 q 171 604 256 650 l 171 56 q 307 42 264 42 q 354 42 350 42 q 500 88 440 43 q 560 217 560 132 l 560 476 q 517 599 560 554 q 411 649 474 643 q 369 650 390 650 z "},"c":{"ha":532,"x_min":50,"x_max":497,"o":"m 476 615 q 333 651 396 651 q 224 635 271 651 q 145 567 178 619 q 113 436 113 515 l 113 235 q 335 40 113 40 q 483 60 403 40 l 497 8 q 336 -15 408 -15 q 194 7 264 -15 q 50 250 50 54 l 50 428 q 89 593 50 526 q 308 708 156 708 q 494 664 400 708 l 476 615 z "},"d":{"ha":660,"x_min":99,"x_max":611,"o":"m 354 707 q 549 660 474 707 l 549 972 l 611 972 l 611 0 q 390 -17 492 -17 q 207 25 289 -17 q 99 218 99 81 l 99 481 q 217 681 99 626 q 354 707 275 707 m 549 604 q 350 650 464 650 q 308 649 329 650 q 203 599 246 643 q 160 476 160 554 l 160 217 q 219 88 160 132 q 368 42 281 42 q 549 56 456 42 l 549 604 z "},"e":{"ha":603,"x_min":49,"x_max":549,"o":"m 514 49 q 290 -17 407 -17 q 49 186 49 -17 l 49 471 q 119 646 49 583 q 304 708 189 708 q 484 647 419 708 q 549 475 549 585 l 549 308 l 111 285 l 111 185 q 163 72 111 106 q 279 38 214 38 q 489 97 379 38 l 514 49 m 111 471 l 111 346 l 486 365 l 486 482 q 429 615 486 575 q 297 654 372 654 q 166 610 221 654 q 111 471 111 565 z "},"f":{"ha":411,"x_min":108,"x_max":363,"o":"m 363 982 l 353 928 q 318 931 335 931 q 214 893 257 931 q 171 763 171 856 l 171 696 l 344 696 l 318 636 l 171 636 l 171 0 l 108 0 l 108 763 q 132 882 108 832 q 192 953 156 932 q 314 988 251 988 q 363 982 339 988 z "},"g":{"ha":622,"x_min":51,"x_max":575,"o":"m 517 613 l 513 696 l 575 696 l 575 -89 q 540 -219 575 -172 q 426 -292 506 -267 l 410 -243 q 513 -87 513 -204 l 513 90 q 317 -17 447 -17 q 119 50 188 -17 q 51 244 51 117 l 51 451 q 124 641 51 574 q 324 708 196 708 q 517 613 453 708 m 114 444 l 114 232 q 166 91 114 140 q 304 42 218 42 q 451 91 390 42 q 513 235 513 140 l 513 492 q 447 613 504 574 q 313 651 390 651 q 174 603 235 651 q 114 444 114 556 z "},"h":{"ha":685,"x_min":89,"x_max":601,"o":"m 151 603 l 151 0 l 89 0 l 89 972 l 151 972 l 151 658 q 350 707 229 707 q 483 681 429 707 q 601 481 601 626 l 601 0 l 540 0 l 540 478 q 499 597 540 554 q 344 651 449 651 q 151 603 240 651 z "},"i":{"ha":296,"x_min":108,"x_max":185,"o":"m 115 696 l 178 696 l 178 0 l 115 0 l 115 696 m 120 922 q 114 927 120 922 q 108 949 108 933 q 120 975 108 964 q 147 986 132 986 q 174 975 163 986 q 185 949 185 964 q 174 922 185 933 q 147 910 163 910 q 120 922 132 910 z "},"j":{"ha":269,"x_min":-8,"x_max":172,"o":"m 0 696 l 164 696 l 164 -107 q 119 -234 161 -182 q 0 -290 76 -286 l -8 -242 q 26 -231 3 -242 q 64 -204 49 -219 q 101 -89 101 -164 l 101 635 l 26 638 l 0 696 m 108 922 q 102 927 108 922 q 96 949 96 933 q 108 975 96 964 q 135 986 119 986 q 161 975 150 986 q 172 949 172 964 q 161 922 172 933 q 135 910 150 910 q 108 922 119 910 z "},"k":{"ha":604,"x_min":93,"x_max":603,"o":"m 93 972 l 156 972 l 156 451 l 449 722 l 493 679 l 292 500 q 603 0 388 340 l 528 0 l 247 461 l 156 379 l 156 0 l 93 0 l 93 972 z "},"l":{"ha":282,"x_min":108,"x_max":171,"o":"m 108 972 l 171 972 l 171 0 l 108 0 l 108 972 z "},"m":{"ha":1024,"x_min":108,"x_max":975,"o":"m 171 603 l 171 0 l 108 0 l 108 696 l 171 696 l 165 654 q 369 706 264 706 q 535 638 474 706 q 763 707 657 707 q 918 643 861 707 q 975 481 975 579 l 975 0 l 914 0 l 914 476 q 886 586 914 543 q 744 653 842 653 q 621 624 682 653 l 563 594 q 583 475 583 554 l 583 0 l 522 0 l 522 490 q 483 603 522 563 q 347 650 439 650 q 171 603 256 650 z "},"n":{"ha":694,"x_min":89,"x_max":601,"o":"m 347 650 q 151 603 239 650 l 151 0 l 89 0 l 89 696 l 151 696 l 151 658 q 350 707 229 707 q 483 681 429 707 q 601 481 601 626 l 601 0 l 540 0 l 540 478 q 498 597 540 553 q 394 647 456 640 q 347 650 371 650 z "},"o":{"ha":632,"x_min":65,"x_max":583,"o":"m 65 256 l 65 439 q 133 641 65 571 q 324 711 200 711 q 515 638 447 711 q 583 439 583 565 l 583 256 q 519 63 583 139 q 326 -14 456 -14 q 131 63 197 -14 q 65 256 65 140 m 128 440 l 128 246 q 180 99 128 157 q 326 42 232 42 q 471 99 421 42 q 521 246 521 156 l 521 440 q 467 601 521 549 q 325 654 414 654 q 182 602 236 654 q 128 440 128 550 z "},"p":{"ha":681,"x_min":108,"x_max":632,"o":"m 108 696 l 171 696 l 165 619 q 257 685 203 663 q 363 707 311 707 q 563 631 494 707 q 632 436 632 556 l 632 244 q 560 51 632 118 q 363 -17 489 -17 q 171 72 236 -17 l 171 -292 l 108 -268 l 108 696 m 569 231 l 569 442 q 536 567 569 518 q 460 633 503 617 q 357 650 418 650 q 238 610 296 650 q 171 481 181 569 l 171 226 q 226 87 171 133 q 367 40 281 40 q 511 88 453 40 q 569 231 569 136 z "},"q":{"ha":622,"x_min":51,"x_max":575,"o":"m 513 696 l 575 696 l 575 -292 l 513 -268 l 513 72 q 321 -17 447 -17 q 123 51 194 -17 q 51 244 51 118 l 51 436 q 120 631 51 556 q 321 707 189 707 q 426 685 372 707 q 518 619 481 663 l 513 696 m 114 442 l 114 231 q 172 88 114 136 q 317 40 231 40 q 458 87 403 40 q 513 226 513 133 l 513 481 q 444 610 503 569 q 311 650 386 650 q 175 601 236 650 q 114 442 114 551 z "},"r":{"ha":463,"x_min":85,"x_max":432,"o":"m 85 696 l 147 696 l 144 640 q 328 708 213 708 q 432 696 375 708 l 415 638 q 328 653 372 653 q 240 639 285 653 q 147 547 147 613 l 147 0 l 85 0 l 85 696 z "},"s":{"ha":599,"x_min":50,"x_max":550,"o":"m 460 672 l 438 619 q 307 656 385 656 q 179 622 229 657 q 129 529 129 588 q 177 442 129 472 q 285 394 225 413 q 406 355 346 376 q 508 288 467 333 q 550 167 550 243 q 488 35 550 90 q 308 -21 426 -21 q 121 36 189 -21 q 50 176 53 93 l 110 176 q 173 74 118 111 q 303 38 228 38 q 433 72 379 38 q 488 166 488 107 q 447 260 488 225 q 347 313 407 294 q 228 351 288 332 q 122 410 168 371 q 68 524 68 456 q 123 653 68 593 q 304 713 178 713 q 386 702 347 713 q 442 682 425 692 l 460 672 z "},"t":{"ha":338,"x_min":61,"x_max":306,"o":"m 61 972 l 124 972 l 124 696 l 306 696 l 278 636 l 124 636 l 124 183 q 226 32 124 65 l 208 -18 q 96 53 131 4 q 61 183 61 101 l 61 972 z "},"u":{"ha":621,"x_min":50,"x_max":568,"o":"m 50 696 l 113 696 l 113 233 q 311 42 113 42 q 453 88 400 42 q 506 226 506 135 l 506 696 l 568 696 l 568 0 l 507 0 l 511 82 q 311 -15 440 -15 q 50 240 50 -15 l 50 696 z "},"v":{"ha":592,"x_min":25,"x_max":560,"o":"m 25 696 l 90 696 l 292 72 l 494 696 l 560 696 l 332 0 l 251 0 l 25 696 z "},"w":{"ha":975,"x_min":25,"x_max":933,"o":"m 25 696 l 90 696 l 283 72 l 450 696 l 510 696 l 674 72 l 868 696 l 933 696 l 713 0 l 632 0 l 479 583 l 324 0 l 244 0 l 25 696 z "},"x":{"ha":668,"x_min":81,"x_max":588,"o":"m 83 696 l 154 696 l 335 403 l 518 696 l 588 696 l 371 346 l 586 0 l 514 0 l 335 289 l 154 0 l 81 0 l 299 347 l 83 696 z "},"y":{"ha":664,"x_min":51,"x_max":617,"o":"m 51 696 l 111 696 l 111 231 q 162 90 111 139 q 305 40 213 40 q 454 90 397 40 q 511 231 511 139 l 511 508 q 547 679 511 646 q 599 708 567 697 l 617 665 q 572 560 572 640 l 572 -85 q 539 -218 572 -169 q 426 -292 506 -267 l 410 -243 q 513 -87 513 -207 l 513 83 q 306 -17 457 -17 q 117 49 183 -17 q 51 244 51 115 l 51 696 z "},"z":{"ha":667,"x_min":108,"x_max":618,"o":"m 121 696 l 589 696 l 589 639 l 185 57 l 618 57 l 618 0 l 108 0 l 108 57 l 510 639 l 121 639 l 121 696 z "},"{":{"ha":428,"x_min":108,"x_max":379,"o":"m 356 1142 l 376 1099 q 325 1056 344 1075 q 288 992 306 1036 q 271 890 271 949 l 271 633 q 188 493 271 576 q 274 351 274 407 l 274 94 q 300 -35 274 13 q 379 -118 326 -83 l 358 -161 q 239 -44 267 -108 q 211 178 211 19 l 211 343 q 189 403 211 369 q 152 451 167 438 q 108 492 138 465 q 175 561 142 518 q 208 642 208 604 l 208 810 q 237 1026 208 963 q 356 1142 265 1089 z "},"|":{"ha":282,"x_min":108,"x_max":171,"o":"m 108 1135 l 171 1135 l 171 -158 l 108 -158 l 108 1135 z "},"}":{"ha":428,"x_min":108,"x_max":379,"o":"m 111 1099 l 132 1142 q 251 1026 222 1089 q 279 810 279 963 l 279 642 q 313 561 279 604 q 379 492 346 518 q 335 451 350 465 q 299 403 321 438 q 276 343 276 369 l 276 178 q 249 -44 276 19 q 129 -161 221 -108 l 108 -118 q 188 -35 161 -83 q 214 94 214 13 l 214 351 q 300 493 214 407 q 217 633 217 576 l 217 890 q 199 992 217 949 q 163 1056 182 1036 q 111 1099 143 1075 z "},"~":{"ha":714,"x_min":108,"x_max":665,"o":"m 665 475 q 517 407 606 407 q 440 419 483 407 l 343 447 q 269 458 307 458 l 235 456 q 139 401 181 449 l 108 446 q 269 522 174 522 q 438 482 308 522 q 518 469 478 469 q 635 519 592 469 l 665 475 z "},"¡":{"ha":297,"x_min":108,"x_max":186,"o":"m 175 819 l 186 43 q 148 0 186 0 q 110 43 110 0 l 122 819 l 175 819 m 174 921 q 168 915 174 921 q 147 910 163 910 q 120 921 132 910 q 108 947 108 932 q 120 974 108 963 q 147 986 132 986 q 174 974 163 986 q 185 947 185 963 q 174 921 185 932 z "},"¢":{"ha":604,"x_min":108,"x_max":556,"o":"m 338 865 l 399 865 l 399 706 q 553 664 474 700 l 535 615 q 399 650 463 646 l 399 40 q 542 60 467 40 l 556 8 q 399 -14 474 -14 l 399 -158 l 338 -158 l 338 -11 q 144 89 200 1 q 108 250 108 146 l 108 428 q 172 627 108 556 q 338 707 235 699 l 338 865 m 171 436 l 171 235 q 338 43 169 68 l 338 649 q 216 585 261 638 q 171 436 171 532 z "},"£":{"ha":657,"x_min":108,"x_max":608,"o":"m 140 497 l 222 497 q 174 715 174 646 q 249 910 174 836 q 431 985 325 985 q 593 950 538 985 l 572 894 q 431 928 513 928 q 292 867 350 928 q 235 713 235 807 q 289 497 235 663 l 585 497 l 585 436 l 308 436 q 331 296 331 360 q 297 164 331 232 q 208 63 263 96 l 608 63 l 608 0 l 108 0 l 108 54 q 223 158 179 90 q 267 304 267 226 q 243 436 268 349 l 140 436 l 140 497 z "},"¤":{"ha":644,"x_min":108,"x_max":596,"o":"m 117 644 l 156 682 l 197 639 q 353 693 265 693 q 504 640 440 693 l 547 683 l 586 643 l 543 600 q 596 449 596 533 q 542 296 596 364 l 588 250 l 550 213 l 504 258 q 351 206 440 206 q 199 258 263 206 l 154 211 l 117 249 l 160 296 q 108 448 108 363 q 160 600 108 533 l 117 644 m 351 633 q 313 633 351 633 q 221 579 275 633 q 167 449 167 525 q 221 321 167 374 q 351 268 275 268 q 481 320 428 268 q 535 449 535 372 q 481 579 535 525 q 351 633 428 633 z "},"¥":{"ha":778,"x_min":74,"x_max":729,"o":"m 181 422 l 369 422 l 369 474 l 360 490 l 181 490 l 181 551 l 324 551 l 74 972 l 144 972 l 396 551 l 403 551 l 658 972 l 729 972 l 478 551 l 625 551 l 625 490 l 440 490 l 432 475 l 432 422 l 625 422 l 625 361 l 432 361 l 432 0 l 369 0 l 369 361 l 181 361 l 181 422 z "},"§":{"ha":817,"x_min":108,"x_max":768,"o":"m 108 -11 l 172 -11 q 250 -153 178 -93 q 437 -214 322 -214 q 627 -160 551 -214 q 703 1 703 -106 q 661 116 703 68 q 557 188 619 164 q 422 240 494 213 q 285 294 349 268 q 179 371 222 321 q 135 493 135 422 q 178 618 135 564 q 133 750 133 674 q 214 918 133 847 q 446 989 294 989 q 649 947 561 989 l 629 889 q 444 929 550 929 q 268 883 339 929 q 197 746 197 836 q 310 597 197 651 q 421 551 360 572 q 542 506 482 529 q 653 452 603 482 q 735 373 704 422 q 767 256 767 324 q 735 128 767 188 q 768 8 768 76 q 685 -197 768 -119 q 444 -274 603 -274 q 198 -194 285 -274 q 108 -11 111 -114 m 225 576 q 199 493 199 535 q 256 383 199 428 q 385 318 314 339 q 547 260 457 297 q 688 179 638 224 q 701 251 701 231 q 647 374 701 324 q 524 447 592 424 q 225 576 301 521 z "},"¨":{"ha":308,"x_min":6,"x_max":303,"o":"m 17 1001 q 23 1007 17 1001 q 44 1013 29 1013 q 72 1001 60 1013 q 83 974 83 989 q 72 947 83 958 q 44 936 60 936 q 17 947 29 936 q 6 974 6 958 q 17 1001 6 989 m 238 1001 q 243 1007 238 1001 q 264 1013 249 1013 q 291 1001 279 1013 q 303 975 303 990 q 291 948 303 960 q 264 936 279 936 q 238 948 249 936 q 226 975 226 960 q 238 1001 226 990 z "},"©":{"ha":1111,"x_min":35,"x_max":1075,"o":"m 556 -176 q 448 -176 556 -176 q 188 -26 340 -176 q 35 344 35 124 q 186 714 35 565 q 556 863 338 863 q 925 714 775 863 q 1075 344 1075 565 q 924 -26 1075 124 q 556 -176 772 -176 m 556 801 q 461 801 556 801 q 233 672 367 801 q 100 344 100 543 q 234 15 100 144 q 556 -115 368 -115 q 877 15 743 -115 q 1011 341 1011 146 q 878 669 1011 536 q 556 801 744 801 m 831 449 l 761 449 q 694 553 749 508 q 561 599 640 599 q 390 524 447 599 q 333 344 333 450 q 392 162 333 238 q 563 86 450 86 q 696 133 640 86 q 761 243 751 179 l 832 243 q 735 83 810 143 q 563 22 660 22 q 345 113 425 22 q 265 340 265 203 q 344 570 265 476 q 560 664 424 664 q 738 604 661 664 q 831 449 814 544 z "},"ª":{"ha":531,"x_min":108,"x_max":482,"o":"m 482 543 q 343 528 386 528 q 258 532 300 528 q 183 556 215 536 q 130 617 151 575 q 108 721 108 658 q 197 867 108 836 q 247 875 219 875 q 424 813 322 875 q 247 936 424 935 l 251 985 q 435 933 388 985 q 482 771 482 881 l 482 543 m 163 713 q 318 579 163 579 q 424 592 364 579 l 424 756 q 256 821 342 813 q 246 821 251 821 q 187 796 211 821 q 163 713 163 771 z "},"«":{"ha":692,"x_min":58,"x_max":665,"o":"m 318 632 l 360 589 l 142 371 l 358 151 l 318 111 l 58 371 l 58 372 l 318 632 m 624 632 l 665 589 l 447 371 l 664 151 l 624 111 l 364 371 l 364 372 l 624 632 z "},"­":{"ha":569,"x_min":63,"x_max":507,"o":"m 63 574 l 507 574 l 507 513 l 63 513 l 63 574 z "},"®":{"ha":1111,"x_min":35,"x_max":1075,"o":"m 367 661 l 594 661 q 747 614 693 661 q 801 491 801 567 q 758 374 801 415 q 643 324 714 332 l 815 54 l 740 54 l 574 318 l 429 318 l 429 54 l 367 54 l 367 661 m 429 604 l 429 378 l 567 378 q 724 429 692 378 q 739 492 739 454 q 692 578 739 553 q 583 604 644 604 l 429 604 m 556 -176 q 448 -176 556 -176 q 188 -26 340 -176 q 35 344 35 124 q 186 714 35 565 q 556 863 338 863 q 925 714 775 863 q 1075 344 1075 565 q 924 -26 1075 124 q 556 -176 772 -176 m 555 801 q 460 801 555 801 q 233 672 365 801 q 100 344 100 543 q 233 15 100 144 q 557 -115 367 -115 q 879 15 747 -115 q 1011 342 1011 146 q 878 669 1011 538 q 555 801 744 801 z "},"¯":{"ha":464,"x_min":108,"x_max":415,"o":"m 108 940 l 415 940 l 415 876 l 108 876 l 108 940 z "},"°":{"ha":557,"x_min":108,"x_max":508,"o":"m 167 926 q 196 956 167 926 q 308 985 225 985 q 450 926 392 985 q 508 785 508 868 q 450 643 508 701 q 308 585 392 585 q 167 643 225 585 q 108 785 108 701 q 167 926 108 868 m 205 885 q 185 863 205 885 q 165 785 165 842 q 204 685 165 728 q 308 642 243 642 q 413 685 374 642 q 451 785 451 728 q 412 885 451 842 q 308 928 372 928 q 205 885 244 928 z "},"±":{"ha":607,"x_min":108,"x_max":558,"o":"m 114 574 l 307 574 l 307 757 l 368 757 l 368 574 l 558 574 l 558 513 l 368 513 l 368 390 l 553 390 l 553 329 l 108 329 l 108 390 l 307 390 l 307 513 l 114 513 l 114 574 z "},"´":{"ha":308,"x_min":64,"x_max":215,"o":"m 64 817 l 136 985 q 172 1013 149 1013 q 214 986 206 1013 q 215 971 215 979 q 208 953 215 963 l 114 817 l 64 817 z "},"µ":{"ha":663,"x_min":51,"x_max":615,"o":"m 51 696 l 115 696 l 115 140 q 215 72 150 101 q 350 42 285 42 q 453 67 407 42 q 515 206 515 101 l 515 694 l 579 708 l 579 93 q 615 32 582 49 l 585 -7 q 556 8 574 -7 q 528 49 538 22 q 356 -17 471 -17 q 206 13 268 -17 q 115 64 135 44 l 115 -289 l 51 -279 l 51 696 z "},"¶":{"ha":932,"x_min":108,"x_max":883,"o":"m 367 1042 l 883 1042 l 883 -276 l 821 -276 l 821 982 l 711 983 l 711 -275 l 649 -275 l 649 342 l 354 342 q 213 378 261 342 q 169 417 188 397 q 140 471 150 438 q 122 529 129 504 q 113 596 115 554 q 108 728 108 658 q 172 954 108 867 q 367 1042 236 1042 z "},"¸":{"ha":569,"x_min":106,"x_max":406,"o":"m 240 0 l 289 0 l 233 -76 q 294 -65 253 -65 q 370 -91 335 -65 q 406 -176 406 -117 q 354 -263 406 -235 q 240 -292 303 -292 q 106 -265 178 -292 l 133 -206 q 233 -239 182 -239 q 316 -221 285 -239 q 347 -167 347 -203 q 313 -115 347 -131 q 276 -108 297 -108 q 225 -119 254 -108 l 175 -140 l 156 -108 l 240 0 z "},"»":{"ha":714,"x_min":6,"x_max":613,"o":"m 311 589 l 353 632 l 613 372 l 613 371 l 353 111 l 313 151 l 529 371 l 311 589 m 6 589 l 47 632 l 307 372 l 307 371 l 47 111 l 7 151 l 224 371 l 6 589 z "},"¿":{"ha":650,"x_min":110,"x_max":601,"o":"m 539 246 l 601 246 q 537 71 601 142 q 354 0 472 0 q 224 36 282 0 q 110 239 110 108 q 161 400 110 325 q 226 477 188 438 q 287 540 265 517 q 326 613 308 563 q 343 735 343 663 l 343 819 l 400 819 l 400 701 q 381 586 400 638 q 337 508 361 535 q 276 442 313 481 q 221 378 239 403 q 175 239 175 306 q 228 111 175 163 q 357 60 281 60 q 486 108 433 60 q 539 246 539 156 m 399 919 q 393 914 399 919 q 372 908 388 908 q 345 919 357 908 q 333 946 333 931 q 345 973 333 961 q 372 985 357 985 q 399 973 388 985 q 411 946 411 961 q 399 919 411 931 z "},"À":{"ha":732,"x_min":17,"x_max":718,"o":"m 336 972 l 394 972 l 718 0 l 651 0 l 532 356 l 199 356 l 82 0 l 17 0 l 336 972 m 365 871 l 218 417 l 515 417 l 365 871 m 311 1182 l 385 1014 l 333 1014 l 240 1151 q 233 1169 233 1161 q 275 1210 233 1210 q 311 1182 300 1210 z "},"Á":{"ha":732,"x_min":17,"x_max":718,"o":"m 336 972 l 394 972 l 718 0 l 651 0 l 532 356 l 199 356 l 82 0 l 17 0 l 336 972 m 365 871 l 218 417 l 515 417 l 365 871 m 336 1015 l 408 1183 q 444 1211 421 1211 q 486 1183 478 1211 q 488 1169 488 1178 q 481 1151 488 1161 l 386 1015 l 336 1015 z "},"Â":{"ha":732,"x_min":17,"x_max":718,"o":"m 336 972 l 394 972 l 718 0 l 651 0 l 532 356 l 199 356 l 82 0 l 17 0 l 336 972 m 365 871 l 218 417 l 515 417 l 365 871 m 164 1072 l 369 1268 l 567 1072 l 522 1028 l 368 1182 l 207 1028 l 164 1072 z "},"Ã":{"ha":732,"x_min":17,"x_max":718,"o":"m 336 972 l 394 972 l 718 0 l 651 0 l 532 356 l 199 356 l 82 0 l 17 0 l 336 972 m 365 871 l 218 417 l 515 417 l 365 871 m 269 1083 q 163 1031 211 1083 l 133 1075 q 272 1147 199 1147 q 400 1104 306 1147 q 465 1089 432 1089 q 564 1136 521 1089 l 592 1090 q 464 1025 532 1025 q 403 1039 436 1025 q 337 1068 371 1053 q 269 1083 303 1083 z "},"Ä":{"ha":732,"x_min":17,"x_max":718,"o":"m 336 972 l 394 972 l 718 0 l 651 0 l 532 356 l 199 356 l 82 0 l 17 0 l 336 972 m 365 871 l 218 417 l 515 417 l 365 871 z "},"Å":{"ha":732,"x_min":17,"x_max":718,"o":"m 321 926 q 242 983 272 942 q 211 1081 211 1024 q 256 1184 211 1139 q 365 1229 301 1229 q 473 1184 428 1229 q 518 1081 518 1139 q 488 983 518 1024 q 410 926 457 942 l 718 0 l 651 0 l 532 356 l 199 356 l 82 0 l 17 0 l 321 926 m 365 871 l 218 417 l 515 417 l 365 871 m 292 1147 q 277 1133 292 1147 q 263 1075 263 1118 q 292 1003 263 1032 q 365 974 322 974 q 438 1003 408 974 q 467 1075 467 1032 q 438 1147 467 1118 q 365 1176 408 1176 q 292 1147 322 1176 z "},"Æ":{"ha":1131,"x_min":108,"x_max":1082,"o":"m 617 972 l 1082 972 l 1082 914 l 681 914 l 681 574 l 961 574 l 940 513 l 681 513 l 681 57 l 1079 57 l 1079 0 l 617 0 l 618 356 l 361 356 l 175 0 l 108 0 l 617 972 m 618 850 l 392 417 l 618 417 l 618 850 z "},"Ç":{"ha":603,"x_min":92,"x_max":593,"o":"m 154 713 l 154 257 q 264 61 154 108 q 381 43 307 43 q 579 85 456 43 l 593 32 q 360 -14 475 -14 l 315 -76 q 376 -65 335 -65 q 452 -91 417 -65 q 488 -176 488 -117 q 436 -263 488 -235 q 322 -292 385 -292 q 188 -265 260 -292 l 215 -206 q 315 -239 264 -239 q 398 -221 367 -239 q 429 -167 429 -203 q 394 -115 429 -131 q 357 -108 378 -108 q 307 -119 336 -108 l 257 -140 l 238 -108 l 313 -11 q 152 64 213 0 q 92 254 92 128 l 92 700 q 122 860 92 806 q 213 951 151 914 q 361 986 275 986 q 558 940 469 986 l 539 896 q 379 929 458 929 q 211 874 268 929 q 171 810 188 851 q 154 713 154 768 z "},"È":{"ha":646,"x_min":108,"x_max":572,"o":"m 108 972 l 572 972 l 572 914 l 171 914 l 171 574 l 451 574 l 431 513 l 171 513 l 171 57 l 569 57 l 569 0 l 108 0 l 108 972 m 303 1181 l 376 1013 l 325 1013 l 232 1150 q 225 1168 225 1160 q 267 1208 225 1208 q 303 1181 292 1208 z "},"É":{"ha":646,"x_min":108,"x_max":572,"o":"m 108 972 l 572 972 l 572 914 l 171 914 l 171 574 l 451 574 l 431 513 l 171 513 l 171 57 l 569 57 l 569 0 l 108 0 l 108 972 m 329 1014 l 401 1182 q 438 1210 414 1210 q 478 1183 471 1210 q 481 1168 481 1176 q 474 1150 481 1160 l 379 1014 l 329 1014 z "},"Ê":{"ha":646,"x_min":108,"x_max":572,"o":"m 108 972 l 572 972 l 572 914 l 171 914 l 171 574 l 451 574 l 431 513 l 171 513 l 171 57 l 569 57 l 569 0 l 108 0 l 108 972 m 129 1072 l 335 1268 l 532 1072 l 488 1028 l 333 1182 l 172 1028 l 129 1072 z "},"Ë":{"ha":646,"x_min":108,"x_max":572,"o":"m 108 972 l 572 972 l 572 914 l 171 914 l 171 574 l 451 574 l 431 513 l 171 513 l 171 57 l 569 57 l 569 0 l 108 0 l 108 972 z "},"Ì":{"ha":389,"x_min":115,"x_max":278,"o":"m 115 972 l 278 972 l 278 0 l 215 0 l 215 914 l 115 917 l 115 972 m 193 1181 l 267 1013 l 215 1013 l 122 1150 q 115 1168 115 1160 q 157 1208 115 1208 q 193 1181 182 1208 z "},"Í":{"ha":478,"x_min":108,"x_max":368,"o":"m 108 972 l 271 972 l 271 0 l 208 0 l 208 914 l 108 917 l 108 972 m 217 1014 l 289 1182 q 325 1210 301 1210 q 367 1183 358 1210 q 368 1168 368 1176 q 361 1150 368 1160 l 267 1014 l 217 1014 z "},"Î":{"ha":622,"x_min":108,"x_max":511,"o":"m 186 972 l 349 972 l 349 0 l 286 0 l 286 914 l 186 917 l 186 972 m 108 1072 l 314 1268 l 511 1072 l 467 1028 l 313 1182 l 151 1028 l 108 1072 z "},"Ï":{"ha":383,"x_min":108,"x_max":271,"o":"m 108 972 l 271 972 l 271 0 l 208 0 l 208 914 l 108 917 l 108 972 z "},"Ð":{"ha":889,"x_min":108,"x_max":840,"o":"m 108 747 l 176 747 l 176 974 l 438 974 q 647 913 567 974 q 750 747 726 851 l 840 747 l 840 686 l 758 686 q 760 658 760 676 l 760 278 q 465 0 760 0 l 176 0 l 176 686 l 108 686 l 108 747 m 697 665 q 696 686 697 679 l 239 686 l 239 57 l 446 57 q 608 90 538 57 q 697 274 697 132 l 697 665 m 239 915 l 239 747 l 686 747 q 598 874 664 832 q 451 915 532 915 l 239 915 z "},"Ñ":{"ha":903,"x_min":108,"x_max":792,"o":"m 108 972 l 171 972 l 731 114 l 731 972 l 792 972 l 792 0 l 731 0 l 171 860 l 171 0 l 108 0 l 108 972 m 356 1083 q 249 1031 297 1083 l 219 1075 q 358 1147 285 1147 q 486 1104 392 1147 q 551 1089 518 1089 q 650 1136 607 1089 l 678 1090 q 550 1025 618 1025 q 490 1039 522 1025 q 423 1068 457 1053 q 356 1083 389 1083 z "},"Ò":{"ha":763,"x_min":88,"x_max":671,"o":"m 88 257 l 88 704 q 166 921 88 847 q 382 994 244 994 q 595 917 519 994 q 671 703 671 839 l 671 257 q 585 51 671 117 q 381 -15 500 -15 q 174 51 261 -15 q 88 257 88 117 m 150 714 l 150 257 q 216 98 150 151 q 381 44 282 44 q 544 97 479 44 q 610 258 610 149 l 610 714 q 548 878 610 821 q 379 935 486 935 q 211 878 272 935 q 150 714 150 821 m 333 1181 l 407 1013 l 356 1013 l 263 1150 q 256 1168 256 1160 q 297 1208 256 1208 q 333 1181 322 1208 z "},"Ó":{"ha":763,"x_min":88,"x_max":671,"o":"m 88 257 l 88 704 q 166 921 88 847 q 382 994 244 994 q 595 917 519 994 q 671 703 671 839 l 671 257 q 585 51 671 117 q 381 -15 500 -15 q 174 51 261 -15 q 88 257 88 117 m 150 714 l 150 257 q 216 98 150 151 q 381 44 282 44 q 544 97 479 44 q 610 258 610 149 l 610 714 q 548 878 610 821 q 379 935 486 935 q 211 878 272 935 q 150 714 150 821 m 357 1014 l 429 1182 q 465 1210 442 1210 q 506 1183 499 1210 q 508 1168 508 1176 q 501 1150 508 1160 l 407 1014 l 357 1014 z "},"Ô":{"ha":763,"x_min":88,"x_max":671,"o":"m 88 257 l 88 704 q 166 921 88 847 q 382 994 244 994 q 595 917 519 994 q 671 703 671 839 l 671 257 q 585 51 671 117 q 381 -15 500 -15 q 174 51 261 -15 q 88 257 88 117 m 150 714 l 150 257 q 216 98 150 151 q 381 44 282 44 q 544 97 479 44 q 610 258 610 149 l 610 714 q 548 878 610 821 q 379 935 486 935 q 211 878 272 935 q 150 714 150 821 m 175 1072 l 381 1268 l 578 1072 l 533 1028 l 379 1182 l 218 1028 l 175 1072 z "},"Õ":{"ha":763,"x_min":88,"x_max":671,"o":"m 88 257 l 88 704 q 166 921 88 847 q 382 994 244 994 q 595 917 519 994 q 671 703 671 839 l 671 257 q 585 51 671 117 q 381 -15 500 -15 q 174 51 261 -15 q 88 257 88 117 m 150 714 l 150 257 q 216 98 150 151 q 381 44 282 44 q 544 97 479 44 q 610 258 610 149 l 610 714 q 548 878 610 821 q 379 935 486 935 q 211 878 272 935 q 150 714 150 821 m 290 1083 q 183 1031 232 1083 l 154 1075 q 293 1147 219 1147 q 419 1104 326 1147 q 486 1089 453 1089 q 585 1136 542 1089 l 613 1090 q 485 1025 553 1025 q 424 1039 456 1025 q 358 1068 392 1053 q 290 1083 324 1083 z "},"Ö":{"ha":763,"x_min":88,"x_max":671,"o":"m 88 257 l 88 704 q 166 921 88 847 q 382 994 244 994 q 595 917 519 994 q 671 703 671 839 l 671 257 q 585 51 671 117 q 381 -15 500 -15 q 174 51 261 -15 q 88 257 88 117 m 150 714 l 150 257 q 216 98 150 151 q 381 44 282 44 q 544 97 479 44 q 610 258 610 149 l 610 714 q 548 878 610 821 q 379 935 486 935 q 211 878 272 935 q 150 714 150 821 z "},"×":{"ha":542,"x_min":108,"x_max":493,"o":"m 108 646 l 154 685 l 301 508 l 447 685 l 493 646 l 340 461 l 492 279 l 444 239 l 300 413 l 156 238 l 110 279 l 261 461 l 108 646 z "},"Ø":{"ha":740,"x_min":108,"x_max":692,"o":"m 589 1135 l 653 1135 l 586 942 q 692 703 692 864 l 692 257 q 606 51 692 117 q 401 -15 521 -15 q 264 10 328 -15 l 206 -158 l 139 -158 l 208 40 q 108 257 108 114 l 108 704 q 187 921 108 847 q 403 994 265 994 q 532 972 472 994 l 589 1135 m 631 714 q 565 881 631 822 l 283 68 q 400 44 332 44 q 565 97 500 44 q 631 258 631 149 l 631 714 m 171 714 l 171 257 q 231 104 171 161 l 513 914 q 400 935 464 935 q 232 878 293 935 q 171 714 171 821 z "},"Ù":{"ha":786,"x_min":103,"x_max":688,"o":"m 103 974 l 165 974 l 165 250 q 233 100 165 153 q 396 47 301 47 q 558 100 490 47 q 625 250 625 153 l 625 974 l 688 974 l 688 258 q 662 131 688 185 q 592 47 636 76 q 500 4 549 18 q 396 -10 451 -10 q 291 4 340 -10 q 198 47 242 18 q 128 131 154 76 q 103 258 103 185 l 103 974 m 346 1181 l 419 1013 l 368 1013 l 275 1150 q 268 1168 268 1160 q 310 1208 268 1208 q 346 1181 335 1208 z "},"Ú":{"ha":786,"x_min":103,"x_max":688,"o":"m 103 974 l 165 974 l 165 250 q 233 100 165 153 q 396 47 301 47 q 558 100 490 47 q 625 250 625 153 l 625 974 l 688 974 l 688 258 q 662 131 688 185 q 592 47 636 76 q 500 4 549 18 q 396 -10 451 -10 q 291 4 340 -10 q 198 47 242 18 q 128 131 154 76 q 103 258 103 185 l 103 974 m 364 1015 l 436 1183 q 472 1211 449 1211 q 514 1183 506 1211 q 515 1169 515 1178 q 508 1151 515 1161 l 414 1015 l 364 1015 z "},"Û":{"ha":786,"x_min":103,"x_max":688,"o":"m 103 974 l 165 974 l 165 250 q 233 100 165 153 q 396 47 301 47 q 558 100 490 47 q 625 250 625 153 l 625 974 l 688 974 l 688 258 q 662 131 688 185 q 592 47 636 76 q 500 4 549 18 q 396 -10 451 -10 q 291 4 340 -10 q 198 47 242 18 q 128 131 154 76 q 103 258 103 185 l 103 974 m 200 1072 l 406 1268 l 603 1072 l 558 1028 l 404 1182 l 243 1028 l 200 1072 z "},"Ü":{"ha":786,"x_min":103,"x_max":688,"o":"m 103 974 l 165 974 l 165 250 q 233 100 165 153 q 396 47 301 47 q 558 100 490 47 q 625 250 625 153 l 625 974 l 688 974 l 688 258 q 662 131 688 185 q 592 47 636 76 q 500 4 549 18 q 396 -10 451 -10 q 291 4 340 -10 q 198 47 242 18 q 128 131 154 76 q 103 258 103 185 l 103 974 z "},"Ý":{"ha":772,"x_min":83,"x_max":700,"o":"m 83 972 l 146 972 l 146 621 q 214 458 146 515 q 387 401 282 401 q 557 442 492 401 q 636 557 622 483 l 636 972 l 700 972 l 700 213 q 554 -10 700 15 l 539 33 q 628 128 608 60 q 636 211 636 163 l 636 428 q 531 362 599 383 q 401 340 463 340 q 169 413 254 340 q 83 629 83 486 l 83 972 m 364 1015 l 436 1183 q 472 1211 449 1211 q 514 1183 506 1211 q 515 1169 515 1178 q 508 1151 515 1161 l 414 1015 l 364 1015 z "},"Þ":{"ha":681,"x_min":108,"x_max":632,"o":"m 108 972 l 171 972 l 171 613 q 372 707 246 707 q 565 631 497 707 q 632 431 632 556 q 560 234 632 307 q 374 161 488 161 q 258 190 317 161 q 171 278 200 219 l 171 0 l 108 0 l 108 972 m 569 440 q 569 494 569 440 q 511 600 569 549 q 373 651 453 651 q 233 601 293 651 q 171 451 174 551 q 227 280 171 339 q 370 221 283 221 q 513 276 457 221 q 569 440 569 331 z "},"ß":{"ha":711,"x_min":108,"x_max":663,"o":"m 294 913 q 172 751 172 913 l 172 0 l 108 0 l 108 746 q 299 974 108 974 q 425 917 382 974 q 468 799 468 860 q 403 668 468 707 l 368 668 q 364 583 343 625 q 417 516 385 546 q 472 469 450 486 q 568 386 543 411 q 663 193 663 293 q 643 101 663 149 q 536 3 614 31 q 446 -15 486 -15 q 239 51 318 -15 l 272 106 q 376 53 313 68 q 436 46 406 46 q 500 56 467 46 q 581 125 558 75 q 597 199 597 163 q 524 344 597 274 q 431 425 489 378 q 304 563 329 507 q 293 625 293 588 q 317 704 293 663 q 319 704 318 704 q 400 756 379 704 q 407 801 407 775 q 389 860 407 828 q 299 913 358 913 q 294 913 297 913 z "},"à":{"ha":692,"x_min":108,"x_max":643,"o":"m 413 -14 q 108 235 108 -14 l 108 350 q 206 535 108 488 q 307 558 256 558 q 581 481 476 558 q 533 608 581 560 q 357 657 485 657 q 350 657 354 657 l 354 707 q 521 681 467 707 q 572 650 550 665 q 607 610 594 635 q 628 566 619 585 q 639 515 636 547 q 643 414 643 467 l 643 0 q 413 -14 499 -14 m 169 346 l 169 225 q 202 115 169 158 q 292 58 235 72 q 433 40 357 40 q 581 53 508 40 l 581 429 q 329 501 465 493 q 317 501 322 501 q 213 465 257 501 q 169 346 169 428 m 333 914 l 407 746 l 356 746 l 263 883 q 256 901 256 893 q 297 942 256 942 q 333 914 322 942 z "},"á":{"ha":692,"x_min":108,"x_max":643,"o":"m 413 -14 q 108 235 108 -14 l 108 350 q 206 535 108 488 q 307 558 256 558 q 581 481 476 558 q 533 608 581 560 q 357 657 485 657 q 350 657 354 657 l 354 707 q 521 681 467 707 q 572 650 550 665 q 607 610 594 635 q 628 566 619 585 q 639 515 636 547 q 643 414 643 467 l 643 0 q 413 -14 499 -14 m 169 346 l 169 225 q 202 115 169 158 q 292 58 235 72 q 433 40 357 40 q 581 53 508 40 l 581 429 q 329 501 465 493 q 317 501 322 501 q 213 465 257 501 q 169 346 169 428 m 358 747 l 431 915 q 467 943 443 943 q 508 917 500 943 q 510 901 510 910 q 503 883 510 893 l 408 747 l 358 747 z "},"â":{"ha":692,"x_min":108,"x_max":643,"o":"m 413 -14 q 108 235 108 -14 l 108 350 q 206 535 108 488 q 307 558 256 558 q 581 481 476 558 q 533 608 581 560 q 357 657 485 657 q 350 657 354 657 l 354 707 q 521 681 467 707 q 572 650 550 665 q 607 610 594 635 q 628 566 619 585 q 639 515 636 547 q 643 414 643 467 l 643 0 q 413 -14 499 -14 m 169 346 l 169 225 q 202 115 169 158 q 292 58 235 72 q 433 40 357 40 q 581 53 508 40 l 581 429 q 329 501 465 493 q 317 501 322 501 q 213 465 257 501 q 169 346 169 428 m 179 804 l 385 1000 l 582 804 l 538 760 l 383 914 l 222 760 l 179 804 z "},"ã":{"ha":692,"x_min":108,"x_max":643,"o":"m 413 -14 q 108 235 108 -14 l 108 350 q 206 535 108 488 q 307 558 256 558 q 581 481 476 558 q 533 608 581 560 q 357 657 485 657 q 350 657 354 657 l 354 707 q 521 681 467 707 q 572 650 550 665 q 607 610 594 635 q 628 566 619 585 q 639 515 636 547 q 643 414 643 467 l 643 0 q 413 -14 499 -14 m 169 346 l 169 225 q 202 115 169 158 q 292 58 235 72 q 433 40 357 40 q 581 53 508 40 l 581 429 q 329 501 465 493 q 317 501 322 501 q 213 465 257 501 q 169 346 169 428 m 292 822 q 185 769 233 822 l 156 814 q 294 886 221 886 q 422 843 328 886 q 488 828 454 828 q 586 875 543 828 l 614 829 q 486 764 554 764 q 426 778 458 764 q 359 807 393 792 q 292 822 325 822 z "},"ä":{"ha":692,"x_min":108,"x_max":643,"o":"m 413 -14 q 108 235 108 -14 l 108 350 q 206 535 108 488 q 307 558 256 558 q 581 481 476 558 q 533 608 581 560 q 357 657 485 657 q 350 657 354 657 l 354 707 q 521 681 467 707 q 572 650 550 665 q 607 610 594 635 q 628 566 619 585 q 639 515 636 547 q 643 414 643 467 l 643 0 q 413 -14 499 -14 m 169 346 l 169 225 q 202 115 169 158 q 292 58 235 72 q 433 40 357 40 q 581 53 508 40 l 581 429 q 329 501 465 493 q 317 501 322 501 q 213 465 257 501 q 169 346 169 428 z "},"å":{"ha":692,"x_min":108,"x_max":643,"o":"m 413 -14 q 108 235 108 -14 l 108 350 q 206 535 108 488 q 307 558 256 558 q 581 481 476 558 q 533 608 581 560 q 357 657 485 657 q 350 657 354 657 q 247 708 289 663 q 206 815 206 753 q 251 924 206 878 q 363 971 297 971 q 474 924 428 971 q 519 810 519 878 q 465 696 519 743 q 552 661 517 685 q 605 614 588 638 q 631 550 622 590 q 643 414 643 496 l 643 0 q 413 -14 499 -14 m 169 346 l 169 225 q 202 115 169 158 q 292 58 235 72 q 433 40 357 40 q 581 53 508 40 l 581 429 q 329 501 465 493 q 317 501 322 501 q 213 465 257 501 q 169 346 169 428 m 289 888 q 274 873 289 888 q 258 814 258 858 q 289 740 258 769 q 363 710 319 710 q 436 740 406 710 q 467 814 467 769 q 436 888 467 858 q 363 918 406 918 q 289 888 319 918 z "},"æ":{"ha":1131,"x_min":108,"x_max":1082,"o":"m 413 -14 q 108 235 108 -14 l 108 350 q 206 535 108 488 q 307 558 256 558 q 581 481 476 558 q 533 608 581 560 q 357 657 485 657 q 350 657 354 657 l 354 707 q 614 599 556 707 q 838 708 678 708 q 1017 647 953 708 q 1082 475 1082 585 l 1082 308 l 644 285 l 644 185 q 696 72 644 106 q 813 38 747 38 q 1022 97 913 38 l 1047 49 q 820 -17 940 -17 q 643 33 700 -17 l 643 0 q 413 -14 499 -14 m 169 346 l 169 225 q 202 115 169 158 q 292 58 235 72 q 433 40 357 40 q 581 53 508 40 l 581 429 q 329 501 465 493 q 317 501 322 501 q 213 465 257 501 q 169 346 169 428 m 644 471 l 644 346 l 1019 365 l 1019 482 q 963 615 1019 575 q 830 654 906 654 q 699 610 754 654 q 644 471 644 565 z "},"ç":{"ha":532,"x_min":50,"x_max":497,"o":"m 476 615 q 333 651 396 651 q 224 635 271 651 q 145 567 178 619 q 113 436 113 515 l 113 235 q 335 40 113 40 q 483 60 403 40 l 497 8 q 362 -14 413 -14 q 289 -12 311 -14 l 243 -76 q 303 -65 263 -65 q 380 -91 344 -65 q 415 -176 415 -117 q 364 -263 415 -235 q 250 -292 313 -292 q 115 -265 188 -292 l 143 -206 q 243 -239 192 -239 q 326 -221 294 -239 q 357 -167 357 -203 q 322 -115 357 -131 q 285 -108 306 -108 q 235 -119 264 -108 l 185 -140 l 165 -108 l 244 -7 q 206 3 219 -3 q 87 88 124 31 q 50 250 50 146 l 50 428 q 89 593 50 526 q 308 708 156 708 q 494 664 400 708 l 476 615 z "},"è":{"ha":657,"x_min":108,"x_max":608,"o":"m 574 49 q 350 -17 467 -17 q 108 186 108 -17 l 108 471 q 178 646 108 583 q 364 708 249 708 q 544 647 479 708 q 608 475 608 585 l 608 308 l 171 285 l 171 185 q 222 72 171 106 q 339 38 274 38 q 549 97 439 38 l 574 49 m 171 471 l 171 346 l 546 365 l 546 482 q 489 615 546 575 q 356 654 432 654 q 226 610 281 654 q 171 471 171 565 m 322 914 l 396 746 l 344 746 l 251 883 q 244 901 244 893 q 286 942 244 942 q 322 914 311 942 z "},"é":{"ha":657,"x_min":108,"x_max":608,"o":"m 574 49 q 350 -17 467 -17 q 108 186 108 -17 l 108 471 q 178 646 108 583 q 364 708 249 708 q 544 647 479 708 q 608 475 608 585 l 608 308 l 171 285 l 171 185 q 222 72 171 106 q 339 38 274 38 q 549 97 439 38 l 574 49 m 171 471 l 171 346 l 546 365 l 546 482 q 489 615 546 575 q 356 654 432 654 q 226 610 281 654 q 171 471 171 565 m 333 747 l 406 915 q 442 943 418 943 q 483 917 475 943 q 485 901 485 910 q 478 883 485 893 l 383 747 l 333 747 z "},"ê":{"ha":669,"x_min":108,"x_max":608,"o":"m 574 49 q 350 -17 467 -17 q 108 186 108 -17 l 108 471 q 178 646 108 583 q 364 708 249 708 q 544 647 479 708 q 608 475 608 585 l 608 308 l 171 285 l 171 185 q 222 72 171 106 q 339 38 274 38 q 549 97 439 38 l 574 49 m 171 471 l 171 346 l 546 365 l 546 482 q 489 615 546 575 q 356 654 432 654 q 226 610 281 654 q 171 471 171 565 m 149 804 l 354 1000 l 551 804 l 507 760 l 353 914 l 192 760 l 149 804 z "},"ë":{"ha":625,"x_min":49,"x_max":549,"o":"m 514 49 q 290 -17 407 -17 q 49 186 49 -17 l 49 471 q 119 646 49 583 q 304 708 189 708 q 484 647 419 708 q 549 475 549 585 l 549 308 l 111 285 l 111 185 q 163 72 111 106 q 279 38 214 38 q 489 97 379 38 l 514 49 m 111 471 l 111 346 l 486 365 l 486 482 q 429 615 486 575 q 297 654 372 654 q 166 610 221 654 q 111 471 111 565 z "},"ì":{"ha":321,"x_min":108,"x_max":271,"o":"m 186 914 l 260 746 l 208 746 l 115 883 q 108 901 108 893 q 150 942 108 942 q 186 914 175 942 m 208 696 l 271 696 l 271 0 l 208 0 l 208 696 z "},"í":{"ha":315,"x_min":113,"x_max":268,"o":"m 117 747 l 189 915 q 225 943 201 943 q 267 917 258 943 q 268 901 268 910 q 261 883 268 893 l 167 747 l 117 747 m 113 696 l 175 696 l 175 0 l 113 0 l 113 696 z "},"î":{"ha":221,"x_min":-83,"x_max":319,"o":"m -83 804 l 122 1000 l 319 804 l 275 760 l 121 914 l -40 760 l -83 804 m 88 696 l 150 696 l 150 0 l 88 0 l 88 696 z "},"ï":{"ha":197,"x_min":-46,"x_max":251,"o":"m 71 696 l 133 696 l 133 0 l 71 0 l 71 696 m -34 827 q -28 833 -34 827 q -7 839 -22 839 q 20 827 8 839 q 32 800 32 815 q 20 774 32 785 q -7 763 8 763 q -34 774 -22 763 q -46 800 -46 785 q -34 827 -46 815 m 186 828 q 192 833 186 828 q 213 839 197 839 q 240 828 228 839 q 251 801 251 817 q 240 774 251 786 q 213 763 228 763 q 186 774 197 763 q 175 801 175 786 q 186 828 175 817 z "},"ñ":{"ha":669,"x_min":108,"x_max":621,"o":"m 367 650 q 171 603 258 650 l 171 0 l 108 0 l 108 696 l 171 696 l 171 658 q 369 707 249 707 q 503 681 449 707 q 621 481 621 626 l 621 0 l 560 0 l 560 478 q 517 597 560 553 q 414 647 475 640 q 367 650 390 650 m 264 822 q 157 769 206 822 l 128 814 q 267 886 193 886 q 394 843 300 886 q 460 828 426 828 q 558 875 515 828 l 586 829 q 458 764 526 764 q 398 778 431 764 q 331 807 365 792 q 264 822 297 822 z "},"ò":{"ha":675,"x_min":108,"x_max":626,"o":"m 108 256 l 108 439 q 176 641 108 571 q 367 711 243 711 q 558 638 490 711 q 626 439 626 565 l 626 256 q 563 63 626 139 q 369 -14 499 -14 q 174 63 240 -14 q 108 256 108 140 m 171 440 l 171 246 q 223 99 171 157 q 369 42 275 42 q 514 99 464 42 q 564 246 564 156 l 564 440 q 510 601 564 549 q 368 654 457 654 q 225 602 279 654 q 171 440 171 550 m 321 914 l 394 746 l 343 746 l 250 883 q 243 901 243 893 q 285 942 243 942 q 321 914 310 942 z "},"ó":{"ha":675,"x_min":108,"x_max":626,"o":"m 108 256 l 108 439 q 176 641 108 571 q 367 711 243 711 q 558 638 490 711 q 626 439 626 565 l 626 256 q 563 63 626 139 q 369 -14 499 -14 q 174 63 240 -14 q 108 256 108 140 m 171 440 l 171 246 q 223 99 171 157 q 369 42 275 42 q 514 99 464 42 q 564 246 564 156 l 564 440 q 510 601 564 549 q 368 654 457 654 q 225 602 279 654 q 171 440 171 550 m 332 747 l 404 915 q 440 943 417 943 q 481 917 474 943 q 483 901 483 910 q 476 883 483 893 l 382 747 l 332 747 z "},"ô":{"ha":675,"x_min":108,"x_max":626,"o":"m 108 256 l 108 439 q 176 641 108 571 q 367 711 243 711 q 558 638 490 711 q 626 439 626 565 l 626 256 q 563 63 626 139 q 369 -14 499 -14 q 174 63 240 -14 q 108 256 108 140 m 171 440 l 171 246 q 223 99 171 157 q 369 42 275 42 q 514 99 464 42 q 564 246 564 156 l 564 440 q 510 601 564 549 q 368 654 457 654 q 225 602 279 654 q 171 440 171 550 m 165 804 l 371 1000 l 568 804 l 524 760 l 369 914 l 208 760 l 165 804 z "},"õ":{"ha":675,"x_min":108,"x_max":626,"o":"m 108 256 l 108 439 q 176 641 108 571 q 367 711 243 711 q 558 638 490 711 q 626 439 626 565 l 626 256 q 563 63 626 139 q 369 -14 499 -14 q 174 63 240 -14 q 108 256 108 140 m 171 440 l 171 246 q 223 99 171 157 q 369 42 275 42 q 514 99 464 42 q 564 246 564 156 l 564 440 q 510 601 564 549 q 368 654 457 654 q 225 602 279 654 q 171 440 171 550 m 276 822 q 169 769 218 822 l 140 814 q 279 886 206 886 q 406 843 313 886 q 472 828 439 828 q 571 875 528 828 l 599 829 q 471 764 539 764 q 410 778 442 764 q 344 807 378 792 q 276 822 310 822 z "},"ö":{"ha":675,"x_min":108,"x_max":626,"o":"m 108 256 l 108 439 q 176 641 108 571 q 367 711 243 711 q 558 638 490 711 q 626 439 626 565 l 626 256 q 563 63 626 139 q 369 -14 499 -14 q 174 63 240 -14 q 108 256 108 140 m 171 440 l 171 246 q 223 99 171 157 q 369 42 275 42 q 514 99 464 42 q 564 246 564 156 l 564 440 q 510 601 564 549 q 368 654 457 654 q 225 602 279 654 q 171 440 171 550 z "},"÷":{"ha":600,"x_min":108,"x_max":551,"o":"m 108 567 l 551 567 l 551 506 l 108 506 l 108 567 m 307 389 q 313 394 307 389 q 333 400 318 400 q 360 389 349 400 q 372 363 372 378 q 360 335 372 347 q 333 324 349 324 q 307 335 318 324 q 296 363 296 347 q 307 389 296 378 m 307 731 q 313 736 307 731 q 333 742 318 742 q 360 731 349 742 q 372 704 372 719 q 360 677 372 689 q 333 665 349 665 q 307 677 318 665 q 296 704 296 689 q 307 731 296 719 z "},"ø":{"ha":688,"x_min":108,"x_max":640,"o":"m 579 893 l 640 893 l 540 654 q 626 439 626 581 l 626 256 q 563 63 626 139 q 369 -14 499 -14 q 272 0 318 -14 l 207 -158 l 142 -158 l 218 26 q 108 256 108 97 l 108 439 q 176 641 108 571 q 369 711 243 711 q 493 685 436 711 l 579 893 m 171 440 l 171 246 q 242 82 171 139 l 469 631 q 369 654 425 654 q 225 602 279 654 q 171 440 171 550 m 564 440 q 517 594 564 539 l 293 53 q 369 42 329 42 q 514 99 464 42 q 564 246 564 156 l 564 440 z "},"ù":{"ha":675,"x_min":108,"x_max":626,"o":"m 108 696 l 171 696 l 171 233 q 369 42 171 42 q 511 88 458 42 q 564 226 564 135 l 564 696 l 626 696 l 626 0 l 565 0 l 569 82 q 369 -15 499 -15 q 108 240 108 -15 l 108 696 m 331 914 l 404 746 l 353 746 l 260 883 q 253 901 253 893 q 294 942 253 942 q 331 914 319 942 z "},"ú":{"ha":675,"x_min":108,"x_max":626,"o":"m 108 696 l 171 696 l 171 233 q 369 42 171 42 q 511 88 458 42 q 564 226 564 135 l 564 696 l 626 696 l 626 0 l 565 0 l 569 82 q 369 -15 499 -15 q 108 240 108 -15 l 108 696 m 332 747 l 404 915 q 440 943 417 943 q 481 917 474 943 q 483 901 483 910 q 476 883 483 893 l 382 747 l 332 747 z "},"û":{"ha":675,"x_min":108,"x_max":626,"o":"m 108 696 l 171 696 l 171 233 q 369 42 171 42 q 511 88 458 42 q 564 226 564 135 l 564 696 l 626 696 l 626 0 l 565 0 l 569 82 q 369 -15 499 -15 q 108 240 108 -15 l 108 696 m 169 804 l 375 1000 l 572 804 l 528 760 l 374 914 l 213 760 l 169 804 z "},"ü":{"ha":675,"x_min":108,"x_max":626,"o":"m 108 696 l 171 696 l 171 233 q 369 42 171 42 q 511 88 458 42 q 564 226 564 135 l 564 696 l 626 696 l 626 0 l 565 0 l 569 82 q 369 -15 499 -15 q 108 240 108 -15 l 108 696 z "},"ý":{"ha":722,"x_min":108,"x_max":674,"o":"m 108 696 l 168 696 l 168 231 q 219 90 168 139 q 362 40 269 40 q 511 90 454 40 q 568 231 568 139 l 568 508 q 604 679 568 646 q 656 708 624 697 l 674 665 q 629 560 629 640 l 629 -85 q 596 -218 629 -169 q 483 -292 563 -267 l 467 -243 q 569 -87 569 -207 l 569 83 q 363 -17 514 -17 q 174 49 240 -17 q 108 244 108 115 l 108 696 m 328 747 l 400 915 q 436 943 413 943 q 478 917 469 943 q 479 901 479 910 q 472 883 479 893 l 378 747 l 328 747 z "},"þ":{"ha":681,"x_min":108,"x_max":632,"o":"m 108 894 l 171 894 l 171 613 q 372 707 246 707 q 565 631 497 707 q 632 431 632 556 q 560 234 632 307 q 374 161 488 161 q 258 190 317 161 q 171 278 200 219 l 171 0 l 108 0 l 108 894 m 569 440 q 569 494 569 440 q 511 600 569 549 q 373 651 453 651 q 233 601 293 651 q 171 451 174 551 q 227 280 171 339 q 370 221 283 221 q 513 276 457 221 q 569 440 569 331 z "},"ÿ":{"ha":722,"x_min":108,"x_max":674,"o":"m 108 696 l 168 696 l 168 231 q 219 90 168 139 q 362 40 269 40 q 511 90 454 40 q 568 231 568 139 l 568 508 q 604 679 568 646 q 656 708 624 697 l 674 665 q 629 560 629 640 l 629 -85 q 596 -218 629 -169 q 483 -292 563 -267 l 467 -243 q 569 -87 569 -207 l 569 83 q 363 -17 514 -17 q 174 49 240 -17 q 108 244 108 115 l 108 696 m 240 827 q 245 833 240 827 q 267 839 251 839 q 294 827 282 839 q 306 800 306 815 q 294 774 306 785 q 267 763 282 763 q 240 774 251 763 q 228 800 228 785 q 240 827 228 815 m 460 828 q 465 833 460 828 q 486 839 471 839 q 513 828 501 839 q 525 801 525 817 q 513 774 525 786 q 486 763 501 763 q 460 774 471 763 q 449 801 449 786 q 460 828 449 817 z "},"Ā":{"ha":732,"x_min":17,"x_max":718,"o":"m 336 972 l 394 972 l 718 0 l 651 0 l 532 356 l 199 356 l 82 0 l 17 0 l 336 972 m 365 871 l 218 417 l 515 417 l 365 871 m 210 1094 l 511 1094 l 511 1031 l 210 1031 l 210 1094 z "},"ā":{"ha":692,"x_min":108,"x_max":643,"o":"m 413 -14 q 108 235 108 -14 l 108 350 q 206 535 108 488 q 307 558 256 558 q 581 481 476 558 q 533 608 581 560 q 357 657 485 657 q 350 657 354 657 l 354 707 q 521 681 467 707 q 572 650 550 665 q 607 610 594 635 q 628 566 619 585 q 639 515 636 547 q 643 414 643 467 l 643 0 q 413 -14 499 -14 m 169 346 l 169 225 q 202 115 169 158 q 292 58 235 72 q 433 40 357 40 q 581 53 508 40 l 581 429 q 329 501 465 493 q 317 501 322 501 q 213 465 257 501 q 169 346 169 428 m 235 828 l 536 828 l 536 764 l 235 764 l 235 828 z "},"Ă":{"ha":732,"x_min":17,"x_max":718,"o":"m 336 972 l 394 972 l 718 0 l 651 0 l 532 356 l 199 356 l 82 0 l 17 0 l 336 972 m 365 871 l 218 417 l 515 417 l 365 871 m 211 1178 l 264 1178 l 264 1171 q 293 1097 264 1129 q 367 1065 322 1065 q 442 1097 413 1065 q 472 1171 472 1129 l 472 1178 l 525 1178 l 525 1171 q 479 1060 525 1106 q 368 1014 433 1014 q 257 1060 303 1014 q 211 1171 211 1106 l 211 1178 z "},"ă":{"ha":692,"x_min":108,"x_max":643,"o":"m 413 -14 q 108 235 108 -14 l 108 350 q 206 535 108 488 q 307 558 256 558 q 581 481 476 558 q 533 608 581 560 q 357 657 485 657 q 350 657 354 657 l 354 707 q 521 681 467 707 q 572 650 550 665 q 607 610 594 635 q 628 566 619 585 q 639 515 636 547 q 643 414 643 467 l 643 0 q 413 -14 499 -14 m 169 346 l 169 225 q 202 115 169 158 q 292 58 235 72 q 433 40 357 40 q 581 53 508 40 l 581 429 q 329 501 465 493 q 317 501 322 501 q 213 465 257 501 q 169 346 169 428 m 272 911 l 325 911 l 325 904 q 354 831 325 863 q 428 799 383 799 q 503 831 474 799 q 533 904 533 863 l 533 911 l 586 911 l 586 904 q 540 793 586 839 q 429 747 494 747 q 318 793 364 747 q 272 904 272 839 l 272 911 z "},"Ą":{"ha":919,"x_min":108,"x_max":871,"o":"m 808 0 q 665 -179 665 -114 q 683 -223 665 -204 q 733 -242 701 -242 q 828 -183 792 -242 l 871 -226 q 736 -296 826 -296 q 669 -281 700 -296 q 608 -181 608 -251 q 742 0 608 -87 l 743 0 l 624 356 l 290 356 l 174 0 l 108 0 l 428 972 l 486 972 l 810 0 l 808 0 m 457 871 l 310 417 l 607 417 l 457 871 z "},"ą":{"ha":697,"x_min":51,"x_max":647,"o":"m 506 -7 q 370 -15 422 -15 q 254 -5 318 -15 q 149 31 190 6 q 80 108 108 56 q 51 235 51 160 l 51 350 q 149 535 51 488 q 250 558 199 558 q 524 481 419 558 q 476 608 524 560 q 300 657 428 657 q 293 657 297 657 l 297 707 q 464 681 410 707 q 515 650 493 665 q 550 610 538 635 q 571 566 563 585 q 582 515 579 547 q 586 414 586 467 l 586 0 l 585 0 q 442 -179 442 -114 q 460 -223 442 -204 q 510 -242 478 -242 q 604 -183 568 -242 l 647 -226 q 513 -296 603 -296 q 446 -281 476 -296 q 385 -181 385 -251 q 506 -7 385 -92 m 113 346 l 113 225 q 145 115 113 158 q 233 58 178 72 q 524 53 358 25 l 524 429 q 272 501 408 493 q 260 501 265 501 q 156 465 200 501 q 113 346 113 428 z "},"Ć":{"ha":603,"x_min":92,"x_max":593,"o":"m 593 32 q 368 -14 475 -14 q 301 -10 346 -14 q 205 22 256 -6 q 123 108 154 49 q 92 254 92 167 l 92 700 q 122 860 92 806 q 213 951 151 914 q 361 986 275 986 q 558 940 469 986 l 539 896 q 379 929 458 929 q 211 874 268 929 q 171 810 188 851 q 154 713 154 768 l 154 257 q 264 61 154 108 q 381 43 307 43 q 579 85 456 43 l 593 32 m 325 1019 l 397 1188 q 433 1215 410 1215 q 475 1189 467 1215 q 476 1174 476 1182 q 469 1156 476 1165 l 375 1019 l 325 1019 z "},"ć":{"ha":604,"x_min":108,"x_max":556,"o":"m 535 615 q 392 651 454 651 q 283 635 329 651 q 203 567 236 619 q 171 436 171 515 l 171 235 q 393 40 171 40 q 542 60 461 40 l 556 8 q 394 -15 467 -15 q 253 7 322 -15 q 108 250 108 54 l 108 428 q 147 593 108 526 q 367 708 214 708 q 553 664 458 708 l 535 615 m 290 747 l 363 915 q 399 943 375 943 q 439 917 432 943 q 442 901 442 910 q 435 883 442 893 l 340 747 l 290 747 z "},"Ĉ":{"ha":603,"x_min":92,"x_max":593,"o":"m 182 1072 l 388 1268 l 585 1072 l 540 1028 l 386 1182 l 225 1028 l 182 1072 m 593 32 q 368 -14 475 -14 q 301 -10 346 -14 q 205 22 256 -6 q 123 108 154 49 q 92 254 92 167 l 92 700 q 122 860 92 806 q 213 951 151 914 q 361 986 275 986 q 558 940 469 986 l 539 896 q 379 929 458 929 q 211 874 268 929 q 171 810 188 851 q 154 713 154 768 l 154 257 q 264 61 154 108 q 381 43 307 43 q 579 85 456 43 l 593 32 z "},"ĉ":{"ha":649,"x_min":108,"x_max":567,"o":"m 535 615 q 392 651 454 651 q 283 635 329 651 q 203 567 236 619 q 171 436 171 515 l 171 235 q 393 40 171 40 q 542 60 461 40 l 556 8 q 394 -15 467 -15 q 253 7 322 -15 q 108 250 108 54 l 108 428 q 147 593 108 526 q 367 708 214 708 q 553 664 458 708 l 535 615 m 164 806 l 369 1001 l 567 806 l 522 761 l 368 915 l 207 761 l 164 806 z "},"Ċ":{"ha":603,"x_min":92,"x_max":593,"o":"m 593 32 q 368 -14 475 -14 q 301 -10 346 -14 q 205 22 256 -6 q 123 108 154 49 q 92 254 92 167 l 92 700 q 122 860 92 806 q 213 951 151 914 q 361 986 275 986 q 558 940 469 986 l 539 896 q 379 929 458 929 q 211 874 268 929 q 171 810 188 851 q 154 713 154 768 l 154 257 q 264 61 154 108 q 381 43 307 43 q 579 85 456 43 l 593 32 m 341 1042 q 335 1048 341 1042 q 329 1069 329 1054 q 341 1096 329 1085 q 368 1107 353 1107 q 394 1096 383 1107 q 406 1069 406 1085 q 394 1042 406 1054 q 368 1031 383 1031 q 341 1042 353 1031 z "},"ċ":{"ha":604,"x_min":108,"x_max":556,"o":"m 535 615 q 392 651 454 651 q 283 635 329 651 q 203 567 236 619 q 171 436 171 515 l 171 235 q 393 40 171 40 q 542 60 461 40 l 556 8 q 394 -15 467 -15 q 253 7 322 -15 q 108 250 108 54 l 108 428 q 147 593 108 526 q 367 708 214 708 q 553 664 458 708 l 535 615 m 340 776 q 334 782 340 776 q 328 803 328 788 q 340 829 328 818 q 367 840 351 840 q 393 829 382 840 q 404 803 404 818 q 393 776 404 788 q 367 764 382 764 q 340 776 351 764 z "},"Č":{"ha":603,"x_min":92,"x_max":593,"o":"m 593 32 q 368 -14 475 -14 q 301 -10 346 -14 q 205 22 256 -6 q 123 108 154 49 q 92 254 92 167 l 92 700 q 122 860 92 806 q 213 951 151 914 q 361 986 275 986 q 558 940 469 986 l 539 896 q 379 929 458 929 q 211 874 268 929 q 171 810 188 851 q 154 713 154 768 l 154 257 q 264 61 154 108 q 381 43 307 43 q 579 85 456 43 l 593 32 m 150 1214 l 193 1258 l 354 1104 l 510 1258 l 553 1214 l 356 1018 l 150 1214 z "},"č":{"ha":606,"x_min":108,"x_max":557,"o":"m 535 615 q 392 651 454 651 q 283 635 329 651 q 203 567 236 619 q 171 436 171 515 l 171 235 q 393 40 171 40 q 542 60 461 40 l 556 8 q 394 -15 467 -15 q 253 7 322 -15 q 108 250 108 54 l 108 428 q 147 593 108 526 q 367 708 214 708 q 553 664 458 708 l 535 615 m 154 950 l 197 994 l 358 840 l 514 994 l 557 950 l 360 754 l 154 950 z "},"Ď":{"ha":800,"x_min":108,"x_max":692,"o":"m 108 974 l 369 974 q 609 888 526 974 q 692 658 692 801 l 692 278 q 397 0 692 0 l 108 0 l 108 974 m 171 915 l 171 57 l 378 57 q 540 90 469 57 q 629 274 629 132 l 629 665 q 556 853 629 792 q 383 915 483 915 l 171 915 m 175 1215 l 218 1260 l 379 1106 l 535 1260 l 578 1215 l 381 1019 l 175 1215 z "},"ď":{"ha":844,"x_min":108,"x_max":796,"o":"m 364 707 q 558 660 483 707 l 558 972 l 621 972 l 621 0 q 400 -17 501 -17 q 217 25 299 -17 q 108 218 108 81 l 108 481 q 226 681 108 626 q 364 707 285 707 m 558 604 q 360 650 474 650 q 319 649 339 650 q 213 599 256 643 q 169 476 169 554 l 169 217 q 229 88 169 132 q 378 42 290 42 q 558 56 465 42 l 558 604 m 749 892 l 739 894 q 716 930 715 908 q 727 961 717 951 q 746 971 738 971 q 763 970 754 971 q 783 956 771 969 q 796 928 796 943 q 707 778 796 851 l 663 810 q 715 847 693 826 q 749 892 736 868 z "},"Đ":{"ha":800,"x_min":108,"x_max":692,"o":"m 108 974 l 369 974 q 609 888 526 974 q 692 658 692 801 l 692 278 q 397 0 692 0 l 108 0 l 108 974 m 171 915 l 171 57 l 378 57 q 540 90 469 57 q 629 274 629 132 l 629 665 q 556 853 629 792 q 383 915 483 915 l 171 915 m 243 1094 l 544 1094 l 544 1031 l 243 1031 l 243 1094 z "},"đ":{"ha":754,"x_min":108,"x_max":706,"o":"m 364 707 q 558 660 483 707 l 558 796 l 621 796 l 621 0 q 400 -17 501 -17 q 217 25 299 -17 q 108 218 108 81 l 108 481 q 226 681 108 626 q 364 707 285 707 m 558 604 q 360 650 474 650 q 319 649 339 650 q 213 599 256 643 q 169 476 169 554 l 169 217 q 229 88 169 132 q 378 42 290 42 q 558 56 465 42 l 558 604 m 381 857 l 558 857 l 558 796 l 381 796 l 381 857 m 558 972 l 621 972 l 621 857 l 558 857 l 558 972 m 706 796 l 621 796 l 621 857 l 706 857 l 706 796 z "},"Ē":{"ha":646,"x_min":108,"x_max":572,"o":"m 108 972 l 572 972 l 572 914 l 171 914 l 171 574 l 451 574 l 431 513 l 171 513 l 171 57 l 569 57 l 569 0 l 108 0 l 108 972 m 188 1094 l 489 1094 l 489 1031 l 188 1031 l 188 1094 z "},"ē":{"ha":625,"x_min":49,"x_max":549,"o":"m 514 49 q 290 -17 407 -17 q 49 186 49 -17 l 49 471 q 119 646 49 583 q 304 708 189 708 q 484 647 419 708 q 549 475 549 585 l 549 308 l 111 285 l 111 185 q 163 72 111 106 q 279 38 214 38 q 489 97 379 38 l 514 49 m 111 471 l 111 346 l 486 365 l 486 482 q 429 615 486 575 q 297 654 372 654 q 166 610 221 654 q 111 471 111 565 m 151 828 l 453 828 l 453 764 l 151 764 l 151 828 z "},"Ė":{"ha":646,"x_min":108,"x_max":572,"o":"m 108 972 l 572 972 l 572 914 l 171 914 l 171 574 l 451 574 l 431 513 l 171 513 l 171 57 l 569 57 l 569 0 l 108 0 l 108 972 m 327 1042 q 321 1048 327 1042 q 315 1069 315 1054 q 327 1096 315 1085 q 354 1107 339 1107 q 381 1096 369 1107 q 392 1069 392 1085 q 381 1042 392 1054 q 354 1031 369 1031 q 327 1042 339 1031 z "},"ė":{"ha":657,"x_min":108,"x_max":608,"o":"m 574 49 q 350 -17 467 -17 q 108 186 108 -17 l 108 471 q 178 646 108 583 q 364 708 249 708 q 544 647 479 708 q 608 475 608 585 l 608 308 l 171 285 l 171 185 q 222 72 171 106 q 339 38 274 38 q 549 97 439 38 l 574 49 m 171 471 l 171 346 l 546 365 l 546 482 q 489 615 546 575 q 356 654 432 654 q 226 610 281 654 q 171 471 171 565 m 347 776 q 341 782 347 776 q 335 803 335 788 q 347 829 335 818 q 374 840 358 840 q 400 829 389 840 q 411 803 411 818 q 400 776 411 788 q 374 764 389 764 q 347 776 358 764 z "},"Ę":{"ha":704,"x_min":108,"x_max":631,"o":"m 568 0 q 425 -179 425 -114 q 443 -223 425 -204 q 493 -242 461 -242 q 588 -183 551 -242 l 631 -226 q 496 -296 586 -296 q 429 -281 460 -296 q 368 -181 368 -251 q 501 0 368 -87 l 108 0 l 108 972 l 572 972 l 572 914 l 171 914 l 171 574 l 451 574 l 431 513 l 171 513 l 171 57 l 569 57 l 569 0 l 568 0 z "},"ę":{"ha":603,"x_min":49,"x_max":549,"o":"m 279 38 q 489 97 379 38 l 514 49 q 350 -11 442 4 q 221 -179 221 -115 q 239 -223 221 -204 q 289 -242 257 -242 q 383 -183 347 -242 l 426 -226 q 292 -296 382 -296 q 225 -281 256 -296 q 164 -181 164 -251 q 272 -17 164 -96 q 109 34 169 -17 q 49 186 49 85 l 49 471 q 119 646 49 583 q 304 708 189 708 q 484 647 419 708 q 549 475 549 585 l 549 308 l 111 285 l 111 185 q 163 72 111 106 q 279 38 214 38 m 111 471 l 111 346 l 486 365 l 486 482 q 429 615 486 575 q 297 654 372 654 q 166 610 221 654 q 111 471 111 565 z "},"Ě":{"ha":646,"x_min":108,"x_max":572,"o":"m 108 972 l 572 972 l 572 914 l 171 914 l 171 574 l 451 574 l 431 513 l 171 513 l 171 57 l 569 57 l 569 0 l 108 0 l 108 972 m 140 1215 l 183 1260 l 344 1106 l 500 1260 l 543 1215 l 346 1019 l 140 1215 z "},"ě":{"ha":657,"x_min":108,"x_max":608,"o":"m 574 49 q 350 -17 467 -17 q 108 186 108 -17 l 108 471 q 178 646 108 583 q 364 708 249 708 q 544 647 479 708 q 608 475 608 585 l 608 308 l 171 285 l 171 185 q 222 72 171 106 q 339 38 274 38 q 549 97 439 38 l 574 49 m 171 471 l 171 346 l 546 365 l 546 482 q 489 615 546 575 q 356 654 432 654 q 226 610 281 654 q 171 471 171 565 m 163 949 l 206 993 l 367 839 l 522 993 l 565 949 l 368 753 l 163 949 z "},"Ĝ":{"ha":746,"x_min":90,"x_max":661,"o":"m 153 704 l 153 260 q 217 103 153 161 q 385 46 281 46 q 545 106 489 46 q 601 257 601 165 l 601 356 l 492 356 l 469 417 l 661 417 l 661 0 l 614 0 l 600 76 q 383 -14 532 -14 q 176 56 261 -14 q 90 263 90 125 l 90 699 q 211 950 90 876 q 360 985 274 985 q 557 939 467 985 l 539 894 q 385 929 460 928 q 153 704 153 929 m 186 1072 l 392 1268 l 589 1072 l 544 1028 l 390 1182 l 229 1028 l 186 1072 z "},"ĝ":{"ha":682,"x_min":108,"x_max":632,"o":"m 175 806 l 381 1001 l 578 806 l 533 761 l 379 915 l 218 761 l 175 806 m 574 613 l 569 696 l 632 696 l 632 -89 q 597 -219 632 -172 q 483 -292 563 -267 l 467 -243 q 569 -87 569 -204 l 569 90 q 374 -17 504 -17 q 176 50 244 -17 q 108 244 108 117 l 108 451 q 181 641 108 574 q 381 708 253 708 q 574 613 510 708 m 171 444 l 171 232 q 223 91 171 140 q 361 42 275 42 q 508 91 447 42 q 569 235 569 140 l 569 492 q 504 613 561 574 q 369 651 447 651 q 231 603 292 651 q 171 444 171 556 z "},"Ğ":{"ha":746,"x_min":90,"x_max":661,"o":"m 153 704 l 153 260 q 217 103 153 161 q 385 46 281 46 q 545 106 489 46 q 601 257 601 165 l 601 356 l 492 356 l 469 417 l 661 417 l 661 0 l 614 0 l 600 76 q 383 -14 532 -14 q 176 56 261 -14 q 90 263 90 125 l 90 699 q 211 950 90 876 q 360 985 274 985 q 557 939 467 985 l 539 894 q 385 929 460 928 q 153 704 153 929 m 226 1175 l 279 1175 l 279 1168 q 309 1094 279 1126 q 383 1063 339 1063 q 458 1094 428 1063 q 488 1168 488 1126 l 488 1175 l 540 1175 l 540 1168 q 494 1057 540 1103 q 383 1011 447 1011 q 273 1057 319 1011 q 226 1168 226 1103 l 226 1175 z "},"ğ":{"ha":681,"x_min":108,"x_max":632,"o":"m 235 903 l 288 903 l 288 896 q 317 822 288 854 q 391 790 346 790 q 466 822 436 790 q 496 896 496 854 l 496 903 l 549 903 l 549 896 q 502 785 549 831 q 392 739 456 739 q 281 785 328 739 q 235 896 235 831 l 235 903 m 574 613 l 569 696 l 632 696 l 632 -89 q 597 -219 632 -172 q 483 -292 563 -267 l 467 -243 q 569 -87 569 -204 l 569 90 q 374 -17 504 -17 q 176 50 244 -17 q 108 244 108 117 l 108 451 q 181 641 108 574 q 381 708 253 708 q 574 613 510 708 m 171 444 l 171 232 q 223 91 171 140 q 361 42 275 42 q 508 91 447 42 q 569 235 569 140 l 569 492 q 504 613 561 574 q 369 651 447 651 q 231 603 292 651 q 171 444 171 556 z "},"Ġ":{"ha":786,"x_min":103,"x_max":688,"o":"m 103 974 l 165 974 l 165 250 q 233 100 165 153 q 396 47 301 47 q 558 100 490 47 q 625 250 625 153 l 625 974 l 688 974 l 688 258 q 662 131 688 185 q 592 47 636 76 q 500 4 549 18 q 396 -10 451 -10 q 291 4 340 -10 q 198 47 242 18 q 128 131 154 76 q 103 258 103 185 l 103 974 m 378 1041 q 373 1047 378 1041 q 367 1068 367 1053 q 378 1094 367 1083 q 406 1106 390 1106 q 432 1094 421 1106 q 443 1068 443 1083 q 432 1041 443 1053 q 406 1029 421 1029 q 378 1041 390 1029 z "},"ġ":{"ha":681,"x_min":108,"x_max":632,"o":"m 360 774 q 355 780 360 774 q 349 801 349 786 q 360 828 349 817 q 388 839 372 839 q 414 828 403 839 q 425 801 425 817 q 414 774 425 786 q 388 763 403 763 q 360 774 372 763 m 574 613 l 569 696 l 632 696 l 632 -89 q 597 -219 632 -172 q 483 -292 563 -267 l 467 -243 q 569 -87 569 -204 l 569 90 q 374 -17 504 -17 q 176 50 244 -17 q 108 244 108 117 l 108 451 q 181 641 108 574 q 381 708 253 708 q 574 613 510 708 m 171 444 l 171 232 q 223 91 171 140 q 361 42 275 42 q 508 91 447 42 q 569 235 569 140 l 569 492 q 504 613 561 574 q 369 651 447 651 q 231 603 292 651 q 171 444 171 556 z "},"Ģ":{"ha":746,"x_min":90,"x_max":661,"o":"m 153 704 l 153 260 q 217 103 153 161 q 385 46 281 46 q 545 106 489 46 q 601 257 601 165 l 601 356 l 492 356 l 469 417 l 661 417 l 661 0 l 614 0 l 600 76 q 383 -14 532 -14 q 176 56 261 -14 q 90 263 90 125 l 90 699 q 211 950 90 876 q 360 985 274 985 q 557 939 467 985 l 539 894 q 385 929 460 928 q 153 704 153 929 m 374 -142 l 364 -139 q 341 -103 340 -125 q 352 -72 342 -82 q 371 -62 363 -62 q 388 -63 379 -62 q 408 -77 396 -64 q 421 -106 421 -90 q 332 -256 421 -182 l 288 -224 q 340 -186 318 -207 q 374 -142 361 -165 z "},"ģ":{"ha":681,"x_min":108,"x_max":632,"o":"m 574 613 l 569 696 l 632 696 l 632 -89 q 597 -219 632 -172 q 483 -292 563 -267 l 467 -243 q 569 -87 569 -204 l 569 90 q 374 -17 504 -17 q 176 50 244 -17 q 108 244 108 117 l 108 451 q 181 641 108 574 q 381 708 253 708 q 574 613 510 708 m 171 444 l 171 232 q 223 91 171 140 q 361 42 275 42 q 508 91 447 42 q 569 235 569 140 l 569 492 q 504 613 561 574 q 369 651 447 651 q 231 603 292 651 q 171 444 171 556 m 368 846 l 378 843 q 401 808 401 829 q 390 776 400 786 q 371 767 379 767 q 354 767 363 767 q 333 781 346 768 q 321 810 321 794 q 410 960 321 886 l 454 928 q 402 890 424 911 q 368 846 381 869 z "},"Ĥ":{"ha":817,"x_min":108,"x_max":706,"o":"m 108 972 l 171 972 l 171 574 l 643 574 l 643 972 l 706 972 l 706 0 l 643 0 l 643 513 l 171 513 l 171 0 l 108 0 l 108 972 m 207 1072 l 413 1268 l 610 1072 l 565 1028 l 411 1182 l 250 1028 l 207 1072 z "},"ĥ":{"ha":804,"x_min":43,"x_max":721,"o":"m 43 1076 l 249 1272 l 446 1076 l 401 1032 l 247 1186 l 86 1032 l 43 1076 m 271 603 l 271 0 l 208 0 l 208 972 l 271 972 l 271 658 q 469 707 349 707 q 603 681 549 707 q 721 481 721 626 l 721 0 l 660 0 l 660 478 q 618 597 660 554 q 464 651 568 651 q 271 603 360 651 z "},"Ħ":{"ha":951,"x_min":108,"x_max":840,"o":"m 108 747 l 176 747 l 176 972 l 239 972 l 239 747 l 711 747 l 711 972 l 774 972 l 774 747 l 840 747 l 840 686 l 774 686 l 774 0 l 711 0 l 711 513 l 239 513 l 239 0 l 176 0 l 176 686 l 108 686 l 108 747 m 239 574 l 711 574 l 711 686 l 239 686 l 239 574 z "},"ħ":{"ha":756,"x_min":108,"x_max":707,"o":"m 257 603 l 257 0 l 194 0 l 194 796 l 108 796 l 108 857 l 194 857 l 194 972 l 257 972 l 257 857 l 433 857 l 433 796 l 257 796 l 257 658 q 456 707 335 707 q 589 681 535 707 q 707 481 707 626 l 707 0 l 646 0 l 646 478 q 604 597 646 554 q 450 651 554 651 q 257 603 346 651 z "},"Ĩ":{"ha":678,"x_min":108,"x_max":567,"o":"m 226 972 l 389 972 l 389 0 l 326 0 l 326 914 l 226 917 l 226 972 m 244 1085 q 138 1032 186 1085 l 108 1076 q 247 1149 174 1149 q 375 1106 281 1149 q 440 1090 407 1090 q 539 1138 496 1090 l 567 1092 q 439 1026 507 1026 q 378 1040 411 1026 q 312 1069 346 1054 q 244 1085 278 1085 z "},"ĩ":{"ha":615,"x_min":108,"x_max":567,"o":"m 244 808 q 138 756 186 808 l 108 800 q 247 872 174 872 q 375 829 281 872 q 440 814 407 814 q 539 861 496 814 l 567 815 q 439 750 507 750 q 378 764 411 750 q 312 793 346 778 q 244 808 278 808 m 301 696 l 364 696 l 364 0 l 301 0 l 301 696 z "},"Ī":{"ha":519,"x_min":108,"x_max":408,"o":"m 169 972 l 332 972 l 332 0 l 269 0 l 269 914 l 169 917 l 169 972 m 108 1094 l 408 1094 l 408 1031 l 108 1031 l 108 1094 z "},"ī":{"ha":458,"x_min":108,"x_max":410,"o":"m 108 828 l 410 828 l 410 764 l 108 764 l 108 828 m 233 696 l 296 696 l 296 0 l 233 0 l 233 696 z "},"Į":{"ha":482,"x_min":108,"x_max":371,"o":"m 308 0 q 165 -179 165 -114 q 183 -223 165 -204 q 233 -242 201 -242 q 328 -183 292 -242 l 371 -226 q 236 -296 326 -296 q 169 -281 200 -296 q 108 -181 108 -251 q 242 0 108 -87 l 244 0 l 244 914 l 144 917 l 144 972 l 307 972 l 307 0 l 308 0 z "},"į":{"ha":368,"x_min":-8,"x_max":254,"o":"m 192 0 q 49 -179 49 -114 q 67 -223 49 -204 q 117 -242 85 -242 q 211 -183 175 -242 l 254 -226 q 119 -296 210 -296 q 53 -281 83 -296 q -8 -181 -8 -251 q 125 0 -8 -87 l 128 0 l 128 696 l 190 696 l 190 0 l 192 0 m 133 922 q 127 927 133 922 q 121 949 121 933 q 133 975 121 964 q 160 986 144 986 q 186 975 175 986 q 197 949 197 964 q 186 922 197 933 q 160 910 175 910 q 133 922 144 910 z "},"İ":{"ha":389,"x_min":108,"x_max":278,"o":"m 108 972 l 271 972 l 271 0 l 208 0 l 208 914 l 108 917 l 108 972 m 213 1042 q 207 1048 213 1042 q 201 1069 201 1054 q 213 1096 201 1085 q 240 1107 225 1107 q 267 1096 256 1107 q 278 1069 278 1085 q 267 1042 278 1054 q 240 1031 256 1031 q 213 1042 225 1031 z "},"ı":{"ha":179,"x_min":57,"x_max":119,"o":"m 57 696 l 119 696 l 119 0 l 57 0 l 57 696 z "},"Ĵ":{"ha":361,"x_min":-3,"x_max":311,"o":"m 29 972 l 192 972 l 192 165 q 26 -51 192 -43 l 11 -8 q 94 33 60 -6 q 129 160 129 72 l 129 914 l 29 917 l 29 972 m -3 1175 l 50 1175 l 50 1168 q 79 1094 50 1126 q 153 1063 108 1063 q 228 1094 199 1063 q 258 1168 258 1126 l 258 1175 l 311 1175 l 311 1168 q 265 1057 311 1103 q 154 1011 219 1011 q 43 1057 89 1011 q -3 1168 -3 1103 l -3 1175 z "},"ĵ":{"ha":560,"x_min":108,"x_max":511,"o":"m 108 806 l 314 1001 l 511 806 l 467 761 l 313 915 l 151 761 l 108 806 m 175 696 l 339 696 l 339 -107 q 294 -234 336 -182 q 175 -290 251 -286 l 167 -242 q 201 -231 178 -242 q 239 -204 225 -219 q 278 -89 278 -164 l 278 635 l 203 638 l 175 696 z "},"Ķ":{"ha":661,"x_min":110,"x_max":661,"o":"m 110 974 l 172 974 l 172 485 l 517 974 l 589 974 l 299 561 l 661 0 l 588 0 l 260 503 l 172 378 l 172 0 l 110 0 l 110 974 m 358 -142 l 349 -139 q 326 -103 325 -125 q 337 -72 326 -82 q 356 -62 347 -62 q 372 -63 364 -62 q 393 -77 381 -64 q 406 -106 406 -90 q 317 -256 406 -182 l 272 -224 q 324 -186 303 -207 q 358 -142 346 -165 z "},"ķ":{"ha":619,"x_min":93,"x_max":603,"o":"m 93 972 l 156 972 l 156 451 l 449 722 l 493 679 l 292 500 q 603 0 388 340 l 528 0 l 247 461 l 156 379 l 156 0 l 93 0 l 93 972 m 325 -142 l 315 -139 q 292 -103 292 -125 q 303 -72 293 -82 q 322 -62 314 -62 q 339 -63 331 -62 q 360 -77 347 -64 q 372 -106 372 -90 q 283 -256 372 -182 l 239 -224 q 291 -186 269 -207 q 325 -142 313 -165 z "},"ĸ":{"ha":669,"x_min":108,"x_max":622,"o":"m 108 711 l 171 696 l 171 351 l 486 696 l 569 696 l 307 410 l 483 161 q 619 54 563 54 l 622 -1 q 517 38 561 0 q 419 147 472 75 l 264 363 l 171 267 l 171 0 l 108 0 l 108 711 z "},"Ĺ":{"ha":611,"x_min":108,"x_max":610,"o":"m 108 972 l 171 972 l 171 57 l 610 57 l 610 0 l 108 0 l 108 972 m 113 1014 l 185 1182 q 221 1210 197 1210 q 261 1183 254 1210 q 264 1168 264 1176 q 257 1150 264 1160 l 163 1014 l 113 1014 z "},"ĺ":{"ha":381,"x_min":113,"x_max":272,"o":"m 113 972 l 175 972 l 175 0 l 113 0 l 113 972 m 121 1019 l 193 1188 q 229 1215 206 1215 q 269 1189 263 1215 q 272 1174 272 1182 q 265 1156 272 1165 l 171 1019 l 121 1019 z "},"Ļ":{"ha":611,"x_min":108,"x_max":610,"o":"m 108 972 l 171 972 l 171 57 l 610 57 l 610 0 l 108 0 l 108 972 m 374 -142 l 364 -139 q 341 -103 340 -125 q 352 -72 342 -82 q 371 -62 363 -62 q 388 -63 379 -62 q 408 -77 396 -64 q 421 -106 421 -90 q 332 -256 421 -182 l 288 -224 q 340 -186 318 -207 q 374 -142 361 -165 z "},"ļ":{"ha":354,"x_min":108,"x_max":242,"o":"m 165 972 l 228 972 l 228 0 l 165 0 l 165 972 m 194 -142 l 185 -139 q 162 -103 161 -125 q 173 -72 163 -82 q 192 -62 183 -62 q 208 -63 200 -62 q 229 -77 217 -64 q 242 -106 242 -90 q 153 -256 242 -182 l 108 -224 q 160 -186 139 -207 q 194 -142 182 -165 z "},"Ľ":{"ha":621,"x_min":-47,"x_max":619,"o":"m 118 972 l 181 972 l 181 57 l 619 57 l 619 0 l 118 0 l 118 972 m -47 1215 l -4 1260 l 157 1106 l 313 1260 l 356 1215 l 158 1019 l -47 1215 z "},"ľ":{"ha":285,"x_min":-53,"x_max":350,"o":"m 117 972 l 179 972 l 179 0 l 117 0 l 117 972 m -53 1215 l -10 1260 l 151 1106 l 307 1260 l 350 1215 l 153 1019 l -53 1215 z "},"Ł":{"ha":829,"x_min":108,"x_max":781,"o":"m 279 972 l 342 972 l 342 601 l 513 679 l 538 624 l 342 535 l 342 57 l 781 57 l 781 0 l 279 0 l 279 507 l 132 442 l 108 497 l 279 574 l 279 972 z "},"ł":{"ha":586,"x_min":108,"x_max":538,"o":"m 192 972 l 354 972 l 354 607 l 513 679 l 538 624 l 354 540 l 354 0 l 292 0 l 292 513 l 132 442 l 108 497 l 292 579 l 292 914 l 192 917 l 192 972 z "},"Ń":{"ha":903,"x_min":108,"x_max":792,"o":"m 108 972 l 171 972 l 731 114 l 731 972 l 792 972 l 792 0 l 731 0 l 171 860 l 171 0 l 108 0 l 108 972 m 386 1014 l 458 1182 q 494 1210 471 1210 q 536 1183 528 1210 q 538 1168 538 1176 q 531 1150 538 1160 l 436 1014 l 386 1014 z "},"ń":{"ha":669,"x_min":108,"x_max":621,"o":"m 367 650 q 171 603 258 650 l 171 0 l 108 0 l 108 696 l 171 696 l 171 658 q 369 707 249 707 q 503 681 449 707 q 621 481 621 626 l 621 0 l 560 0 l 560 478 q 517 597 560 553 q 414 647 475 640 q 367 650 390 650 m 321 747 l 393 915 q 429 943 406 943 q 469 917 463 943 q 472 901 472 910 q 465 883 472 893 l 371 747 l 321 747 z "},"Ņ":{"ha":903,"x_min":108,"x_max":792,"o":"m 108 972 l 171 972 l 731 114 l 731 972 l 792 972 l 792 0 l 731 0 l 171 860 l 171 0 l 108 0 l 108 972 m 475 -142 l 465 -139 q 442 -103 442 -125 q 453 -72 443 -82 q 472 -62 464 -62 q 489 -63 481 -62 q 510 -77 497 -64 q 522 -106 522 -90 q 433 -256 522 -182 l 389 -224 q 441 -186 419 -207 q 475 -142 463 -165 z "},"ņ":{"ha":694,"x_min":89,"x_max":601,"o":"m 347 650 q 151 603 239 650 l 151 0 l 89 0 l 89 696 l 151 696 l 151 658 q 350 707 229 707 q 483 681 429 707 q 601 481 601 626 l 601 0 l 540 0 l 540 478 q 498 597 540 553 q 394 647 456 640 q 347 650 371 650 m 342 -142 l 332 -139 q 309 -103 308 -125 q 320 -72 310 -82 q 339 -62 331 -62 q 356 -63 347 -62 q 376 -77 364 -64 q 389 -106 389 -90 q 300 -256 389 -182 l 256 -224 q 308 -186 286 -207 q 342 -142 329 -165 z "},"Ň":{"ha":903,"x_min":108,"x_max":792,"o":"m 108 972 l 171 972 l 731 114 l 731 972 l 792 972 l 792 0 l 731 0 l 171 860 l 171 0 l 108 0 l 108 972 m 256 1215 l 299 1260 l 460 1106 l 615 1260 l 658 1215 l 461 1019 l 256 1215 z "},"ň":{"ha":669,"x_min":108,"x_max":621,"o":"m 367 650 q 171 603 258 650 l 171 0 l 108 0 l 108 696 l 171 696 l 171 658 q 369 707 249 707 q 503 681 449 707 q 621 481 621 626 l 621 0 l 560 0 l 560 478 q 517 597 560 553 q 414 647 475 640 q 367 650 390 650 m 182 1018 l 225 1063 l 386 908 l 542 1063 l 585 1018 l 388 822 l 182 1018 z "},"Ŋ":{"ha":904,"x_min":108,"x_max":793,"o":"m 629 972 l 793 972 l 793 165 q 626 -51 793 -43 q 611 -8 621 -32 q 701 43 672 -3 q 171 860 524 315 l 171 0 l 108 0 l 108 972 l 171 972 q 411 603 206 919 q 726 119 617 286 q 729 188 729 139 l 729 914 l 629 917 l 629 972 z "},"ŋ":{"ha":696,"x_min":89,"x_max":603,"o":"m 347 650 q 151 603 239 650 l 151 0 l 89 0 l 89 696 l 151 696 l 151 658 q 350 707 229 707 q 483 681 429 707 q 601 465 600 628 l 603 467 l 603 -107 q 558 -234 600 -182 q 439 -290 515 -286 l 431 -242 q 465 -230 442 -242 q 502 -203 488 -218 q 528 -156 517 -187 q 540 -85 540 -125 l 540 478 q 498 597 540 553 q 394 647 456 640 q 347 650 371 650 z "},"Ō":{"ha":763,"x_min":88,"x_max":671,"o":"m 88 257 l 88 704 q 166 921 88 847 q 382 994 244 994 q 595 917 519 994 q 671 703 671 839 l 671 257 q 585 51 671 117 q 381 -15 500 -15 q 174 51 261 -15 q 88 257 88 117 m 150 714 l 150 257 q 216 98 150 151 q 381 44 282 44 q 544 97 479 44 q 610 258 610 149 l 610 714 q 548 878 610 821 q 379 935 486 935 q 211 878 272 935 q 150 714 150 821 m 222 1094 l 524 1094 l 524 1031 l 222 1031 l 222 1094 z "},"ō":{"ha":675,"x_min":108,"x_max":626,"o":"m 108 256 l 108 439 q 176 641 108 571 q 367 711 243 711 q 558 638 490 711 q 626 439 626 565 l 626 256 q 563 63 626 139 q 369 -14 499 -14 q 174 63 240 -14 q 108 256 108 140 m 171 440 l 171 246 q 223 99 171 157 q 369 42 275 42 q 514 99 464 42 q 564 246 564 156 l 564 440 q 510 601 564 549 q 368 654 457 654 q 225 602 279 654 q 171 440 171 550 m 217 828 l 517 828 l 517 764 l 217 764 l 217 828 z "},"Ő":{"ha":763,"x_min":88,"x_max":671,"o":"m 88 257 l 88 704 q 166 921 88 847 q 382 994 244 994 q 595 917 519 994 q 671 703 671 839 l 671 257 q 585 51 671 117 q 381 -15 500 -15 q 174 51 261 -15 q 88 257 88 117 m 150 714 l 150 257 q 216 98 150 151 q 381 44 282 44 q 544 97 479 44 q 610 258 610 149 l 610 714 q 548 878 610 821 q 379 935 486 935 q 211 878 272 935 q 150 714 150 821 m 418 1015 l 490 1183 q 526 1211 503 1211 q 567 1183 560 1211 q 569 1169 569 1178 q 563 1151 569 1161 l 468 1015 l 418 1015 m 263 1015 l 335 1183 q 371 1211 347 1211 q 411 1183 404 1211 q 414 1169 414 1178 q 407 1151 414 1161 l 313 1015 l 263 1015 z "},"ő":{"ha":675,"x_min":108,"x_max":626,"o":"m 108 256 l 108 439 q 176 641 108 571 q 367 711 243 711 q 558 638 490 711 q 626 439 626 565 l 626 256 q 563 63 626 139 q 369 -14 499 -14 q 174 63 240 -14 q 108 256 108 140 m 171 440 l 171 246 q 223 99 171 157 q 369 42 275 42 q 514 99 464 42 q 564 246 564 156 l 564 440 q 510 601 564 549 q 368 654 457 654 q 225 602 279 654 q 171 440 171 550 m 400 754 l 472 922 q 508 950 485 950 q 550 922 542 950 q 551 908 551 917 q 544 890 551 900 l 450 754 l 400 754 m 244 754 l 317 922 q 353 950 329 950 q 394 922 386 950 q 396 908 396 917 q 389 890 396 900 l 294 754 l 244 754 z "},"Œ":{"ha":1142,"x_min":108,"x_max":1093,"o":"m 629 972 l 1093 972 l 1093 914 l 692 914 l 692 574 l 972 574 l 951 513 l 692 513 l 692 57 l 1090 57 l 1090 0 l 629 0 l 629 72 q 401 -15 551 -15 q 195 51 282 -15 q 108 257 108 117 l 108 704 q 187 921 108 847 q 409 994 265 994 q 629 903 553 994 l 629 972 m 171 714 l 171 257 q 237 98 171 151 q 398 44 303 44 q 557 90 493 44 q 629 229 621 135 l 629 744 q 559 885 619 836 q 396 935 499 935 q 232 878 293 935 q 171 714 171 821 z "},"œ":{"ha":1099,"x_min":108,"x_max":1050,"o":"m 1015 49 q 768 -17 908 -17 q 576 96 628 -17 q 373 -14 508 -14 q 173 63 238 -14 q 108 256 108 140 l 108 439 q 175 641 108 571 q 367 711 242 711 q 499 677 443 711 q 585 583 556 643 q 808 708 650 708 q 986 647 922 708 q 1050 475 1050 585 l 1050 308 l 619 285 l 619 186 q 670 72 619 106 q 783 38 721 38 q 990 97 881 38 l 1015 49 m 171 439 l 171 242 q 224 97 171 150 q 366 43 278 43 q 505 96 454 43 q 556 235 556 149 l 556 446 q 503 602 556 550 q 364 654 451 654 q 224 602 276 654 q 171 439 171 550 m 619 469 l 619 347 l 988 364 l 988 485 q 931 615 988 576 q 801 654 875 654 q 673 607 726 654 q 619 469 619 560 z "},"Ŕ":{"ha":783,"x_min":108,"x_max":713,"o":"m 108 972 l 447 972 q 646 892 581 972 q 711 675 711 811 q 569 378 711 440 l 713 0 l 649 0 l 510 358 q 460 356 479 356 l 171 356 l 171 0 l 108 0 l 108 972 m 171 913 l 171 417 l 454 417 q 649 675 649 417 q 597 852 649 792 q 450 913 544 913 l 171 913 m 315 1014 l 388 1182 q 424 1210 400 1210 q 464 1183 457 1210 q 467 1168 467 1176 q 460 1150 467 1160 l 365 1014 l 315 1014 z "},"ŕ":{"ha":504,"x_min":108,"x_max":456,"o":"m 108 696 l 171 696 l 168 640 q 351 708 236 708 q 456 696 399 708 l 439 638 q 353 653 397 653 q 264 639 310 653 q 171 547 171 613 l 171 0 l 108 0 l 108 696 m 192 747 l 264 915 q 300 943 276 943 q 342 917 333 943 q 343 901 343 910 q 336 883 343 893 l 242 747 l 192 747 z "},"Ŗ":{"ha":783,"x_min":108,"x_max":713,"o":"m 108 972 l 447 972 q 646 892 581 972 q 711 675 711 811 q 569 378 711 440 l 713 0 l 649 0 l 510 358 q 460 356 479 356 l 171 356 l 171 0 l 108 0 l 108 972 m 171 913 l 171 417 l 454 417 q 649 675 649 417 q 597 852 649 792 q 450 913 544 913 l 171 913 m 388 -142 l 378 -139 q 355 -103 354 -125 q 366 -72 356 -82 q 385 -62 376 -62 q 401 -63 393 -62 q 422 -77 410 -64 q 435 -106 435 -90 q 346 -256 435 -182 l 301 -224 q 353 -186 332 -207 q 388 -142 375 -165 z "},"ŗ":{"ha":482,"x_min":85,"x_max":432,"o":"m 85 696 l 147 696 l 144 640 q 328 708 213 708 q 432 696 375 708 l 415 638 q 328 653 372 653 q 240 639 285 653 q 147 547 147 613 l 147 0 l 85 0 l 85 696 m 193 -142 l 183 -139 q 160 -103 160 -125 q 172 -72 161 -82 q 190 -62 182 -62 q 207 -63 199 -62 q 228 -77 215 -64 q 240 -106 240 -90 q 151 -256 240 -182 l 107 -224 q 159 -186 138 -207 q 193 -142 181 -165 z "},"Ř":{"ha":783,"x_min":108,"x_max":713,"o":"m 108 972 l 447 972 q 646 892 581 972 q 711 675 711 811 q 569 378 711 440 l 713 0 l 649 0 l 510 358 q 460 356 479 356 l 171 356 l 171 0 l 108 0 l 108 972 m 171 913 l 171 417 l 454 417 q 649 675 649 417 q 597 852 649 792 q 450 913 544 913 l 171 913 m 190 1215 l 233 1260 l 394 1106 l 550 1260 l 593 1215 l 396 1019 l 190 1215 z "},"ř":{"ha":560,"x_min":108,"x_max":511,"o":"m 110 696 l 172 696 l 169 640 q 353 708 238 708 q 457 696 400 708 l 440 638 q 353 653 397 653 q 265 639 310 653 q 172 547 172 613 l 172 0 l 110 0 l 110 696 m 108 1018 l 151 1063 l 313 908 l 468 1063 l 511 1018 l 314 822 l 108 1018 z "},"Ś":{"ha":779,"x_min":51,"x_max":711,"o":"m 51 247 l 115 247 q 192 107 121 169 q 378 44 263 44 q 569 96 493 44 q 644 260 644 147 q 602 372 644 325 q 497 442 560 418 q 360 492 435 465 q 224 546 286 519 q 119 624 161 572 q 76 747 76 675 q 157 915 76 844 q 389 986 238 986 q 592 944 504 986 l 572 885 q 387 925 493 925 q 211 878 281 925 q 142 743 142 831 q 184 647 142 688 q 290 584 226 606 q 426 535 353 563 q 563 480 500 508 q 669 396 626 451 q 711 264 711 340 q 630 60 711 136 q 388 -15 549 -15 q 141 65 228 -15 q 51 247 54 144 m 333 1021 l 406 1189 q 442 1217 418 1217 q 483 1189 475 1217 q 485 1175 485 1183 q 478 1157 485 1167 l 383 1021 l 333 1021 z "},"ś":{"ha":617,"x_min":68,"x_max":568,"o":"m 478 672 l 456 619 q 325 656 403 656 q 197 622 247 657 q 147 529 147 588 q 195 442 147 472 q 303 394 243 413 q 424 355 364 376 q 526 288 485 333 q 568 167 568 243 q 506 35 568 90 q 326 -21 444 -21 q 139 36 207 -21 q 68 176 71 93 l 128 176 q 191 74 136 111 q 322 38 246 38 q 451 72 397 38 q 506 166 506 107 q 465 260 506 225 q 365 313 425 294 q 246 351 306 332 q 140 410 186 371 q 86 524 86 456 q 141 653 86 593 q 322 713 196 713 q 404 702 365 713 q 461 682 443 692 l 478 672 m 271 747 l 343 915 q 379 943 356 943 q 419 917 413 943 q 422 901 422 910 q 415 883 422 893 l 321 747 l 271 747 z "},"Ŝ":{"ha":779,"x_min":51,"x_max":711,"o":"m 51 247 l 115 247 q 192 107 121 169 q 378 44 263 44 q 569 96 493 44 q 644 260 644 147 q 602 372 644 325 q 497 442 560 418 q 360 492 435 465 q 224 546 286 519 q 119 624 161 572 q 76 747 76 675 q 157 915 76 844 q 389 986 238 986 q 592 944 504 986 l 572 885 q 387 925 493 925 q 211 878 281 925 q 142 743 142 831 q 184 647 142 688 q 290 584 226 606 q 426 535 353 563 q 563 480 500 508 q 669 396 626 451 q 711 264 711 340 q 630 60 711 136 q 388 -15 549 -15 q 141 65 228 -15 q 51 247 54 144 m 193 1072 l 399 1268 l 596 1072 l 551 1028 l 397 1182 l 236 1028 l 193 1072 z "},"ŝ":{"ha":657,"x_min":108,"x_max":608,"o":"m 161 806 l 367 1001 l 564 806 l 519 761 l 365 915 l 204 761 l 161 806 m 518 672 l 496 619 q 365 656 443 656 q 238 622 288 657 q 188 529 188 588 q 235 442 188 472 q 344 394 283 413 q 465 355 404 376 q 567 288 525 333 q 608 167 608 243 q 547 35 608 90 q 366 -21 485 -21 q 179 36 247 -21 q 108 176 111 93 l 168 176 q 231 74 176 111 q 362 38 286 38 q 492 72 438 38 q 546 166 546 107 q 506 260 546 225 q 406 313 465 294 q 286 351 346 332 q 181 410 226 371 q 126 524 126 456 q 181 653 126 593 q 363 713 236 713 q 444 702 406 713 q 500 682 483 692 l 518 672 z "},"ş":{"ha":599,"x_min":50,"x_max":550,"o":"m 460 672 l 438 619 q 307 656 385 656 q 179 622 229 657 q 129 529 129 588 q 177 442 129 472 q 285 394 225 413 q 406 355 346 376 q 508 288 467 333 q 550 168 550 243 q 492 38 550 93 q 321 -21 433 -17 l 281 -76 q 341 -65 300 -65 q 417 -91 382 -65 q 453 -176 453 -117 q 401 -263 453 -235 q 288 -292 350 -292 q 153 -265 225 -292 l 181 -206 q 281 -239 229 -239 q 363 -221 332 -239 q 394 -167 394 -203 q 360 -115 394 -131 q 323 -108 344 -108 q 272 -119 301 -108 l 222 -140 l 203 -108 l 272 -19 q 111 44 169 -11 q 50 176 53 100 l 110 176 q 173 74 118 111 q 303 38 228 38 q 433 72 379 38 q 488 166 488 107 q 447 260 488 225 q 347 313 407 294 q 228 351 288 332 q 122 410 168 371 q 68 524 68 456 q 123 653 68 593 q 304 713 178 713 q 386 702 347 713 q 442 682 425 692 l 460 672 z "},"Š":{"ha":779,"x_min":51,"x_max":711,"o":"m 51 247 l 115 247 q 192 107 121 169 q 378 44 263 44 q 569 96 493 44 q 644 260 644 147 q 602 372 644 325 q 497 442 560 418 q 360 492 435 465 q 224 546 286 519 q 119 624 161 572 q 76 747 76 675 q 157 915 76 844 q 389 986 238 986 q 592 944 504 986 l 572 885 q 387 925 493 925 q 211 878 281 925 q 142 743 142 831 q 184 647 142 688 q 290 584 226 606 q 426 535 353 563 q 563 480 500 508 q 669 396 626 451 q 711 264 711 340 q 630 60 711 136 q 388 -15 549 -15 q 141 65 228 -15 q 51 247 54 144 m 214 1285 l 257 1329 l 418 1175 l 574 1329 l 617 1285 l 419 1089 l 214 1285 z "},"š":{"ha":657,"x_min":108,"x_max":608,"o":"m 518 672 l 496 619 q 365 656 443 656 q 238 622 288 657 q 188 529 188 588 q 235 442 188 472 q 344 394 283 413 q 465 355 404 376 q 567 288 525 333 q 608 167 608 243 q 547 35 608 90 q 366 -21 485 -21 q 179 36 247 -21 q 108 176 111 93 l 168 176 q 231 74 176 111 q 362 38 286 38 q 492 72 438 38 q 546 166 546 107 q 506 260 546 225 q 406 313 465 294 q 286 351 346 332 q 181 410 226 371 q 126 524 126 456 q 181 653 126 593 q 363 713 236 713 q 444 702 406 713 q 500 682 483 692 l 518 672 m 196 1017 l 239 1061 l 400 907 l 556 1061 l 599 1017 l 401 821 l 196 1017 z "},"Ţ":{"ha":558,"x_min":0,"x_max":558,"o":"m 0 972 l 558 972 l 558 915 l 307 915 l 307 0 l 244 0 l 244 915 l 0 915 l 0 972 m 276 -142 l 267 -139 q 244 -103 243 -125 q 255 -72 244 -82 q 274 -62 265 -62 q 290 -63 282 -62 q 311 -77 299 -64 q 324 -106 324 -90 q 235 -256 324 -182 l 190 -224 q 242 -186 221 -207 q 276 -142 264 -165 z "},"ţ":{"ha":371,"x_min":61,"x_max":325,"o":"m 81 972 l 143 972 l 143 696 l 325 696 l 297 636 l 143 636 l 143 183 q 246 32 143 65 l 228 -18 q 115 53 150 4 q 81 183 81 101 l 81 972 m 147 -142 l 138 -139 q 115 -103 114 -125 q 126 -72 115 -82 q 144 -62 136 -62 q 161 -63 153 -62 q 182 -77 169 -64 q 194 -106 194 -90 q 106 -256 194 -182 l 61 -224 q 113 -186 92 -207 q 147 -142 135 -165 z "},"Ť":{"ha":558,"x_min":0,"x_max":558,"o":"m 0 972 l 558 972 l 558 915 l 307 915 l 307 0 l 244 0 l 244 915 l 0 915 l 0 972 m 75 1215 l 118 1260 l 279 1106 l 435 1260 l 478 1215 l 281 1019 l 75 1215 z "},"ť":{"ha":508,"x_min":-29,"x_max":389,"o":"m 144 972 l 207 972 l 207 696 l 389 696 l 361 636 l 207 636 l 207 183 q 310 32 207 65 l 292 -18 q 179 53 214 4 q 144 183 144 101 l 144 972 m -29 1215 l 14 1260 l 175 1106 l 331 1260 l 374 1215 l 176 1019 l -29 1215 z "},"Ŧ":{"ha":558,"x_min":0,"x_max":558,"o":"m 0 972 l 558 972 l 558 915 l 307 915 l 307 0 l 244 0 l 244 915 l 0 915 l 0 972 m 125 1094 l 426 1094 l 426 1031 l 125 1031 l 125 1094 z "},"ŧ":{"ha":499,"x_min":108,"x_max":450,"o":"m 108 497 l 206 497 l 206 972 l 268 972 l 268 696 l 450 696 l 422 636 l 268 636 l 268 497 l 433 497 l 433 436 l 268 436 l 268 183 q 371 32 268 65 l 353 -18 q 240 53 275 4 q 206 183 206 101 l 206 436 l 108 436 l 108 497 z "},"Ũ":{"ha":786,"x_min":103,"x_max":688,"o":"m 103 974 l 165 974 l 165 250 q 233 100 165 153 q 396 47 301 47 q 558 100 490 47 q 625 250 625 153 l 625 974 l 688 974 l 688 258 q 662 131 688 185 q 592 47 636 76 q 500 4 549 18 q 396 -10 451 -10 q 291 4 340 -10 q 198 47 242 18 q 128 131 154 76 q 103 258 103 185 l 103 974 m 303 1085 q 196 1032 244 1085 l 167 1076 q 306 1149 232 1149 q 433 1106 339 1149 q 499 1090 465 1090 q 597 1138 554 1090 l 625 1092 q 497 1026 565 1026 q 437 1040 469 1026 q 370 1069 404 1054 q 303 1085 336 1085 z "},"ũ":{"ha":675,"x_min":108,"x_max":626,"o":"m 108 696 l 171 696 l 171 233 q 369 42 171 42 q 511 88 458 42 q 564 226 564 135 l 564 696 l 626 696 l 626 0 l 565 0 l 569 82 q 369 -15 499 -15 q 108 240 108 -15 l 108 696 m 271 822 q 164 769 213 822 l 135 814 q 274 886 200 886 q 400 843 307 886 q 467 828 433 828 q 565 875 522 828 l 593 829 q 465 764 533 764 q 404 778 436 764 q 338 807 372 792 q 271 822 304 822 z "},"Ū":{"ha":786,"x_min":103,"x_max":688,"o":"m 103 974 l 165 974 l 165 250 q 233 100 165 153 q 396 47 301 47 q 558 100 490 47 q 625 250 625 153 l 625 974 l 688 974 l 688 258 q 662 131 688 185 q 592 47 636 76 q 500 4 549 18 q 396 -10 451 -10 q 291 4 340 -10 q 198 47 242 18 q 128 131 154 76 q 103 258 103 185 l 103 974 m 242 1094 l 543 1094 l 543 1031 l 242 1031 l 242 1094 z "},"ū":{"ha":675,"x_min":108,"x_max":626,"o":"m 108 696 l 171 696 l 171 233 q 369 42 171 42 q 511 88 458 42 q 564 226 564 135 l 564 696 l 626 696 l 626 0 l 565 0 l 569 82 q 369 -15 499 -15 q 108 240 108 -15 l 108 696 m 210 828 l 511 828 l 511 764 l 210 764 l 210 828 z "},"Ŭ":{"ha":786,"x_min":103,"x_max":688,"o":"m 103 974 l 165 974 l 165 250 q 233 100 165 153 q 396 47 301 47 q 558 100 490 47 q 625 250 625 153 l 625 974 l 688 974 l 688 258 q 662 131 688 185 q 592 47 636 76 q 500 4 549 18 q 396 -10 451 -10 q 291 4 340 -10 q 198 47 242 18 q 128 131 154 76 q 103 258 103 185 l 103 974 m 238 1169 l 290 1169 l 290 1163 q 320 1089 290 1121 q 394 1057 350 1057 q 469 1089 439 1057 q 499 1163 499 1121 l 499 1169 l 551 1169 l 551 1163 q 505 1051 551 1097 q 394 1006 458 1006 q 284 1051 331 1006 q 238 1163 238 1097 l 238 1169 z "},"ŭ":{"ha":675,"x_min":108,"x_max":626,"o":"m 218 907 l 271 907 l 271 900 q 301 826 271 858 q 375 794 331 794 q 449 826 419 794 q 479 900 479 858 l 479 907 l 532 907 l 532 900 q 485 790 532 836 q 375 743 439 743 q 265 790 311 743 q 218 900 218 836 l 218 907 m 108 696 l 171 696 l 171 233 q 369 42 171 42 q 511 88 458 42 q 564 226 564 135 l 564 696 l 626 696 l 626 0 l 565 0 l 569 82 q 369 -15 499 -15 q 108 240 108 -15 l 108 696 z "},"Ů":{"ha":786,"x_min":103,"x_max":688,"o":"m 103 974 l 165 974 l 165 250 q 233 100 165 153 q 396 47 301 47 q 558 100 490 47 q 625 250 625 153 l 625 974 l 688 974 l 688 258 q 662 131 688 185 q 592 47 636 76 q 500 4 549 18 q 396 -10 451 -10 q 291 4 340 -10 q 198 47 242 18 q 128 131 154 76 q 103 258 103 185 l 103 974 m 320 1144 q 305 1129 320 1144 q 290 1069 290 1114 q 320 995 290 1025 q 394 965 350 965 q 469 995 439 965 q 499 1069 499 1025 q 469 1144 499 1114 q 394 1174 439 1174 q 320 1144 350 1174 m 284 959 q 261 982 284 959 q 238 1069 238 1006 q 284 1180 238 1133 q 394 1226 331 1226 q 505 1180 458 1226 q 551 1069 551 1133 q 505 959 551 1006 q 394 913 458 913 q 284 959 331 913 z "},"ů":{"ha":675,"x_min":108,"x_max":626,"o":"m 108 696 l 171 696 l 171 233 q 369 42 171 42 q 511 88 458 42 q 564 226 564 135 l 564 696 l 626 696 l 626 0 l 565 0 l 569 82 q 369 -15 499 -15 q 108 240 108 -15 l 108 696 m 301 891 q 286 876 301 891 q 271 817 271 861 q 301 742 271 772 q 375 713 331 713 q 449 742 419 713 q 479 817 479 772 q 449 891 479 861 q 375 921 419 921 q 301 891 331 921 m 265 706 q 241 730 265 706 q 218 817 218 753 q 265 927 218 881 q 375 974 311 974 q 485 927 439 974 q 532 817 532 881 q 485 706 532 753 q 375 660 439 660 q 265 706 311 660 z "},"Ű":{"ha":786,"x_min":103,"x_max":688,"o":"m 103 974 l 165 974 l 165 250 q 233 100 165 153 q 396 47 301 47 q 558 100 490 47 q 625 250 625 153 l 625 974 l 688 974 l 688 258 q 662 131 688 185 q 592 47 636 76 q 500 4 549 18 q 396 -10 451 -10 q 291 4 340 -10 q 198 47 242 18 q 128 131 154 76 q 103 258 103 185 l 103 974 m 435 1015 l 507 1183 q 543 1211 519 1211 q 583 1183 576 1211 q 586 1169 586 1178 q 579 1151 586 1161 l 485 1015 l 435 1015 m 279 1015 l 351 1183 q 388 1211 364 1211 q 428 1183 421 1211 q 431 1169 431 1178 q 424 1151 431 1161 l 329 1015 l 279 1015 z "},"ű":{"ha":675,"x_min":108,"x_max":626,"o":"m 108 696 l 171 696 l 171 233 q 369 42 171 42 q 511 88 458 42 q 564 226 564 135 l 564 696 l 626 696 l 626 0 l 565 0 l 569 82 q 369 -15 499 -15 q 108 240 108 -15 l 108 696 m 400 754 l 472 922 q 508 950 485 950 q 550 922 542 950 q 551 908 551 917 q 544 890 551 900 l 450 754 l 400 754 m 244 754 l 317 922 q 353 950 329 950 q 394 922 386 950 q 396 908 396 917 q 389 890 396 900 l 294 754 l 244 754 z "},"Ų":{"ha":786,"x_min":103,"x_max":688,"o":"m 103 974 l 165 974 l 165 250 q 233 100 165 153 q 396 47 301 47 q 558 100 490 47 q 625 250 625 153 l 625 974 l 688 974 l 688 258 q 617 67 688 131 q 439 -7 546 3 q 306 -179 306 -115 q 324 -223 306 -204 q 374 -242 342 -242 q 468 -183 432 -242 l 511 -226 q 376 -296 467 -296 q 310 -281 340 -296 q 249 -181 249 -251 q 368 -8 249 -92 q 179 63 256 -1 q 103 258 103 126 l 103 974 z "},"ų":{"ha":669,"x_min":50,"x_max":631,"o":"m 568 0 q 425 -179 425 -114 q 443 -223 425 -204 q 493 -242 461 -242 q 588 -183 551 -242 l 631 -226 q 496 -296 586 -296 q 429 -281 460 -296 q 368 -181 368 -251 q 501 0 368 -87 l 507 0 l 511 82 q 311 -15 440 -15 q 50 240 50 -15 l 50 696 l 113 696 l 113 233 q 311 42 113 42 q 453 88 400 42 q 506 226 506 135 l 506 696 l 568 696 l 568 0 z "},"Ÿ":{"ha":772,"x_min":83,"x_max":700,"o":"m 83 972 l 146 972 l 146 621 q 214 458 146 515 q 387 401 282 401 q 557 442 492 401 q 636 557 622 483 l 636 972 l 700 972 l 700 213 q 554 -10 700 15 l 539 33 q 628 128 608 60 q 636 211 636 163 l 636 428 q 531 362 599 383 q 401 340 463 340 q 169 413 254 340 q 83 629 83 486 l 83 972 z "},"Ź":{"ha":764,"x_min":43,"x_max":719,"o":"m 61 972 l 711 972 l 711 915 l 122 57 l 719 57 l 719 0 l 43 0 l 43 57 l 632 915 l 61 915 l 61 972 m 378 1090 l 450 1258 q 486 1286 463 1286 q 528 1258 519 1286 q 529 1244 529 1253 q 522 1226 529 1236 l 428 1090 l 378 1090 z "},"ź":{"ha":667,"x_min":108,"x_max":618,"o":"m 121 696 l 589 696 l 589 639 l 185 57 l 618 57 l 618 0 l 108 0 l 108 57 l 510 639 l 121 639 l 121 696 m 311 747 l 383 915 q 419 943 396 943 q 461 917 453 943 q 463 901 463 910 q 456 883 463 893 l 361 747 l 311 747 z "},"Ż":{"ha":764,"x_min":43,"x_max":719,"o":"m 61 972 l 711 972 l 711 915 l 122 57 l 719 57 l 719 0 l 43 0 l 43 57 l 632 915 l 61 915 l 61 972 m 372 1037 q 366 1043 372 1037 q 360 1064 360 1049 q 372 1090 360 1079 q 399 1101 383 1101 q 425 1090 414 1101 q 436 1064 436 1079 q 425 1037 436 1049 q 399 1025 414 1025 q 372 1037 383 1025 z "},"ż":{"ha":667,"x_min":108,"x_max":618,"o":"m 121 696 l 589 696 l 589 639 l 185 57 l 618 57 l 618 0 l 108 0 l 108 57 l 510 639 l 121 639 l 121 696 m 334 772 q 328 777 334 772 q 322 799 322 783 q 334 825 322 814 q 361 836 346 836 q 388 825 376 836 q 399 799 399 814 q 388 772 399 783 q 361 760 376 760 q 334 772 346 760 z "},"Ž":{"ha":764,"x_min":43,"x_max":719,"o":"m 61 972 l 711 972 l 711 915 l 122 57 l 719 57 l 719 0 l 43 0 l 43 57 l 632 915 l 61 915 l 61 972 m 214 1285 l 257 1329 l 418 1175 l 574 1329 l 617 1285 l 419 1089 l 214 1285 z "},"ž":{"ha":667,"x_min":108,"x_max":618,"o":"m 121 696 l 589 696 l 589 639 l 185 57 l 618 57 l 618 0 l 108 0 l 108 57 l 510 639 l 121 639 l 121 696 m 165 1017 l 208 1061 l 369 907 l 525 1061 l 568 1017 l 371 821 l 165 1017 z "},"Ș":{"ha":779,"x_min":51,"x_max":711,"o":"m 51 247 l 115 247 q 192 107 121 169 q 378 44 263 44 q 569 96 493 44 q 644 260 644 147 q 602 372 644 325 q 497 442 560 418 q 360 492 435 465 q 224 546 286 519 q 119 624 161 572 q 76 747 76 675 q 157 915 76 844 q 389 986 238 986 q 592 944 504 986 l 572 885 q 387 925 493 925 q 211 878 281 925 q 142 743 142 831 q 184 647 142 688 q 290 584 226 606 q 426 535 353 563 q 563 480 500 508 q 669 396 626 451 q 711 264 711 340 q 630 60 711 136 q 388 -15 549 -15 q 141 65 228 -15 q 51 247 54 144 m 379 -142 l 369 -139 q 347 -103 346 -125 q 358 -72 347 -82 q 376 -62 368 -62 q 393 -63 385 -62 q 414 -77 401 -64 q 426 -106 426 -90 q 338 -256 426 -182 l 293 -224 q 345 -186 324 -207 q 379 -142 367 -165 z "},"ș":{"ha":599,"x_min":50,"x_max":550,"o":"m 460 672 l 438 619 q 307 656 385 656 q 179 622 229 657 q 129 529 129 588 q 177 442 129 472 q 285 394 225 413 q 406 355 346 376 q 508 288 467 333 q 550 167 550 243 q 488 35 550 90 q 308 -21 426 -21 q 121 36 189 -21 q 50 176 53 93 l 110 176 q 173 74 118 111 q 303 38 228 38 q 433 72 379 38 q 488 166 488 107 q 447 260 488 225 q 347 313 407 294 q 228 351 288 332 q 122 410 168 371 q 68 524 68 456 q 123 653 68 593 q 304 713 178 713 q 386 702 347 713 q 442 682 425 692 l 460 672 m 297 -142 l 288 -139 q 265 -103 264 -125 q 276 -72 265 -82 q 294 -62 286 -62 q 311 -63 303 -62 q 332 -77 319 -64 q 344 -106 344 -90 q 256 -256 344 -182 l 211 -224 q 263 -186 242 -207 q 297 -142 285 -165 z "},"ˆ":{"ha":560,"x_min":64,"x_max":467,"o":"m 64 875 l 269 1071 l 467 875 l 422 831 l 268 985 l 107 831 l 64 875 z "},"ˇ":{"ha":549,"x_min":64,"x_max":467,"o":"m 64 1017 l 107 1061 l 268 907 l 424 1061 l 467 1017 l 269 821 l 64 1017 z "},"˘":{"ha":471,"x_min":64,"x_max":378,"o":"m 64 972 l 117 972 l 117 965 q 146 892 117 924 q 220 860 175 860 q 295 892 265 860 q 325 965 325 924 l 325 972 l 378 972 l 378 965 q 332 854 378 900 q 221 808 286 808 q 110 854 156 808 q 64 965 64 900 l 64 972 z "},"˙":{"ha":88,"x_min":6,"x_max":82,"o":"m 17 922 q 11 927 17 922 q 6 949 6 933 q 17 975 6 964 q 44 986 29 986 q 71 975 60 986 q 82 949 82 964 q 71 922 82 933 q 44 910 60 910 q 17 922 29 910 z "},"˚":{"ha":636,"x_min":-3,"x_max":311,"o":"m 81 994 q 65 979 81 994 q 50 919 50 964 q 81 845 50 875 q 154 815 111 815 q 228 845 197 815 q 258 919 258 875 q 228 994 258 964 q 154 1024 197 1024 q 81 994 111 1024 m 43 809 q 20 832 43 809 q -3 919 -3 856 q 43 1030 -3 983 q 154 1076 89 1076 q 265 1030 219 1076 q 311 919 311 983 q 265 809 311 856 q 154 763 219 763 q 43 809 89 763 z "},"˛":{"ha":532,"x_min":106,"x_max":368,"o":"m 306 4 q 163 -175 163 -110 q 181 -219 163 -200 q 231 -237 199 -237 q 325 -179 289 -237 l 368 -222 q 233 -292 324 -292 q 167 -276 197 -292 q 106 -176 106 -247 q 239 4 106 -83 l 306 4 z "},"˜":{"ha":615,"x_min":108,"x_max":567,"o":"m 244 913 q 138 860 186 913 l 108 904 q 247 976 174 976 q 375 933 281 976 q 440 918 407 918 q 539 965 496 918 l 567 919 q 439 854 507 854 q 378 868 411 854 q 312 897 346 882 q 244 913 278 913 z "},"˝":{"ha":629,"x_min":-3,"x_max":304,"o":"m 153 789 l 225 957 q 261 985 238 985 q 303 958 294 985 q 304 943 304 951 q 297 925 304 935 l 203 789 l 153 789 m -3 789 l 69 957 q 106 985 82 985 q 147 958 139 985 q 149 943 149 951 q 142 925 149 935 l 47 789 l -3 789 z "},"΅":{"ha":453,"x_min":108,"x_max":406,"o":"m 225 1015 l 297 1183 q 333 1211 310 1211 q 375 1183 367 1211 q 369 1151 379 1165 l 275 1015 l 225 1015 m 119 1001 q 125 1007 119 1001 q 146 1013 131 1013 q 173 1001 161 1013 q 185 975 185 990 q 173 948 185 960 q 146 936 161 936 q 119 948 131 936 q 108 975 108 960 q 119 1001 108 990 m 340 1001 q 346 1007 340 1001 q 367 1013 351 1013 q 394 1001 382 1013 q 406 975 406 990 q 394 948 406 960 q 367 936 382 936 q 340 948 351 936 q 329 975 329 960 q 340 1001 329 990 z "},"Ά":{"ha":858,"x_min":108,"x_max":810,"o":"m 428 972 l 486 972 l 810 0 l 743 0 l 624 356 l 290 356 l 174 0 l 108 0 l 428 972 m 457 871 l 310 417 l 607 417 l 457 871 m 129 789 l 201 957 q 238 985 214 985 q 278 958 271 985 q 281 943 281 951 q 274 925 281 935 l 179 789 l 129 789 z "},"Έ":{"ha":853,"x_min":108,"x_max":804,"o":"m 108 789 l 181 957 q 217 985 193 985 q 258 958 250 985 q 253 925 263 939 l 158 789 l 108 789 m 340 972 l 804 972 l 804 914 l 403 914 l 403 574 l 683 574 l 663 513 l 403 513 l 403 57 l 801 57 l 801 0 l 340 0 l 340 972 z "},"Ή":{"ha":989,"x_min":108,"x_max":940,"o":"m 108 789 l 181 957 q 217 985 193 985 q 258 958 250 985 q 253 925 263 939 l 158 789 l 108 789 m 343 972 l 406 972 l 406 574 l 878 574 l 878 972 l 940 972 l 940 0 l 878 0 l 878 513 l 406 513 l 406 0 l 343 0 l 343 972 z "},"Ί":{"ha":536,"x_min":108,"x_max":488,"o":"m 325 972 l 488 972 l 488 0 l 425 0 l 425 914 l 325 917 l 325 972 m 108 789 l 181 957 q 217 985 193 985 q 258 958 250 985 q 260 943 260 951 q 253 925 260 935 l 158 789 l 108 789 z "},"Ό":{"ha":903,"x_min":108,"x_max":854,"o":"m 271 257 l 271 704 q 349 921 271 847 q 565 994 428 994 q 778 917 703 994 q 854 703 854 839 l 854 257 q 769 51 854 117 q 564 -15 683 -15 q 358 51 444 -15 q 271 257 271 117 m 333 714 l 333 257 q 399 98 333 151 q 564 44 465 44 q 728 97 663 44 q 793 258 793 149 l 793 714 q 731 878 793 821 q 563 935 669 935 q 394 878 456 935 q 333 714 333 821 m 108 789 l 181 957 q 217 985 193 985 q 258 958 250 985 q 260 943 260 951 q 253 925 260 935 l 158 789 l 108 789 z "},"Ύ":{"ha":999,"x_min":108,"x_max":951,"o":"m 108 789 l 181 957 q 217 985 193 985 q 258 958 250 985 q 253 925 263 939 l 158 789 l 108 789 m 335 972 l 397 972 l 397 621 q 465 458 397 515 q 638 401 533 401 q 808 442 743 401 q 888 557 874 483 l 888 972 l 951 972 l 951 213 q 806 -10 951 15 l 790 33 q 878 128 860 60 q 888 211 888 163 l 888 428 q 782 362 850 383 q 653 340 714 340 q 420 413 506 340 q 335 629 335 486 l 335 972 z "},"Ώ":{"ha":1001,"x_min":108,"x_max":953,"o":"m 518 982 l 674 982 q 869 904 804 982 q 935 699 935 826 l 935 272 q 903 142 935 190 q 813 58 872 93 l 932 58 l 953 0 l 636 0 l 636 58 q 789 106 721 69 q 874 272 874 151 l 874 708 q 819 869 874 814 q 674 925 764 925 l 518 925 q 374 869 429 925 q 319 708 319 813 l 319 272 q 403 106 319 151 q 556 58 467 69 l 556 0 l 239 0 l 258 58 l 375 58 q 257 272 257 122 l 257 699 q 322 904 257 826 q 518 982 388 982 m 108 789 l 181 957 q 217 985 193 985 q 258 958 250 985 q 260 943 260 951 q 253 925 260 935 l 158 789 l 108 789 z "},"ΐ":{"ha":349,"x_min":21,"x_max":317,"o":"m 132 696 l 194 696 l 194 0 l 132 0 l 132 696 m 133 856 l 206 1024 q 242 1051 218 1051 q 283 1025 275 1051 q 278 992 288 1006 l 183 856 l 133 856 m 32 869 q 38 875 32 869 q 58 881 43 881 q 85 869 74 881 q 97 843 97 858 q 85 816 97 828 q 58 804 74 804 q 32 816 43 804 q 21 843 21 828 q 32 869 21 858 m 251 869 q 257 875 251 869 q 278 881 263 881 q 305 869 293 881 q 317 843 317 858 q 305 816 317 828 q 278 804 293 804 q 251 816 263 804 q 240 843 240 828 q 251 869 240 858 z "},"Α":{"ha":749,"x_min":17,"x_max":718,"o":"m 336 972 l 394 972 l 718 0 l 651 0 l 532 356 l 199 356 l 82 0 l 17 0 l 336 972 m 365 871 l 218 417 l 515 417 l 365 871 z "},"Β":{"ha":758,"x_min":108,"x_max":710,"o":"m 108 972 l 415 972 q 594 914 529 972 q 660 733 660 856 q 560 551 660 611 q 558 549 558 550 l 558 547 q 667 456 624 519 q 710 290 710 393 q 653 97 710 179 q 566 26 624 53 q 428 0 508 0 l 108 0 l 108 972 m 171 913 l 171 574 l 428 574 q 549 617 501 574 q 596 745 596 660 q 544 872 596 831 q 404 913 493 913 l 171 913 m 171 513 l 171 60 l 425 60 q 643 296 643 60 q 586 454 643 396 q 443 513 529 513 l 171 513 z "},"Γ":{"ha":621,"x_min":108,"x_max":572,"o":"m 108 972 l 572 972 l 572 913 l 171 913 l 171 0 l 108 0 l 108 972 z "},"Δ":{"ha":735,"x_min":17,"x_max":718,"o":"m 335 972 l 394 972 l 718 0 l 17 0 l 335 972 m 364 876 l 100 57 l 633 57 l 364 876 z "},"Ε":{"ha":621,"x_min":108,"x_max":572,"o":"m 108 972 l 572 972 l 572 914 l 171 914 l 171 574 l 451 574 l 431 513 l 171 513 l 171 57 l 569 57 l 569 0 l 108 0 l 108 972 z "},"Ζ":{"ha":833,"x_min":108,"x_max":785,"o":"m 126 972 l 776 972 l 776 915 l 188 57 l 785 57 l 785 0 l 108 0 l 108 57 l 697 915 l 126 915 l 126 972 z "},"Η":{"ha":800,"x_min":111,"x_max":708,"o":"m 111 972 l 174 972 l 174 574 l 646 574 l 646 972 l 708 972 l 708 0 l 646 0 l 646 513 l 174 513 l 174 0 l 111 0 l 111 972 z "},"Θ":{"ha":740,"x_min":108,"x_max":692,"o":"m 108 257 l 108 704 q 187 921 108 847 q 403 994 265 994 q 616 917 540 994 q 692 703 692 839 l 692 257 q 606 51 692 117 q 401 -15 521 -15 q 195 51 282 -15 q 108 257 108 117 m 171 714 l 171 501 l 631 501 l 631 714 q 569 878 631 821 q 400 935 507 935 q 232 878 293 935 q 171 714 171 821 m 171 257 q 237 98 171 151 q 401 44 303 44 q 565 97 500 44 q 631 258 631 149 l 631 439 l 171 439 l 171 257 z "},"Ι":{"ha":415,"x_min":111,"x_max":274,"o":"m 111 972 l 274 972 l 274 0 l 211 0 l 211 914 l 111 917 l 111 972 z "},"Κ":{"ha":708,"x_min":108,"x_max":660,"o":"m 108 974 l 171 974 l 171 485 l 515 974 l 588 974 l 297 561 l 660 0 l 586 0 l 258 503 l 171 378 l 171 0 l 108 0 l 108 974 z "},"Λ":{"ha":740,"x_min":17,"x_max":718,"o":"m 335 972 l 394 972 l 718 0 l 651 0 l 364 875 l 82 0 l 17 0 l 335 972 z "},"Μ":{"ha":965,"x_min":111,"x_max":856,"o":"m 111 972 l 174 972 l 482 96 l 793 972 l 856 972 l 856 0 l 793 0 l 793 790 l 515 0 l 449 0 l 174 790 l 174 0 l 111 0 l 111 972 z "},"Ν":{"ha":890,"x_min":111,"x_max":794,"o":"m 111 972 l 174 972 l 733 114 l 733 972 l 794 972 l 794 0 l 733 0 l 174 860 l 174 0 l 111 0 l 111 972 z "},"Ξ":{"ha":864,"x_min":108,"x_max":815,"o":"m 285 574 l 651 574 l 651 513 l 285 513 l 285 574 m 310 972 l 761 972 l 738 914 l 310 914 q 157 808 193 914 l 108 826 q 179 938 131 904 q 310 972 228 972 m 186 58 l 614 58 q 765 165 729 58 l 815 147 q 744 35 793 69 q 614 0 696 0 l 163 0 l 186 58 z "},"Ο":{"ha":724,"x_min":86,"x_max":669,"o":"m 86 257 l 86 704 q 165 921 86 847 q 381 994 243 994 q 594 917 518 994 q 669 703 669 839 l 669 257 q 584 51 669 117 q 379 -15 499 -15 q 173 51 260 -15 q 86 257 86 117 m 149 714 l 149 257 q 215 98 149 151 q 379 44 281 44 q 543 97 478 44 q 608 258 608 149 l 608 714 q 547 878 608 821 q 378 935 485 935 q 210 878 271 935 q 149 714 149 821 z "},"Π":{"ha":817,"x_min":111,"x_max":708,"o":"m 111 972 l 708 972 l 708 0 l 646 0 l 646 910 l 174 910 l 174 0 l 111 0 l 111 972 z "},"Ρ":{"ha":760,"x_min":108,"x_max":711,"o":"m 171 913 l 171 417 l 451 417 q 546 437 507 417 q 604 483 585 457 q 635 549 624 508 q 649 675 649 599 q 599 851 649 790 q 454 913 549 913 l 171 913 m 108 972 l 450 972 q 647 892 582 972 q 711 675 711 811 q 649 431 711 506 q 572 378 622 400 q 451 356 521 356 l 171 356 l 171 0 l 108 0 l 108 972 z "},"Σ":{"ha":807,"x_min":108,"x_max":758,"o":"m 131 972 l 725 972 l 704 914 l 244 914 l 497 536 l 213 58 l 546 58 q 708 165 674 58 l 758 147 q 688 35 736 69 q 557 0 639 0 l 108 0 l 422 533 l 131 972 z "},"Τ":{"ha":715,"x_min":108,"x_max":667,"o":"m 108 972 l 667 972 l 667 915 l 415 915 l 415 0 l 353 0 l 353 915 l 108 915 l 108 972 z "},"Υ":{"ha":771,"x_min":83,"x_max":700,"o":"m 83 972 l 146 972 l 146 621 q 214 458 146 515 q 387 401 282 401 q 557 442 492 401 q 636 557 622 483 l 636 972 l 700 972 l 700 213 q 554 -10 700 15 l 539 33 q 628 128 608 60 q 636 211 636 163 l 636 428 q 531 362 599 383 q 401 340 463 340 q 169 413 254 340 q 83 629 83 486 l 83 972 z "},"Φ":{"ha":889,"x_min":108,"x_max":840,"o":"m 269 981 l 301 931 q 171 718 171 894 l 171 299 q 224 149 171 200 q 369 99 278 99 l 439 99 l 439 840 q 481 949 442 910 q 585 988 519 988 q 772 912 703 988 q 840 710 840 836 l 840 313 q 776 114 840 186 q 579 42 711 42 l 503 42 l 503 -47 l 439 -32 l 439 42 l 369 42 q 173 114 238 42 q 108 313 108 186 l 108 718 q 269 981 108 929 m 596 929 q 503 828 503 929 l 503 100 l 582 100 q 726 151 674 100 q 778 299 778 203 l 778 724 q 719 878 778 826 q 596 929 661 929 z "},"Χ":{"ha":861,"x_min":108,"x_max":813,"o":"m 135 972 l 204 972 l 461 554 l 718 972 l 790 972 l 499 494 l 813 1 l 736 0 l 461 431 l 186 0 l 108 0 l 424 494 l 135 972 z "},"Ψ":{"ha":875,"x_min":61,"x_max":793,"o":"m 61 972 l 124 972 l 124 554 q 178 401 124 451 q 322 351 232 351 l 392 351 l 392 972 l 456 972 l 456 351 l 532 351 q 678 403 625 351 q 731 554 731 456 l 731 783 q 719 882 731 843 q 699 931 707 921 q 664 967 690 940 l 715 985 q 771 920 753 961 q 791 850 789 879 q 793 763 793 821 l 793 564 q 728 366 793 438 q 532 294 664 294 l 456 294 l 456 0 l 392 0 l 392 294 l 322 294 q 126 366 190 294 q 61 564 61 438 l 61 972 z "},"Ϊ":{"ha":304,"x_min":49,"x_max":346,"o":"m 65 972 l 228 972 l 228 0 l 165 0 l 165 914 l 65 917 l 65 972 m 60 1094 q 66 1100 60 1094 q 88 1106 72 1106 q 115 1094 103 1106 q 126 1067 126 1082 q 115 1040 126 1051 q 88 1029 103 1029 q 60 1040 72 1029 q 49 1067 49 1051 q 60 1094 49 1082 m 281 1094 q 286 1100 281 1094 q 307 1106 292 1106 q 334 1094 322 1106 q 346 1068 346 1083 q 334 1041 346 1053 q 307 1029 322 1029 q 281 1041 292 1029 q 269 1068 269 1053 q 281 1094 269 1083 z "},"Ϋ":{"ha":703,"x_min":0,"x_max":656,"o":"m 0 972 l 71 972 l 326 546 l 585 972 l 656 972 l 358 475 l 358 0 l 296 0 l 296 474 l 0 972 m 183 1091 q 189 1097 183 1091 q 210 1103 194 1103 q 237 1091 225 1103 q 249 1064 249 1079 q 237 1038 249 1049 q 210 1026 225 1026 q 183 1038 194 1026 q 171 1064 171 1049 q 183 1091 171 1079 m 403 1092 q 408 1097 403 1092 q 429 1103 414 1103 q 456 1092 444 1103 q 468 1065 468 1081 q 456 1038 468 1050 q 429 1026 444 1026 q 403 1038 414 1026 q 392 1065 392 1050 q 403 1092 392 1081 z "},"ά":{"ha":701,"x_min":108,"x_max":653,"o":"m 310 704 q 553 643 433 704 l 575 699 l 625 675 q 615 554 615 599 l 615 85 q 653 39 624 56 l 624 3 q 601 5 619 3 q 522 1 583 7 q 392 -6 461 -6 q 286 3 324 -6 q 108 235 108 36 l 108 492 q 153 642 108 589 q 269 703 199 696 q 310 704 289 704 m 553 585 q 301 647 415 647 q 206 607 242 647 q 169 488 169 567 l 169 225 q 350 50 169 56 q 409 50 364 50 q 553 61 454 50 l 553 585 m 329 747 l 401 915 q 438 943 414 943 q 478 917 471 943 q 481 901 481 910 q 474 883 481 893 l 379 747 l 329 747 z "},"έ":{"ha":636,"x_min":108,"x_max":588,"o":"m 313 747 l 385 915 q 421 943 397 943 q 461 917 454 943 q 457 883 467 897 l 363 747 l 313 747 m 138 536 q 210 672 138 626 q 340 710 268 710 q 490 689 413 710 l 490 631 q 383 651 429 651 q 301 647 336 651 q 233 614 265 642 q 201 540 201 586 q 228 456 201 493 q 313 418 256 418 l 489 418 l 468 357 l 326 357 q 215 318 258 357 q 171 205 171 279 q 219 88 171 131 q 357 44 268 44 q 460 56 407 44 q 542 78 514 67 l 569 90 l 588 33 q 362 -14 479 -14 q 181 42 244 -14 q 108 210 108 106 q 221 390 108 349 q 160 449 182 404 q 138 536 138 493 z "},"ή":{"ha":669,"x_min":108,"x_max":621,"o":"m 346 747 l 418 915 q 454 943 431 943 q 494 917 488 943 q 490 883 500 897 l 396 747 l 346 747 m 367 650 q 171 603 258 650 l 171 0 l 108 0 l 108 696 l 171 696 l 171 658 q 369 707 249 707 q 503 681 449 707 q 621 481 621 626 l 621 -293 l 560 -265 l 560 478 q 517 597 560 553 q 414 647 475 640 q 367 650 390 650 z "},"ί":{"ha":317,"x_min":113,"x_max":269,"o":"m 118 747 l 190 915 q 226 943 203 943 q 267 917 260 943 q 269 901 269 910 q 263 883 269 893 l 168 747 l 118 747 m 113 696 l 175 696 l 175 0 l 113 0 l 113 696 z "},"ΰ":{"ha":685,"x_min":108,"x_max":636,"o":"m 108 696 l 171 696 l 171 229 q 372 43 171 43 q 574 229 574 43 l 574 696 l 636 696 l 636 239 q 372 -14 636 -14 q 108 239 108 -14 l 108 696 m 347 857 l 419 1025 q 456 1053 432 1053 q 497 1025 489 1053 q 492 993 501 1007 l 397 857 l 347 857 m 239 869 q 244 875 239 869 q 265 881 250 881 q 292 869 281 881 q 304 843 304 858 q 292 816 304 828 q 265 804 281 804 q 239 816 250 804 q 228 843 228 828 q 239 869 228 858 m 460 869 q 465 875 460 869 q 486 881 471 881 q 513 869 501 881 q 525 843 525 858 q 513 816 525 828 q 486 804 501 804 q 460 816 471 804 q 449 843 449 828 q 460 869 449 858 z "},"α":{"ha":701,"x_min":108,"x_max":653,"o":"m 310 704 q 553 643 433 704 l 575 699 l 625 675 q 615 554 615 599 l 615 85 q 653 39 624 56 l 624 3 q 601 5 619 3 q 522 1 583 7 q 392 -6 461 -6 q 286 3 324 -6 q 108 235 108 36 l 108 492 q 153 642 108 589 q 269 703 199 696 q 310 704 289 704 m 553 585 q 301 647 415 647 q 206 607 242 647 q 169 488 169 567 l 169 225 q 350 50 169 56 q 409 50 364 50 q 553 61 454 50 l 553 585 z "},"β":{"ha":671,"x_min":108,"x_max":622,"o":"m 108 746 q 156 913 108 853 q 293 974 204 974 q 428 922 382 974 q 475 801 475 869 q 419 688 475 732 q 566 615 510 676 q 622 458 622 553 l 622 203 q 319 -26 622 -26 q 171 -12 250 -26 l 171 -224 l 108 -224 l 108 746 m 369 631 q 172 586 257 631 l 172 44 q 315 29 253 29 q 434 41 376 29 q 526 93 492 53 q 561 199 561 133 l 561 454 q 517 579 561 535 q 410 629 474 624 q 369 631 389 631 m 172 747 l 172 643 q 343 704 228 672 q 406 769 392 718 q 410 811 410 786 q 390 867 410 836 q 303 913 361 913 q 172 747 172 913 z "},"γ":{"ha":717,"x_min":29,"x_max":671,"o":"m 29 696 l 93 696 l 240 194 q 282 97 258 131 q 346 50 306 63 l 493 539 q 543 651 515 611 q 628 710 571 692 l 671 672 q 599 624 622 649 q 550 522 575 599 l 376 -58 q 346 -182 346 -150 q 363 -239 346 -214 l 319 -275 q 281 -182 281 -237 q 294 -108 281 -149 l 325 -7 q 269 26 286 14 q 226 77 253 38 q 179 179 199 117 l 29 696 z "},"δ":{"ha":675,"x_min":108,"x_max":626,"o":"m 306 701 q 244 832 244 754 q 285 933 244 886 q 408 979 326 979 l 469 979 l 444 922 l 399 922 q 325 886 350 922 q 308 842 308 864 q 378 724 308 765 q 581 558 539 622 q 626 399 626 486 l 626 256 q 369 -14 626 -14 q 173 58 238 -14 q 108 256 108 129 l 108 431 q 160 612 108 542 q 306 701 213 682 m 171 431 l 171 246 q 226 92 171 142 q 369 43 282 43 q 564 246 564 43 l 564 418 q 515 543 564 476 q 369 656 467 610 q 224 592 278 647 q 171 431 171 536 z "},"ε":{"ha":636,"x_min":108,"x_max":588,"o":"m 138 536 q 210 672 138 626 q 340 710 268 710 q 490 689 413 710 l 490 631 q 383 651 429 651 q 301 647 336 651 q 233 614 265 642 q 201 540 201 586 q 228 456 201 493 q 313 418 256 418 l 489 418 l 468 357 l 326 357 q 215 318 258 357 q 171 205 171 279 q 219 88 171 131 q 357 44 268 44 q 460 56 407 44 q 542 78 514 67 l 569 90 l 588 33 q 362 -14 479 -14 q 181 42 244 -14 q 108 210 108 106 q 221 390 108 349 q 160 449 182 404 q 138 536 138 493 z "},"ζ":{"ha":647,"x_min":108,"x_max":599,"o":"m 203 972 l 581 972 l 599 917 q 414 733 517 851 q 172 256 172 458 q 228 107 172 156 q 374 58 285 58 q 565 86 463 58 l 565 -261 l 503 -290 l 503 13 q 365 -4 435 -4 q 233 28 294 -4 q 108 246 108 94 q 158 467 108 363 q 508 918 261 682 l 203 918 l 203 972 z "},"η":{"ha":669,"x_min":108,"x_max":621,"o":"m 367 650 q 171 603 258 650 l 171 0 l 108 0 l 108 696 l 171 696 l 171 658 q 369 707 249 707 q 503 681 449 707 q 621 481 621 626 l 621 -293 l 560 -265 l 560 478 q 517 597 560 553 q 414 647 475 640 q 367 650 390 650 z "},"θ":{"ha":668,"x_min":86,"x_max":614,"o":"m 86 265 l 86 464 q 161 607 89 556 q 114 779 114 699 q 178 928 114 869 q 347 986 243 986 q 547 908 479 983 q 614 701 614 833 l 614 265 q 545 67 614 142 q 349 -8 476 -8 q 154 67 222 -7 q 86 265 86 142 m 149 464 l 149 261 q 206 107 149 163 q 349 51 263 51 q 494 108 436 51 q 551 257 551 164 l 551 642 q 507 643 535 643 q 424 636 479 643 q 303 609 368 629 q 193 551 238 589 q 149 464 149 513 m 217 636 q 511 704 339 704 q 551 703 532 704 q 495 872 551 818 q 349 926 439 926 q 244 900 286 926 q 179 771 179 860 q 217 636 179 704 z "},"ι":{"ha":196,"x_min":75,"x_max":138,"o":"m 75 696 l 138 696 l 138 0 l 75 0 l 75 696 z "},"κ":{"ha":669,"x_min":108,"x_max":622,"o":"m 108 711 l 171 696 l 171 351 l 486 696 l 569 696 l 307 410 l 483 161 q 619 54 563 54 l 622 -1 q 517 38 561 0 q 419 147 472 75 l 264 363 l 171 267 l 171 0 l 108 0 l 108 711 z "},"λ":{"ha":800,"x_min":108,"x_max":751,"o":"m 228 922 l 228 972 q 235 972 231 972 q 359 939 314 972 q 432 824 404 906 l 629 172 q 682 68 658 92 q 694 55 690 60 q 709 44 699 50 q 722 37 719 39 q 737 29 725 35 q 751 22 749 24 l 710 -14 q 623 44 650 4 q 572 158 596 85 l 425 647 q 356 590 378 622 q 319 501 335 557 l 172 0 l 108 0 l 258 517 q 292 595 275 571 q 315 630 308 619 q 338 653 322 640 q 358 671 353 667 q 404 704 369 681 l 374 803 q 228 922 336 918 z "},"μ":{"ha":721,"x_min":108,"x_max":672,"o":"m 108 696 l 172 696 l 172 140 q 272 72 207 101 q 407 42 342 42 q 511 67 464 42 q 572 206 572 101 l 572 694 l 636 708 l 636 93 q 672 32 639 49 l 642 -7 q 613 8 631 -7 q 585 49 594 22 q 413 -17 528 -17 q 261 13 325 -17 q 172 64 192 44 l 172 -289 l 108 -279 l 108 696 z "},"ν":{"ha":692,"x_min":108,"x_max":643,"o":"m 108 696 l 174 696 l 375 72 l 578 696 l 643 696 l 415 0 l 335 0 l 108 696 z "},"ξ":{"ha":576,"x_min":108,"x_max":528,"o":"m 313 714 q 254 838 254 761 q 294 936 254 889 q 418 983 333 983 l 479 983 l 454 926 l 407 926 q 332 886 356 926 q 318 840 318 864 q 394 724 318 760 q 497 686 424 711 l 479 635 q 371 656 422 656 q 275 642 319 656 q 200 587 231 629 q 169 479 169 544 l 169 221 q 202 117 169 157 q 281 66 235 76 q 385 56 328 56 q 528 79 443 56 l 528 -274 l 467 -303 l 467 4 q 369 -4 415 -4 q 208 31 276 -4 q 108 228 108 85 l 108 483 q 169 644 108 582 q 313 714 229 706 z "},"ο":{"ha":675,"x_min":108,"x_max":626,"o":"m 108 256 l 108 439 q 176 641 108 571 q 367 711 243 711 q 558 638 490 711 q 626 439 626 565 l 626 256 q 563 63 626 139 q 369 -14 499 -14 q 174 63 240 -14 q 108 256 108 140 m 171 440 l 171 246 q 223 99 171 157 q 369 42 275 42 q 514 99 464 42 q 564 246 564 156 l 564 440 q 510 601 564 549 q 368 654 457 654 q 225 602 279 654 q 171 440 171 550 z "},"π":{"ha":739,"x_min":92,"x_max":656,"o":"m 92 696 l 618 696 l 618 99 q 656 35 622 56 l 625 -4 q 617 -1 622 -3 q 600 10 613 1 q 578 31 588 18 q 554 110 554 61 l 556 642 l 154 642 l 154 0 l 92 0 l 92 696 z "},"ρ":{"ha":675,"x_min":108,"x_max":626,"o":"m 626 425 l 626 239 q 560 51 626 115 q 365 -14 494 -14 q 168 76 235 -14 l 168 -275 l 108 -293 l 108 438 q 176 633 108 561 q 364 704 243 704 q 626 425 626 704 m 171 436 l 171 231 q 226 90 171 138 q 367 42 281 42 q 509 86 454 42 q 564 232 564 131 l 564 431 q 363 646 564 646 q 226 597 281 646 q 171 436 171 547 z "},"ς":{"ha":568,"x_min":108,"x_max":519,"o":"m 108 315 l 108 510 q 166 642 108 583 q 347 701 224 701 q 431 692 392 701 q 486 674 469 683 l 503 664 l 481 613 q 356 646 433 646 q 225 611 279 646 q 171 510 171 576 l 171 333 q 223 183 171 242 q 424 33 275 124 q 519 -126 519 -25 q 496 -204 519 -168 l 447 -174 q 461 -133 461 -154 q 400 -19 461 -58 q 347 15 388 -11 q 292 49 306 40 q 244 82 278 58 q 199 119 211 106 q 164 158 186 133 q 133 206 142 183 q 108 315 108 263 z "},"σ":{"ha":731,"x_min":108,"x_max":682,"o":"m 108 243 l 108 492 q 134 605 108 558 q 201 672 160 651 q 344 707 269 707 l 397 701 q 476 694 443 694 q 532 699 508 694 q 636 754 586 708 l 682 736 q 546 640 636 657 q 626 431 626 588 l 626 243 q 369 -26 626 -26 q 173 45 238 -26 q 108 243 108 117 m 171 488 l 171 233 q 224 81 171 131 q 369 31 278 31 q 565 233 565 31 l 565 431 q 542 547 565 496 q 501 615 519 597 q 474 635 482 633 q 349 650 403 650 q 171 488 171 650 z "},"τ":{"ha":575,"x_min":108,"x_max":526,"o":"m 108 694 l 526 694 l 526 635 l 346 635 l 346 183 q 368 82 346 117 q 440 31 390 47 l 422 -18 q 315 52 346 4 q 283 183 283 100 l 283 635 l 108 635 l 108 694 z "},"υ":{"ha":715,"x_min":92,"x_max":619,"o":"m 92 696 l 154 696 l 154 229 q 356 43 154 43 q 557 229 557 43 l 557 696 l 619 696 l 619 239 q 356 -14 619 -14 q 92 239 92 -14 l 92 696 z "},"φ":{"ha":889,"x_min":108,"x_max":840,"o":"m 269 699 l 303 649 q 171 438 171 615 l 171 249 q 226 99 171 150 q 369 49 281 49 l 439 49 l 439 558 q 479 665 442 625 q 582 704 517 704 q 772 628 703 704 q 840 426 840 553 l 840 263 q 776 65 840 136 q 579 -7 711 -7 l 503 -7 l 503 -299 l 439 -283 l 439 -7 l 369 -7 q 173 65 238 -7 q 108 263 108 136 l 108 436 q 269 699 108 647 m 503 547 l 503 49 l 579 49 q 725 101 672 49 q 778 251 778 153 l 778 440 q 718 595 778 544 q 592 646 658 646 q 503 547 503 646 z "},"χ":{"ha":789,"x_min":108,"x_max":740,"o":"m 114 696 l 183 696 l 385 281 l 599 696 l 668 696 l 419 211 l 589 -137 q 636 -206 610 -182 q 681 -237 663 -231 q 716 -245 699 -243 q 735 -248 733 -247 q 740 -249 738 -249 l 708 -294 q 706 -294 707 -294 q 532 -157 601 -294 l 385 144 l 167 -282 l 108 -258 l 350 213 l 114 696 z "},"ψ":{"ha":890,"x_min":108,"x_max":840,"o":"m 108 694 l 171 694 l 171 253 q 226 99 171 149 q 369 50 282 50 l 439 50 l 439 694 l 503 694 l 503 50 l 579 50 q 723 99 668 50 q 778 254 778 149 l 778 501 q 747 647 778 606 q 713 683 736 663 l 763 703 q 818 638 800 679 q 838 568 836 597 q 840 481 840 539 l 840 263 q 776 65 840 136 q 579 -7 711 -7 l 503 -7 l 503 -304 l 439 -289 l 439 -7 l 369 -7 q 173 65 238 -7 q 108 263 108 136 l 108 694 z "},"ω":{"ha":939,"x_min":92,"x_max":831,"o":"m 240 694 l 276 644 q 188 578 221 629 q 154 450 154 528 l 154 249 q 201 91 154 139 q 311 43 247 43 q 429 200 425 43 l 429 415 l 493 415 l 493 200 q 611 43 494 43 q 722 90 675 43 q 768 249 768 138 l 768 450 q 735 578 768 528 q 644 643 701 629 l 682 694 q 831 440 831 639 l 831 261 q 607 -17 831 -17 q 461 61 508 -17 q 315 -17 414 -17 q 92 261 92 -17 l 92 440 q 240 694 92 639 z "},"ϊ":{"ha":207,"x_min":-46,"x_max":251,"o":"m 71 696 l 133 696 l 133 0 l 71 0 l 71 696 m -34 827 q -28 833 -34 827 q -7 839 -22 839 q 20 827 8 839 q 32 800 32 815 q 20 774 32 785 q -7 763 8 763 q -34 774 -22 763 q -46 800 -46 785 q -34 827 -46 815 m 186 828 q 192 833 186 828 q 213 839 197 839 q 240 828 228 839 q 251 801 251 817 q 240 774 251 786 q 213 763 228 763 q 186 774 197 763 q 175 801 175 786 q 186 828 175 817 z "},"ϋ":{"ha":685,"x_min":108,"x_max":636,"o":"m 108 696 l 171 696 l 171 229 q 372 43 171 43 q 574 229 574 43 l 574 696 l 636 696 l 636 239 q 372 -14 636 -14 q 108 239 108 -14 l 108 696 m 238 827 q 244 833 238 827 q 265 839 250 839 q 292 827 281 839 q 304 800 304 815 q 292 774 304 785 q 265 763 281 763 q 238 774 250 763 q 226 800 226 785 q 238 827 226 815 m 458 828 q 464 833 458 828 q 485 839 469 839 q 512 828 500 839 q 524 801 524 817 q 512 774 524 786 q 485 763 500 763 q 458 774 469 763 q 447 801 447 786 q 458 828 447 817 z "},"ό":{"ha":675,"x_min":108,"x_max":626,"o":"m 332 747 l 404 915 q 440 943 417 943 q 481 917 474 943 q 476 883 486 897 l 382 747 l 332 747 m 108 256 l 108 439 q 176 641 108 571 q 367 711 243 711 q 558 638 490 711 q 626 439 626 565 l 626 256 q 563 63 626 139 q 369 -14 499 -14 q 174 63 240 -14 q 108 256 108 140 m 171 440 l 171 246 q 223 99 171 157 q 369 42 275 42 q 514 99 464 42 q 564 246 564 156 l 564 440 q 510 601 564 549 q 368 654 457 654 q 225 602 279 654 q 171 440 171 550 z "},"ύ":{"ha":685,"x_min":108,"x_max":636,"o":"m 346 747 l 418 915 q 454 943 431 943 q 494 917 488 943 q 490 883 500 897 l 396 747 l 346 747 m 108 696 l 171 696 l 171 229 q 372 43 171 43 q 574 229 574 43 l 574 696 l 636 696 l 636 239 q 372 -14 636 -14 q 108 239 108 -14 l 108 696 z "},"ώ":{"ha":896,"x_min":108,"x_max":847,"o":"m 449 747 l 521 915 q 557 943 533 943 q 597 917 590 943 q 593 883 603 897 l 499 747 l 449 747 m 257 694 l 293 644 q 204 578 238 629 q 171 450 171 528 l 171 249 q 217 91 171 139 q 328 43 264 43 q 446 200 442 43 l 446 415 l 510 415 l 510 200 q 628 43 511 43 q 738 90 692 43 q 785 249 785 138 l 785 450 q 751 578 785 528 q 661 643 718 629 l 699 694 q 847 440 847 639 l 847 261 q 624 -17 847 -17 q 478 61 525 -17 q 332 -17 431 -17 q 108 261 108 -17 l 108 440 q 257 694 108 639 z "},"‘":{"ha":457,"x_min":-3,"x_max":131,"o":"m 44 875 l 54 872 q 77 837 78 858 q 66 806 76 815 q 47 796 56 796 q 31 797 39 796 q 10 810 22 797 q -3 839 -3 824 q 86 989 -3 915 l 131 957 q 78 919 100 940 q 44 875 57 899 z "},"’":{"ha":457,"x_min":-3,"x_max":131,"o":"m 83 892 l 74 894 q 51 930 50 908 q 62 961 51 951 q 81 971 72 971 q 97 970 89 971 q 118 956 106 969 q 131 928 131 943 q 42 778 131 851 l -3 810 q 49 847 28 826 q 83 892 71 868 z "},"‚":{"ha":229,"x_min":24,"x_max":157,"o":"m 110 -3 l 100 0 q 77 35 76 14 q 88 67 78 57 q 107 76 99 76 q 124 76 115 76 q 144 62 132 75 q 157 33 157 49 q 68 -117 157 -43 l 24 -85 q 76 -47 54 -68 q 110 -3 97 -26 z "},"“":{"ha":667,"x_min":-3,"x_max":340,"o":"m 44 881 l 54 878 q 77 842 78 864 q 66 811 76 821 q 47 801 56 801 q 31 802 39 801 q 10 816 22 803 q -3 844 -3 829 q 86 994 -3 921 l 131 963 q 78 925 100 946 q 44 881 57 904 m 254 881 l 264 878 q 287 842 288 864 q 276 811 286 821 q 257 801 265 801 q 240 802 249 801 q 219 816 232 803 q 207 844 207 829 q 296 994 207 921 l 340 963 q 288 925 310 946 q 254 881 267 904 z "},"”":{"ha":667,"x_min":-3,"x_max":340,"o":"m 83 892 l 74 894 q 51 930 50 908 q 62 961 51 951 q 81 971 72 971 q 97 970 89 971 q 118 956 106 969 q 131 928 131 943 q 42 778 131 851 l -3 810 q 49 847 28 826 q 83 892 71 868 m 293 892 l 283 894 q 260 930 260 908 q 272 961 261 951 q 290 971 282 971 q 307 970 299 971 q 328 956 315 969 q 340 928 340 943 q 251 778 340 851 l 207 810 q 259 847 238 826 q 293 892 281 868 z "},"„":{"ha":439,"x_min":24,"x_max":367,"o":"m 110 0 l 100 3 q 77 38 76 17 q 88 69 78 60 q 107 79 99 79 q 124 78 115 79 q 144 65 132 78 q 157 36 157 51 q 68 -114 157 -40 l 24 -82 q 76 -44 54 -65 q 110 0 97 -24 m 319 0 l 310 3 q 287 38 286 17 q 298 69 288 60 q 317 79 308 79 q 333 78 325 79 q 354 65 342 78 q 367 36 367 51 q 278 -114 367 -40 l 233 -82 q 285 -44 264 -65 q 319 0 307 -24 z "},"•":{"ha":653,"x_min":108,"x_max":604,"o":"m 181 643 q 217 679 181 643 q 356 715 253 715 q 531 643 458 715 q 604 468 604 571 q 531 292 604 365 q 356 219 458 219 q 181 292 253 219 q 108 468 108 365 q 181 643 108 571 z "},"…":{"ha":667,"x_min":24,"x_max":596,"o":"m 35 65 q 40 71 35 65 q 61 76 46 76 q 88 65 76 76 q 100 39 100 54 q 88 12 100 24 q 61 0 76 0 q 35 12 46 0 q 24 39 24 24 q 35 65 24 54 m 281 65 q 286 71 281 65 q 307 76 292 76 q 334 65 322 76 q 346 39 346 54 q 334 12 346 24 q 307 0 322 0 q 281 12 292 0 q 269 39 269 24 q 281 65 269 54 m 531 65 q 536 71 531 65 q 557 76 542 76 q 584 65 572 76 q 596 39 596 54 q 584 12 596 24 q 557 0 572 0 q 531 12 542 0 q 519 39 519 24 q 531 65 519 54 z "},"‰":{"ha":1454,"x_min":114,"x_max":1406,"o":"m 1064 326 q 1093 356 1064 326 q 1206 385 1122 385 q 1347 326 1289 385 q 1406 185 1406 268 q 1347 43 1406 101 q 1206 -15 1289 -15 q 1064 43 1122 -15 q 1006 185 1006 101 q 1064 326 1006 268 m 1102 285 q 1082 263 1102 285 q 1063 185 1063 242 q 1101 85 1063 128 q 1206 42 1140 42 q 1310 85 1271 42 q 1349 185 1349 128 q 1309 285 1349 242 q 1206 328 1269 328 q 1102 285 1142 328 m 893 1028 l 939 982 l 154 1 l 115 47 l 893 1028 m 604 326 q 633 356 604 326 q 746 385 663 385 q 888 326 829 385 q 946 185 946 268 q 888 43 946 101 q 746 -15 829 -15 q 604 43 663 -15 q 546 185 546 101 q 604 326 546 268 m 642 285 q 623 263 642 285 q 603 185 603 242 q 642 85 603 128 q 746 42 681 42 q 850 85 811 42 q 889 185 889 128 q 849 285 889 242 q 746 328 810 328 q 642 285 682 328 m 172 951 q 201 981 172 951 q 314 1010 231 1010 q 456 951 397 1010 q 514 810 514 893 q 456 668 514 726 q 314 610 397 610 q 172 668 231 610 q 114 810 114 726 q 172 951 114 893 m 210 910 q 191 888 210 910 q 171 810 171 867 q 210 710 171 753 q 314 667 250 667 q 417 710 378 667 q 457 810 457 753 q 417 910 457 867 q 314 953 378 953 q 210 910 250 953 z "},"‹":{"ha":388,"x_min":58,"x_max":361,"o":"m 318 632 l 361 589 l 142 371 l 358 151 l 318 111 l 58 371 l 58 372 l 318 632 z "},"›":{"ha":410,"x_min":6,"x_max":308,"o":"m 6 589 l 49 632 l 308 372 l 308 371 l 49 111 l 8 151 l 225 371 l 6 589 z "},"⁄":{"ha":669,"x_min":108,"x_max":622,"o":"m 558 1135 l 622 1135 l 176 -158 l 108 -158 l 558 1135 z "},"€":{"ha":735,"x_min":108,"x_max":686,"o":"m 686 32 q 461 -14 568 -14 q 394 -10 439 -14 q 298 22 349 -6 q 216 108 247 49 q 185 254 185 167 l 185 367 l 108 367 l 108 428 l 185 428 l 185 513 l 108 513 l 108 574 l 185 574 l 185 700 q 215 860 185 806 q 306 951 244 914 q 454 986 368 986 q 651 940 563 986 l 632 896 q 472 929 551 929 q 303 874 361 929 q 264 810 281 851 q 247 713 247 768 l 247 574 l 553 574 l 553 513 l 247 513 l 247 428 l 553 428 l 553 367 l 247 367 l 247 257 q 357 61 247 108 q 475 43 401 43 q 672 85 549 43 l 686 32 z "},"™":{"ha":839,"x_min":160,"x_max":676,"o":"m 160 972 l 467 972 l 535 797 l 601 972 l 676 972 l 676 711 l 624 711 l 624 897 l 554 711 l 515 711 l 446 897 l 446 711 l 392 711 l 392 919 l 308 919 l 308 711 l 253 711 l 253 919 l 160 919 l 160 972 z "},"Ω":{"ha":871,"x_min":108,"x_max":822,"o":"m 388 982 l 543 982 q 739 904 674 982 q 804 699 804 826 l 804 272 q 773 142 804 190 q 682 58 742 93 l 801 58 l 822 0 l 506 0 l 506 58 q 658 106 590 69 q 743 272 743 151 l 743 708 q 688 869 743 814 q 543 925 633 925 l 388 925 q 244 869 299 925 q 189 708 189 813 l 189 272 q 272 106 189 151 q 425 58 336 69 l 425 0 l 108 0 l 128 58 l 244 58 q 126 272 126 122 l 126 699 q 192 904 126 826 q 388 982 257 982 z "},"∆":{"ha":858,"x_min":108,"x_max":810,"o":"m 426 972 l 486 972 l 810 0 l 108 0 l 426 972 m 456 876 l 192 57 l 725 57 l 456 876 z "},"ﬀ":{"ha":760,"x_min":108,"x_max":711,"o":"m 488 922 q 625 972 543 972 q 711 949 678 972 l 689 894 q 619 911 653 911 q 554 893 585 911 q 494 767 494 857 l 494 696 l 668 696 l 640 636 l 494 636 l 494 0 l 432 0 l 432 779 q 454 874 432 833 q 333 915 394 915 q 267 903 300 915 q 171 767 171 867 l 171 696 l 344 696 l 317 636 l 171 636 l 171 0 l 108 0 l 108 779 q 144 897 108 847 q 304 981 203 981 q 488 922 406 981 z "},"ﬁ":{"ha":544,"x_min":108,"x_max":496,"o":"m 435 696 l 496 696 l 496 0 l 435 0 l 435 696 m 171 765 l 171 696 l 344 696 l 318 636 l 171 636 l 171 0 l 108 0 l 108 779 q 168 929 108 874 q 310 985 228 985 q 476 917 403 985 l 436 875 q 311 917 369 917 q 210 874 250 917 q 171 765 171 831 z "},"ﬂ":{"ha":543,"x_min":108,"x_max":494,"o":"m 108 779 q 169 927 108 874 q 319 981 229 981 q 494 913 410 981 l 494 0 l 433 0 l 433 875 q 326 915 371 915 q 253 903 282 915 q 171 769 171 867 l 171 696 l 344 696 l 318 636 l 171 636 l 171 0 l 108 0 l 108 779 z "},"ﬄ":{"ha":863,"x_min":108,"x_max":814,"o":"m 485 924 q 635 981 539 981 q 814 913 731 981 l 814 0 l 753 0 l 753 875 q 646 915 690 915 q 572 903 601 915 q 490 769 490 867 l 490 696 l 664 696 l 638 636 l 490 636 l 490 0 l 428 0 l 428 779 q 450 875 428 833 q 332 915 390 915 l 264 903 q 171 767 171 865 l 171 696 l 344 696 l 317 636 l 171 636 l 171 0 l 108 0 l 108 779 q 167 925 108 869 q 308 981 225 981 q 485 924 392 981 z "}," ":{"ha":386,"x_min":0,"x_max":0,"o":""}}}
